{"glyphs":{"0":{"ha":844,"x_min":42,"x_max":802,"o":"m 137 160 q 126 176 130 170 q 114 189 121 183 q 110 199 113 195 q 107 212 107 203 q 102 218 104 214 q 98 225 100 221 l 91 240 q 82 252 81 251 q 81 256 83 254 q 77 268 77 267 q 76 271 77 269 l 68 307 q 64 327 64 323 q 62 334 64 331 q 56 353 58 350 q 56 369 58 362 q 50 382 52 378 q 49 391 49 387 q 49 404 47 397 q 45 418 50 411 q 45 438 46 434 q 45 446 45 442 q 42 464 42 461 q 45 479 42 468 q 44 490 45 484 q 43 500 43 495 q 43 523 45 518 q 43 534 42 528 q 45 549 46 545 q 43 557 43 553 q 45 572 46 571 q 45 574 45 572 q 46 589 46 582 q 48 602 49 601 q 47 606 47 604 q 49 615 47 610 q 49 624 50 620 q 52 631 52 627 q 54 639 52 636 q 54 649 52 644 q 58 659 57 654 q 61 671 61 666 q 64 682 61 677 l 68 697 q 71 705 69 701 q 73 712 72 708 q 79 730 79 727 q 81 736 79 734 q 81 745 79 741 q 85 753 84 749 l 94 770 q 106 802 100 789 q 117 815 111 812 l 125 833 q 132 847 133 846 q 134 848 132 848 q 150 873 146 867 q 157 886 153 879 q 162 891 160 888 q 165 899 164 894 q 176 913 172 909 q 184 921 180 917 q 198 934 195 933 q 201 937 201 935 q 211 941 208 939 q 218 945 214 943 l 229 956 q 239 965 235 962 q 250 970 244 968 q 272 983 263 981 q 283 991 281 985 q 298 997 290 991 q 307 998 302 997 q 315 1001 311 1000 q 323 1004 320 1002 q 331 1006 327 1005 q 347 1009 336 1006 q 363 1015 361 1016 q 369 1015 366 1015 q 384 1018 381 1016 q 389 1021 387 1020 q 397 1022 392 1023 q 407 1023 401 1021 q 417 1022 412 1023 q 427 1023 422 1021 q 436 1023 431 1023 q 446 1023 441 1024 q 454 1022 450 1023 q 463 1021 458 1021 q 471 1021 467 1020 q 477 1020 475 1021 q 496 1013 492 1015 q 502 1012 499 1012 q 519 1006 509 1009 q 538 998 534 1000 q 547 996 541 997 q 560 986 557 987 q 567 982 562 983 q 575 978 572 981 l 591 971 q 612 958 609 962 q 621 956 616 954 q 631 943 627 947 q 644 931 642 935 q 654 926 647 928 q 665 910 665 911 q 684 895 680 899 q 693 887 688 890 q 705 874 700 876 q 708 865 709 872 q 718 854 715 861 q 728 842 722 848 q 741 815 739 823 q 746 802 745 802 q 747 800 747 802 q 753 783 753 787 q 762 762 760 768 q 766 750 764 753 q 769 745 768 747 q 770 733 770 735 q 774 730 770 731 q 773 714 772 723 q 780 703 774 705 q 783 686 784 688 q 783 681 783 684 q 786 667 784 675 q 788 650 788 658 q 790 629 788 635 q 793 617 792 624 l 795 602 q 798 580 798 585 q 799 570 799 575 q 800 550 800 560 q 802 530 799 540 q 799 524 800 528 q 798 515 798 519 q 799 500 799 500 q 798 484 799 494 q 799 468 798 475 q 799 444 802 452 q 798 423 799 427 q 799 415 796 419 q 796 403 795 410 q 796 389 798 396 q 794 379 795 385 q 792 369 793 373 q 788 355 789 354 q 787 353 787 355 q 784 324 788 334 q 781 314 783 317 q 777 307 779 311 q 771 281 772 286 q 768 269 770 275 q 760 245 761 250 q 755 239 760 241 l 751 220 q 742 206 743 206 q 741 205 741 206 q 732 191 735 194 q 726 178 727 178 l 716 164 q 707 149 709 153 q 701 138 701 140 q 697 133 700 136 q 688 119 689 121 q 676 106 678 109 q 674 102 674 104 q 669 96 671 99 q 663 91 666 94 q 650 76 651 77 q 647 72 650 75 q 637 63 637 64 q 636 61 637 62 q 617 45 621 49 q 609 38 613 41 q 594 23 595 24 q 585 20 590 20 q 576 16 581 19 q 564 8 564 9 q 563 7 564 7 q 545 1 556 4 q 528 -4 533 -4 q 519 -8 522 -4 q 503 -14 506 -11 q 493 -16 499 -14 q 484 -19 487 -18 q 477 -21 481 -22 q 469 -20 473 -20 q 444 -24 453 -24 q 425 -24 435 -23 q 404 -26 412 -26 q 389 -26 396 -27 q 373 -22 376 -22 q 368 -20 370 -22 q 349 -12 357 -18 q 340 -8 345 -9 q 331 -4 335 -7 q 323 1 327 -1 q 312 3 319 3 q 300 12 307 9 q 286 18 293 14 q 275 25 279 23 q 269 30 271 27 q 257 37 258 35 q 254 39 256 38 q 240 49 240 49 q 224 61 228 57 q 214 69 220 65 q 201 80 206 77 q 190 95 195 91 q 180 107 183 104 q 171 117 176 113 q 163 127 165 121 q 151 137 155 133 q 137 160 140 156 m 247 438 q 252 408 252 419 q 256 391 256 401 q 262 374 262 380 q 266 365 263 368 q 277 338 270 353 l 282 316 q 288 305 288 307 q 289 301 288 304 q 296 288 294 288 q 298 285 298 288 l 307 271 q 314 254 313 256 q 316 251 315 252 l 327 237 q 336 225 335 225 q 353 212 353 213 q 363 205 361 206 q 368 203 365 203 q 382 194 381 195 q 387 193 384 193 q 393 191 389 191 q 401 190 397 191 q 414 187 410 186 q 420 189 418 189 l 435 187 q 450 189 450 187 q 465 193 461 190 q 472 197 469 195 q 492 208 487 205 q 503 210 496 212 q 517 224 515 222 q 528 236 526 235 q 532 240 530 237 q 540 254 540 254 q 547 265 544 260 q 556 274 549 270 q 566 298 563 292 q 572 311 568 304 q 576 328 574 326 q 579 343 578 342 q 581 347 581 345 q 582 363 583 361 q 590 397 593 385 q 593 411 591 407 q 591 418 594 415 q 593 441 593 437 q 594 450 594 446 q 593 468 594 465 q 594 473 591 471 q 591 491 590 481 q 590 507 593 500 q 590 529 595 518 q 591 536 593 532 q 590 544 590 541 l 591 560 q 589 580 591 571 q 589 595 587 589 l 583 610 q 579 622 581 617 q 581 629 578 627 q 577 640 578 633 q 574 648 576 646 q 571 667 572 661 q 566 675 570 673 q 564 688 564 681 q 562 696 563 694 q 554 711 555 707 q 551 719 553 715 q 537 734 543 731 q 532 743 536 741 q 526 753 529 746 q 513 762 519 757 q 503 773 507 766 q 491 781 492 779 q 488 784 490 783 q 477 791 480 788 q 468 795 473 795 l 457 806 q 448 807 453 808 q 439 807 442 806 q 422 811 425 811 q 416 810 419 811 q 404 810 407 811 q 399 810 401 808 q 388 805 391 807 q 381 804 385 803 q 369 800 374 802 q 358 795 363 798 q 349 787 353 791 q 340 777 345 783 q 330 768 331 770 q 328 764 328 766 q 319 758 323 761 q 312 753 316 754 q 305 741 311 745 q 300 727 300 736 q 290 715 292 719 q 285 708 289 711 q 278 689 281 692 q 273 674 273 674 q 267 659 270 665 q 263 648 264 654 q 258 636 262 642 q 254 618 255 620 q 249 600 251 608 q 245 583 247 593 q 243 568 245 574 q 241 551 243 557 q 240 540 240 544 q 241 522 240 525 q 241 518 241 519 q 243 488 245 499 q 243 469 241 479 q 244 448 245 458 l 247 438 z "},"1":{"ha":467,"x_min":12,"x_max":397,"o":"m 208 1010 q 222 1008 218 1009 q 233 1006 227 1008 q 253 1006 248 1004 q 263 1005 258 1009 q 275 1008 270 1006 q 288 1009 281 1009 q 297 1008 292 1009 q 307 1008 302 1008 q 328 1008 324 1009 q 335 1006 332 1006 q 353 1008 350 1006 q 358 1001 354 1002 q 365 997 362 1000 q 373 985 373 986 q 374 981 373 983 q 382 963 381 968 q 386 908 387 933 q 382 859 385 883 q 380 842 381 850 q 380 825 378 833 q 384 789 384 803 q 381 765 384 776 q 378 725 378 739 q 377 700 378 711 q 377 689 377 697 q 374 675 377 681 q 376 662 377 669 q 374 648 374 655 q 377 633 374 639 q 376 597 374 613 q 377 570 377 582 q 374 519 378 547 q 373 505 373 515 q 371 492 370 494 q 372 487 372 490 l 372 467 q 374 453 373 454 q 374 450 374 452 q 374 429 377 439 q 372 408 372 419 q 372 396 373 397 q 372 392 372 395 q 372 382 372 387 q 374 373 373 378 q 374 353 374 362 q 373 334 373 345 q 374 326 373 330 q 374 317 374 321 q 375 276 373 289 q 377 250 377 263 q 378 226 378 237 q 381 203 378 214 q 382 190 382 197 q 382 178 381 183 q 385 170 384 174 q 388 161 387 165 q 389 138 387 146 q 392 121 391 129 q 392 109 391 114 q 393 100 393 104 q 393 85 392 90 q 395 75 395 80 q 395 62 396 68 q 397 50 395 57 q 396 37 395 43 q 397 22 397 30 q 396 14 397 18 q 396 7 395 11 q 378 -6 385 -7 q 365 -5 370 -5 q 346 -1 350 -5 q 321 -5 327 -4 q 312 -8 316 -7 q 303 -9 308 -9 q 296 -9 298 -9 q 284 -10 288 -9 q 278 -11 281 -11 q 237 -14 250 -11 l 218 -14 q 197 -11 206 -11 q 186 -9 189 -11 q 172 -6 172 -7 q 171 -5 172 -5 q 155 0 160 -5 q 146 18 145 12 q 141 31 146 24 q 144 46 144 38 q 148 64 145 54 q 149 74 149 69 q 151 85 149 79 q 152 95 152 91 q 152 100 152 99 q 153 118 152 110 q 155 133 153 126 q 156 163 156 149 q 159 193 156 178 q 157 199 157 197 q 156 208 156 202 q 157 216 156 212 q 159 225 159 221 q 159 258 157 248 q 160 278 160 267 q 161 294 160 293 q 161 297 161 296 q 161 318 160 311 q 163 335 163 326 q 165 354 165 349 q 166 369 164 362 q 168 382 168 376 q 170 420 170 408 q 170 450 170 433 q 170 473 170 469 q 172 480 171 476 q 172 491 171 487 q 172 499 172 495 q 172 508 172 503 q 171 517 171 513 q 173 537 171 528 q 174 557 175 547 q 174 582 172 578 q 173 599 174 595 q 174 605 172 602 q 172 637 174 623 q 172 670 171 651 q 171 682 172 678 q 170 690 170 686 q 171 711 170 701 q 168 731 172 720 q 160 731 164 732 q 151 730 156 730 q 133 726 134 727 q 107 726 121 724 q 80 726 94 727 q 73 722 77 724 q 65 720 69 720 q 50 725 56 726 q 41 726 43 724 q 33 733 35 728 q 27 743 30 738 q 18 758 19 757 q 15 761 16 758 q 13 774 12 766 q 16 788 14 781 q 27 808 23 802 q 34 817 31 814 q 43 830 43 829 q 45 833 43 831 q 58 848 57 846 q 61 853 58 850 q 71 864 72 863 q 72 865 71 865 q 85 883 84 879 q 90 890 85 887 q 96 899 94 892 q 100 910 98 906 q 110 924 110 922 q 117 937 118 936 q 119 939 117 937 q 125 956 125 947 q 140 979 134 971 q 151 991 151 986 q 160 999 157 998 q 165 1001 163 1000 q 190 1007 183 1009 q 203 1009 197 1005 l 208 1010 z "},"2":{"ha":765,"x_min":35,"x_max":724,"o":"m 513 985 q 529 986 525 990 q 545 977 538 981 q 555 966 552 972 q 576 956 572 959 q 592 941 589 944 q 598 936 595 939 q 610 924 602 929 q 616 913 614 913 q 618 910 617 913 q 625 899 623 905 q 631 890 627 894 l 648 868 q 660 848 659 853 q 663 836 661 842 q 676 817 673 821 q 682 808 680 812 q 686 797 685 804 q 689 783 686 789 q 692 770 692 776 q 694 757 692 764 q 703 738 697 751 q 708 715 708 724 l 708 696 q 709 677 708 686 q 711 658 711 669 q 708 640 708 647 l 708 625 q 705 606 708 620 q 696 576 701 587 q 689 561 693 567 q 677 551 685 555 q 669 533 673 541 q 659 517 666 525 l 650 503 q 642 491 646 496 q 633 481 637 486 q 612 461 617 464 q 595 453 604 454 l 585 442 q 578 436 582 438 q 574 429 575 434 q 564 422 567 426 q 555 416 562 419 q 543 406 544 406 q 533 396 537 397 q 525 392 529 395 q 514 383 515 385 q 510 380 513 381 q 499 369 500 370 q 489 361 491 361 q 484 358 487 361 q 473 349 476 351 q 467 346 471 346 q 445 330 452 334 q 431 321 438 327 q 426 315 429 319 q 420 309 423 312 q 406 300 408 301 q 401 296 404 298 q 391 290 392 292 q 388 288 391 289 q 378 280 384 283 q 366 271 372 277 q 355 262 358 264 q 349 259 353 259 q 332 247 342 252 q 316 233 323 241 q 296 221 304 231 q 283 210 288 213 l 307 197 q 321 197 313 198 q 338 197 330 197 q 349 196 343 195 q 359 197 354 197 l 380 197 q 416 195 397 194 q 457 193 434 195 q 470 192 469 191 q 473 193 471 193 q 490 197 481 194 q 504 198 498 198 q 518 199 510 198 q 529 202 528 203 q 533 201 530 201 l 555 201 q 583 206 579 205 q 592 210 589 208 q 601 213 595 212 q 616 215 616 214 q 620 217 617 216 q 652 221 642 217 q 673 227 670 225 q 681 229 677 228 q 694 233 692 233 q 700 232 697 232 q 714 231 712 233 q 719 229 716 229 q 724 215 724 224 q 719 199 724 206 q 717 180 719 189 q 712 164 715 172 q 707 148 709 156 q 703 132 705 140 q 702 119 703 123 q 700 110 701 114 l 699 94 q 694 79 696 81 q 692 62 692 64 q 693 60 693 61 q 689 45 689 50 q 688 35 689 39 q 681 21 682 23 q 682 16 680 19 q 665 -4 670 4 q 658 -6 659 -3 q 651 -12 656 -9 q 636 -8 636 -8 q 618 -7 623 -8 q 610 -4 614 -5 q 598 -3 600 -4 q 594 -3 597 -1 q 578 -1 586 -1 q 559 0 570 0 q 540 0 549 0 q 521 0 530 0 q 505 0 513 0 q 487 1 498 0 q 479 1 483 1 q 472 1 475 1 q 450 -1 461 0 q 423 -1 438 -3 l 406 -1 q 398 -2 401 -1 q 391 -3 395 -3 q 368 -3 378 -4 q 346 -4 357 -3 q 334 -5 339 -4 q 324 -5 330 -5 q 309 -4 311 -3 q 305 -5 308 -5 q 283 -6 288 -5 q 273 -7 278 -7 q 262 -6 267 -7 q 252 -7 256 -5 q 237 -6 239 -7 q 231 -7 235 -5 q 209 -11 214 -11 q 197 -12 203 -11 l 182 -12 q 157 -16 163 -16 q 144 -16 151 -15 q 122 -18 126 -19 q 115 -20 118 -18 q 98 -18 109 -18 q 79 -16 88 -19 q 56 -7 60 -9 q 46 9 47 7 q 45 14 45 11 q 43 31 42 28 q 43 37 43 34 q 41 54 41 50 q 42 61 42 57 q 40 81 42 72 q 38 102 38 90 q 39 134 41 119 l 39 161 q 38 180 39 178 q 37 186 37 183 q 35 204 35 191 q 38 220 35 217 q 40 233 39 232 q 41 235 41 233 q 45 248 43 241 q 50 262 47 255 q 64 273 64 273 q 75 285 72 282 q 96 302 92 297 q 102 308 99 305 q 109 313 106 311 q 119 325 115 320 q 126 332 122 330 q 140 343 132 338 q 153 354 152 354 q 155 355 153 354 q 165 366 161 362 q 171 372 168 369 q 182 384 180 384 q 184 385 183 384 q 195 391 193 389 q 201 395 197 393 q 214 405 210 401 q 222 411 218 408 l 235 420 l 247 430 q 256 439 254 438 q 263 442 259 439 q 272 448 271 446 q 275 452 273 450 q 289 463 285 458 q 312 475 308 471 q 323 483 316 480 q 328 488 326 486 q 332 495 330 491 q 338 498 335 496 q 346 502 342 500 q 362 510 361 510 q 365 511 363 510 q 380 521 380 521 q 392 532 392 530 q 395 536 392 533 q 405 544 401 540 q 411 552 408 548 q 425 564 420 559 q 435 572 429 568 q 447 584 442 579 q 457 595 452 589 q 471 614 468 609 q 479 627 479 627 q 480 629 480 628 q 488 647 488 643 q 490 655 488 651 q 499 700 498 678 q 501 724 502 712 q 496 747 500 736 q 481 768 484 764 q 469 784 476 777 q 456 792 458 792 q 448 798 450 796 q 444 802 446 800 q 429 804 430 804 q 410 812 414 812 q 399 812 406 811 q 374 812 388 815 q 360 812 362 814 q 355 810 358 811 q 345 806 347 806 q 336 804 342 806 q 316 793 321 795 q 308 788 311 791 q 296 774 297 776 q 293 772 296 773 l 282 760 q 277 751 278 754 q 274 745 275 747 q 270 733 271 734 q 267 730 269 732 q 259 715 262 716 q 252 699 255 701 q 245 681 247 684 l 236 667 q 224 654 231 655 q 196 654 203 654 q 180 655 189 654 q 167 667 170 662 q 156 673 161 670 q 144 680 151 677 q 134 685 134 684 q 130 688 133 686 q 114 696 115 694 q 110 699 113 697 q 99 708 102 707 q 94 712 96 709 q 83 725 85 724 q 79 728 80 726 q 68 739 68 738 q 50 758 56 750 q 45 764 47 761 q 41 770 42 766 q 39 781 38 776 q 35 792 39 787 q 36 808 37 807 q 35 811 35 808 q 41 823 38 821 q 45 827 43 825 q 50 842 50 838 q 56 848 53 845 q 62 854 60 852 q 73 867 72 867 q 91 884 85 880 q 104 900 100 895 q 111 907 109 905 q 122 915 121 914 q 125 917 123 916 q 132 922 129 920 q 137 928 134 925 q 152 939 151 937 q 172 947 168 945 q 178 952 175 949 q 188 958 182 955 q 197 966 194 962 q 210 972 205 968 q 221 979 214 977 l 236 985 q 251 990 244 986 q 266 1000 264 997 q 276 1000 271 998 q 288 1004 281 1002 q 308 1006 302 1006 q 327 1013 323 1015 q 335 1012 331 1012 q 359 1020 349 1020 q 382 1020 370 1020 q 395 1019 392 1019 q 399 1017 397 1020 q 422 1021 416 1020 q 435 1020 429 1021 q 446 1015 441 1019 q 456 1012 450 1012 l 484 1004 q 513 991 500 997 l 513 985 z "},"3":{"ha":773,"x_min":22,"x_max":732,"o":"m 513 583 q 532 574 528 575 q 538 572 536 574 q 545 569 543 571 q 552 566 548 567 q 568 559 567 559 q 570 559 568 560 l 583 551 q 597 538 595 538 q 610 528 609 528 q 613 526 612 528 q 621 519 617 522 q 627 514 624 517 q 634 508 629 511 q 642 499 639 505 q 662 479 654 480 q 678 461 666 468 q 685 449 684 453 q 693 442 686 445 q 696 433 694 438 q 701 425 699 429 l 709 410 q 711 401 709 406 q 713 395 712 397 q 719 370 719 380 q 727 349 724 353 q 726 340 726 345 q 727 332 727 336 q 729 325 728 328 q 731 316 730 321 q 730 307 731 312 q 731 298 730 302 q 732 281 732 286 q 731 273 731 277 q 728 253 728 262 q 726 235 727 244 q 723 220 723 227 q 718 209 723 213 q 716 192 719 197 q 712 184 713 187 q 701 165 707 174 q 692 152 693 157 q 691 142 690 148 q 689 133 692 137 q 681 123 684 126 q 675 118 678 121 q 662 98 666 104 q 655 87 659 92 q 648 77 651 81 q 639 64 642 75 q 631 58 633 62 q 624 50 628 53 q 616 44 621 47 q 606 38 612 41 q 593 29 594 31 q 590 26 591 27 q 577 22 581 23 q 571 19 574 20 q 544 11 551 12 q 525 5 530 8 q 508 -1 511 1 q 500 -4 505 -4 q 486 -5 491 -3 q 469 -6 472 -7 q 461 -5 465 -5 q 438 -12 449 -9 q 427 -14 427 -15 q 423 -14 426 -14 q 406 -20 415 -14 q 391 -18 392 -18 q 387 -19 389 -19 q 355 -18 368 -20 l 330 -18 l 309 -14 q 298 -12 305 -14 q 289 -9 292 -9 q 276 -8 282 -8 q 264 -7 270 -8 q 247 0 254 -7 l 231 3 q 223 6 227 4 q 216 5 220 8 q 197 16 202 16 q 178 30 182 26 q 165 38 165 37 q 161 42 164 39 q 146 49 152 49 q 136 58 142 56 q 127 66 130 60 l 117 77 q 106 87 107 85 q 104 90 106 88 q 89 103 91 100 q 84 109 87 106 q 68 121 71 119 q 60 134 64 134 q 52 149 53 146 q 50 155 50 151 q 54 175 52 172 q 57 182 56 178 q 65 188 61 184 q 72 197 69 191 q 83 208 80 208 q 84 212 85 209 q 101 224 99 222 q 107 227 103 227 q 117 241 117 239 q 121 243 118 243 q 127 251 125 250 q 132 254 129 252 q 135 259 132 258 q 138 267 138 260 q 159 284 155 279 q 170 293 164 289 q 176 298 174 296 q 184 301 179 301 q 193 300 190 302 q 203 297 197 298 q 212 281 210 283 q 216 274 214 278 q 232 262 231 264 q 241 248 239 251 q 260 235 256 237 q 266 231 263 233 q 277 224 273 228 q 289 218 282 221 l 302 210 q 325 197 319 201 q 342 194 331 194 q 353 189 350 189 q 359 190 357 190 q 380 182 377 183 q 391 183 384 182 q 416 184 410 183 q 448 197 441 193 q 454 201 450 199 q 458 208 457 202 q 469 212 465 206 q 480 220 473 217 q 487 231 483 227 q 498 239 491 236 l 505 255 q 509 262 509 259 q 514 267 510 266 q 519 282 514 275 q 519 297 524 289 q 522 305 522 301 q 521 313 521 309 q 522 323 521 320 q 521 331 522 327 q 519 338 519 334 q 518 346 519 342 q 514 353 517 350 q 509 358 511 355 q 503 366 506 365 q 499 370 500 368 q 492 375 496 373 q 486 380 488 377 q 467 391 468 389 q 457 397 458 396 q 453 400 456 397 q 431 408 434 407 q 425 411 429 410 q 417 414 422 414 q 410 416 412 415 q 393 419 395 419 q 380 420 384 420 q 374 422 377 420 q 358 423 361 422 q 353 425 355 425 q 345 425 349 426 q 336 423 340 423 q 328 424 332 423 q 320 425 324 425 l 305 423 q 292 421 293 420 q 288 422 290 422 q 273 421 275 420 q 269 422 271 422 q 258 419 264 420 q 245 419 252 418 q 233 427 235 423 q 227 431 231 431 q 222 446 222 442 q 220 452 222 449 q 214 467 214 465 q 213 469 213 468 q 203 490 206 487 q 196 500 197 498 q 195 505 195 502 q 191 512 193 507 q 187 522 189 517 q 184 537 184 529 q 179 552 183 545 q 181 567 183 566 q 182 572 179 568 q 194 582 193 581 q 198 586 195 583 q 214 593 212 591 q 231 605 225 602 q 243 617 240 616 q 251 621 247 618 q 269 632 266 631 q 279 640 278 640 q 282 642 281 640 q 307 661 301 656 q 328 674 320 669 q 335 681 332 677 q 342 686 338 685 l 365 704 q 378 713 378 713 q 396 730 391 726 q 407 738 401 734 q 417 747 416 746 q 419 750 418 749 q 435 760 431 758 q 446 768 444 766 q 449 773 448 769 q 457 777 454 774 q 464 783 460 780 q 477 791 477 791 q 479 793 477 792 q 486 800 484 798 q 490 806 487 803 q 483 810 488 810 q 475 811 477 810 q 466 812 471 812 q 457 811 461 811 q 442 813 444 814 q 439 812 441 812 q 431 813 434 812 q 422 812 427 814 q 389 812 403 815 q 378 813 384 812 q 365 812 372 814 l 345 811 q 330 813 336 812 q 312 812 323 814 q 296 810 297 811 q 290 811 294 810 q 275 810 283 811 q 259 808 267 810 q 250 808 255 808 q 243 807 245 808 q 227 802 229 803 q 222 800 225 800 q 205 798 209 798 q 197 795 202 798 q 182 791 183 791 q 168 788 170 789 q 163 785 165 787 q 137 776 144 779 q 123 770 130 773 l 99 770 q 84 788 87 787 q 80 803 84 798 q 75 818 76 808 q 68 831 71 822 q 64 849 64 841 q 60 863 60 859 q 57 872 60 867 q 52 892 52 888 q 47 909 47 907 q 46 913 47 910 q 37 932 38 928 q 33 939 35 936 q 28 959 33 952 q 22 972 24 966 q 22 989 22 989 q 24 999 22 996 q 26 1008 26 1002 q 41 1016 38 1017 q 47 1015 45 1015 q 62 1017 62 1017 q 64 1016 62 1016 q 83 1015 77 1017 q 96 1015 95 1016 q 98 1015 96 1015 q 114 1013 111 1012 q 119 1012 117 1015 q 141 1012 130 1012 q 158 1009 152 1010 q 171 1008 164 1008 q 186 1008 179 1006 q 203 1008 194 1009 q 212 1005 208 1006 q 221 1002 216 1004 q 232 1003 227 1002 q 244 1002 237 1004 l 275 1002 q 288 1003 286 1002 q 292 1002 289 1004 q 307 1002 302 1001 q 316 1002 311 1002 q 325 1002 321 1002 q 332 1002 328 1001 q 342 1003 338 1002 q 350 1002 347 1004 q 359 1004 355 1002 q 369 1005 363 1005 q 384 1004 384 1004 q 387 1005 384 1005 q 404 1003 401 1002 q 407 1002 406 1004 q 422 1000 415 1000 q 438 998 435 998 q 442 997 441 998 q 452 997 446 996 q 463 998 457 998 q 473 997 468 998 q 483 1000 479 996 q 498 998 498 997 q 499 998 498 998 q 517 998 509 998 q 533 998 525 998 q 553 998 543 998 q 574 1000 563 998 q 584 1001 578 1000 q 597 1001 590 1002 q 606 1000 601 1000 q 617 1001 612 1001 q 633 1001 625 1001 q 647 1000 642 1001 q 661 995 658 996 q 663 997 663 994 q 681 979 673 989 q 688 967 688 971 q 690 959 688 963 q 694 951 692 955 q 696 944 696 948 q 696 934 697 940 q 696 921 694 928 l 696 879 l 696 863 q 697 848 697 856 q 697 829 697 840 q 698 811 699 814 q 697 806 697 808 q 699 793 700 795 q 699 789 699 792 q 699 773 699 780 q 697 760 700 766 q 689 745 694 753 q 684 739 686 742 q 678 734 681 736 q 669 724 671 726 q 669 719 667 723 q 661 717 663 719 q 655 712 658 715 q 646 704 650 707 q 640 697 643 701 q 621 684 625 688 q 614 678 617 681 q 599 666 601 670 q 594 659 597 662 q 579 648 586 651 q 570 638 571 639 q 568 637 570 637 q 557 625 559 625 q 547 616 552 618 q 540 609 543 614 q 528 598 529 600 q 519 591 522 594 q 513 583 515 587 z "},"4":{"ha":753,"x_min":12,"x_max":718,"o":"m 627 483 q 646 484 642 484 q 652 483 650 483 q 678 487 670 484 q 689 484 684 484 q 703 483 694 484 q 717 457 716 467 q 715 437 718 448 q 714 428 715 431 q 713 420 713 425 q 715 412 713 416 q 715 404 716 408 l 713 385 q 714 376 713 382 q 713 369 715 370 q 713 352 712 355 q 715 343 715 349 q 713 317 713 331 q 715 292 712 302 q 716 274 718 277 q 701 258 705 259 q 697 256 697 258 q 680 256 689 260 q 662 259 670 252 q 643 263 652 255 q 635 261 639 262 q 628 256 631 260 q 627 243 627 250 q 627 228 627 236 q 628 201 627 210 q 629 186 629 193 q 630 176 631 180 q 629 167 629 172 q 633 129 629 146 q 636 108 635 121 q 640 84 637 95 q 639 67 637 76 q 640 50 640 58 q 641 39 640 43 q 640 30 642 35 l 640 7 q 625 -5 631 -5 q 616 -8 618 -5 q 598 -7 608 -5 q 582 -7 589 -9 q 564 -9 574 -9 q 543 -9 555 -8 l 511 -9 q 482 -9 490 -11 q 467 -8 475 -8 q 456 -9 461 -8 q 448 -9 452 -11 q 429 -7 433 -7 q 414 -3 418 -4 q 408 5 411 1 q 403 12 406 9 q 404 34 404 30 q 401 41 404 38 q 406 57 406 52 q 405 76 406 66 q 403 95 404 85 q 406 118 406 111 q 406 129 406 125 q 406 142 404 141 q 407 146 407 144 q 406 161 407 160 q 406 164 406 163 q 409 179 408 174 q 410 190 410 184 q 412 228 412 209 q 410 269 411 247 q 392 271 400 271 q 373 270 384 270 q 350 273 363 270 l 312 274 q 297 276 298 277 q 293 275 296 275 q 281 276 282 275 q 278 277 281 277 q 269 277 273 277 q 263 279 266 277 q 243 278 252 277 q 225 279 233 279 q 218 278 221 279 q 210 277 214 277 q 201 277 208 277 q 191 275 194 277 q 182 275 186 275 q 172 274 178 274 q 162 271 167 273 q 151 271 157 269 q 136 273 136 274 q 134 273 136 273 q 128 273 133 273 q 118 274 123 274 q 107 290 110 285 q 102 302 104 296 q 91 316 95 308 q 80 330 87 324 q 75 340 77 335 q 69 349 72 345 q 60 363 65 355 q 55 375 54 373 q 54 378 56 377 q 44 393 45 391 q 42 399 43 396 q 31 416 35 414 q 27 426 27 419 q 16 438 16 437 q 14 445 15 442 q 14 453 12 448 q 17 466 16 464 q 18 471 18 468 q 20 490 20 484 q 27 499 20 496 q 33 507 30 505 q 38 514 35 510 q 43 524 42 521 q 46 530 45 528 q 65 559 61 548 q 75 569 73 568 q 77 571 77 570 q 86 583 84 582 q 91 587 88 585 l 99 601 q 109 614 106 612 q 113 618 111 616 q 125 633 118 629 q 133 648 132 647 q 136 651 134 648 q 144 664 144 665 q 146 665 144 663 q 152 673 151 671 q 156 677 153 674 q 160 684 159 680 q 167 689 161 689 q 178 705 175 703 q 184 712 182 708 l 193 727 l 212 747 q 222 761 221 761 q 231 774 229 773 q 233 776 232 774 q 239 789 239 789 q 240 791 240 789 q 246 799 243 793 q 254 807 250 804 q 258 816 254 814 q 263 825 263 818 l 273 837 q 280 848 278 844 q 285 857 282 853 q 294 872 292 871 q 297 876 296 873 l 308 888 q 312 896 311 891 q 317 902 313 901 q 326 919 324 917 q 328 924 327 921 q 337 937 336 935 q 340 940 338 939 q 347 954 346 952 q 358 970 357 967 q 365 980 363 979 q 368 983 366 981 q 375 996 373 996 q 380 998 377 997 q 393 1002 387 1002 q 408 1002 400 1002 q 421 1002 420 1001 q 425 1004 422 1004 q 433 1002 429 1004 q 439 1001 437 1001 q 458 1000 449 1000 q 477 1002 467 1001 q 492 1002 484 1002 q 506 1004 499 1002 q 517 1004 514 1004 q 524 1004 521 1005 q 543 1004 534 1004 q 563 1005 552 1005 q 582 1007 579 1006 q 590 1006 585 1008 q 609 996 604 998 q 617 978 614 993 q 616 962 616 964 q 617 958 617 960 q 616 949 617 954 q 616 943 616 945 q 615 932 616 936 q 613 925 614 929 q 613 910 613 910 q 612 902 613 906 q 612 894 612 898 q 611 861 610 869 q 609 842 612 852 q 610 827 609 830 q 612 822 612 825 l 612 800 q 612 781 613 789 q 612 762 610 773 q 613 737 613 749 q 616 715 613 726 q 613 691 612 700 q 614 674 614 682 q 614 665 614 669 q 614 658 614 661 l 617 581 q 618 570 618 576 q 617 557 617 564 l 621 511 q 623 497 623 505 q 627 483 624 490 m 396 671 q 385 655 387 659 q 381 648 384 651 q 376 643 378 646 q 370 637 373 640 q 353 615 357 623 q 342 602 349 608 q 338 594 340 597 q 334 587 335 591 q 322 575 323 576 q 320 571 321 574 q 309 555 311 559 q 304 548 307 552 q 277 518 285 532 q 264 505 266 507 q 262 499 263 502 q 252 487 254 491 q 269 481 263 480 q 281 483 275 483 q 294 479 294 479 q 296 480 294 480 l 316 480 l 332 480 l 347 480 q 364 478 359 477 q 374 479 369 479 q 384 480 380 479 q 392 481 388 481 q 402 479 397 481 q 412 480 407 477 q 413 488 414 484 q 412 496 412 491 l 414 524 l 414 538 q 412 551 411 551 q 412 553 412 552 q 411 566 412 566 q 410 570 410 567 q 412 583 411 582 q 412 587 412 585 q 412 606 411 601 q 412 613 412 610 q 411 640 412 633 q 410 651 410 646 q 408 673 411 662 l 396 671 z "},"5":{"ha":779,"x_min":54,"x_max":751,"o":"m 727 1004 q 732 984 731 993 q 732 968 732 975 q 735 943 732 954 q 737 930 736 930 q 738 926 738 929 q 737 913 739 920 q 736 902 735 907 q 738 869 736 879 q 736 849 739 859 q 739 833 739 841 q 738 818 738 825 q 736 806 736 811 q 736 793 736 800 q 724 791 726 792 q 720 789 723 791 q 708 789 713 791 q 696 788 703 788 q 686 789 690 788 q 675 792 681 791 q 661 792 667 792 q 648 795 654 792 l 623 796 q 593 798 604 798 q 583 798 587 798 q 574 798 579 799 q 559 797 567 798 q 544 796 552 796 q 534 798 538 796 q 525 799 530 799 l 510 798 q 496 798 498 798 q 491 799 494 799 q 451 799 467 798 q 420 802 435 800 q 402 803 407 802 q 393 804 397 804 q 380 804 381 803 q 378 804 380 804 q 362 806 366 806 l 343 807 q 330 808 330 807 q 328 808 330 808 q 320 806 324 806 q 313 807 316 807 q 293 806 300 807 q 279 802 281 804 q 274 803 277 800 q 269 790 269 798 q 270 776 270 783 q 269 768 270 772 q 269 758 267 764 q 270 745 269 749 q 271 738 271 741 q 269 725 269 727 q 270 719 270 723 q 269 709 270 713 q 269 697 269 704 q 270 658 269 678 q 270 614 271 637 q 279 615 275 613 q 289 620 283 617 q 307 625 297 623 q 328 629 317 627 l 343 635 q 368 641 359 639 q 385 643 376 643 q 402 644 395 644 q 416 644 410 644 q 446 644 427 646 q 470 642 464 642 q 481 642 476 642 q 495 640 494 639 q 499 640 496 640 q 524 632 511 637 q 532 631 529 632 q 540 629 536 631 q 559 624 555 624 q 566 620 563 624 q 579 618 576 618 q 585 617 582 618 q 598 610 593 613 q 616 600 613 601 q 629 590 629 590 q 641 578 637 579 q 644 570 644 576 q 655 562 651 567 q 663 551 659 557 q 673 539 671 541 q 677 534 674 537 q 682 528 680 532 q 688 522 685 525 q 701 502 699 507 q 707 486 707 488 q 708 481 707 484 q 716 464 716 469 q 718 456 718 460 q 720 449 719 453 q 725 439 723 444 q 730 430 727 434 q 731 415 731 422 q 731 401 731 408 l 736 385 q 738 376 738 381 q 742 368 738 370 q 743 352 739 359 q 747 338 746 345 q 746 330 747 335 q 747 321 745 324 q 751 304 751 305 q 748 282 747 286 q 749 275 749 278 q 747 259 747 263 q 745 251 747 255 q 742 240 742 244 q 741 233 742 236 q 736 224 736 228 q 734 218 735 221 q 732 209 734 212 q 731 203 730 206 q 719 186 723 189 q 718 177 720 179 q 715 168 715 175 q 708 160 709 165 q 703 151 707 155 q 688 126 703 136 l 680 110 q 670 98 673 100 q 661 84 662 90 q 644 71 648 73 q 632 60 635 62 q 604 46 620 50 q 590 37 594 39 q 581 31 586 34 q 570 25 571 24 q 566 24 568 26 q 551 16 552 16 q 528 7 530 8 q 511 0 514 0 q 506 -1 509 0 q 489 -8 492 -8 q 483 -9 486 -8 q 460 -13 472 -12 q 437 -16 449 -14 q 420 -20 420 -19 q 418 -20 419 -20 l 389 -19 q 374 -18 385 -18 q 349 -14 358 -14 q 332 -9 335 -9 q 326 -8 328 -8 q 309 -4 311 -5 q 305 -3 308 -3 q 290 3 297 -1 q 279 7 281 7 q 274 8 277 7 q 252 18 262 15 q 243 22 248 20 q 235 26 239 23 q 220 37 221 35 q 197 47 206 45 q 184 57 184 57 q 171 66 172 64 q 167 68 170 68 q 160 75 164 72 q 152 80 156 77 q 145 87 149 83 q 134 92 141 91 q 133 100 136 98 q 127 106 130 102 q 114 124 118 119 q 104 134 110 129 q 94 147 96 142 q 90 156 91 152 q 87 173 84 170 q 94 182 91 176 q 107 190 104 190 q 127 212 119 202 q 142 220 138 218 q 146 227 146 221 q 165 241 160 236 q 176 254 176 252 q 192 264 191 263 q 195 269 193 266 q 205 275 202 273 q 213 278 209 278 q 236 293 218 288 q 252 285 251 288 q 255 279 252 282 q 265 264 262 264 q 267 256 269 263 l 278 244 q 301 224 296 228 q 307 220 304 221 q 315 216 309 218 q 330 208 330 208 q 346 200 343 201 q 351 198 349 199 q 364 195 358 195 q 378 191 370 194 q 393 192 392 193 q 396 191 395 191 q 411 191 410 191 q 422 193 415 191 q 435 195 430 194 q 450 199 450 198 q 452 201 450 201 q 471 208 469 206 q 491 215 487 213 q 499 217 495 217 q 519 228 514 225 q 527 237 525 235 q 532 240 529 239 q 540 250 540 248 q 541 254 540 251 q 547 263 547 262 q 548 267 547 264 q 555 283 555 282 q 559 306 557 301 q 559 320 560 311 q 557 336 556 334 q 557 342 557 338 q 552 354 555 351 q 547 359 549 357 q 544 377 544 373 q 535 387 537 387 q 533 391 533 388 q 524 404 525 404 q 513 419 515 418 q 511 423 510 420 q 496 432 498 431 q 491 435 494 433 q 486 441 488 438 q 480 446 483 444 q 474 450 477 449 q 467 453 471 450 q 457 458 458 456 q 453 461 456 460 q 433 464 442 463 q 416 467 425 465 q 406 466 411 467 q 395 465 400 465 l 372 465 l 354 461 q 348 458 351 460 q 340 454 345 456 q 326 449 331 452 q 312 442 313 444 q 296 431 297 433 q 292 427 294 430 q 275 416 281 419 q 267 412 273 415 q 256 410 260 410 q 235 412 240 410 q 224 416 229 414 q 209 427 212 426 q 203 430 206 427 q 191 439 193 439 q 184 443 189 442 q 175 446 179 444 q 164 454 165 452 q 159 457 163 456 q 144 467 151 464 q 133 471 138 469 q 120 480 121 480 q 118 481 119 480 q 104 489 107 488 q 99 491 102 490 q 84 502 88 500 q 75 514 76 514 q 71 517 73 514 q 65 528 66 526 q 65 532 64 529 q 62 541 62 536 q 58 551 61 547 q 61 573 58 560 q 64 597 64 586 q 69 613 69 613 q 67 637 66 632 q 68 647 68 642 q 67 663 68 654 q 66 680 66 671 q 68 690 66 685 q 69 701 69 696 q 68 709 69 705 q 66 716 66 712 q 68 729 66 723 q 69 742 69 735 l 68 764 q 66 787 66 777 q 68 801 68 798 q 69 807 69 804 q 68 823 68 819 q 66 833 68 827 q 64 840 66 836 q 65 849 62 844 l 61 872 q 59 887 58 884 q 58 895 60 890 q 58 909 58 905 q 60 917 57 914 q 56 944 54 930 q 56 975 57 958 q 62 989 62 987 q 64 993 62 990 q 80 1002 79 1001 q 84 1005 81 1004 q 110 1010 106 1009 q 144 1007 132 1009 q 172 1004 156 1005 l 194 1004 q 214 1005 210 1006 q 222 1004 218 1004 q 243 1003 239 1004 q 255 1001 248 1002 q 271 1002 270 1002 q 275 1001 273 1001 l 290 1001 q 303 1000 297 1001 q 317 1000 309 1000 q 332 999 330 998 q 338 1000 335 1000 q 359 999 354 1000 q 369 1001 363 998 l 448 1000 q 462 1000 461 1001 q 464 1000 463 1000 q 498 1002 487 1004 q 524 1002 510 1001 l 562 1002 q 587 1002 572 1002 q 616 1004 601 1001 q 650 1006 636 1001 q 685 1009 665 1010 q 699 1010 696 1009 q 707 1012 703 1012 l 722 1005 l 727 1004 z "},"6":{"ha":819,"x_min":27,"x_max":792,"o":"m 258 572 q 271 578 269 579 q 274 579 273 578 q 283 587 283 586 q 285 590 283 589 q 300 601 294 595 q 323 614 312 613 q 332 620 330 620 q 336 621 334 620 q 365 632 355 628 q 378 635 377 635 q 382 636 380 636 q 391 638 387 639 q 400 639 396 637 q 418 645 414 646 q 429 647 423 644 q 442 648 439 648 q 448 648 445 647 q 472 652 464 650 q 488 652 480 654 q 499 652 494 652 q 507 651 505 651 q 519 649 517 650 q 525 647 522 648 q 543 645 538 647 q 552 642 547 643 l 574 640 q 591 634 586 633 q 598 635 595 635 q 604 633 601 635 q 614 629 608 632 q 623 625 620 627 q 632 621 627 624 q 652 610 646 614 q 669 600 661 601 q 686 584 681 589 q 696 574 690 579 q 702 567 699 571 q 707 556 705 563 q 718 540 715 544 q 726 532 720 536 q 734 523 732 526 q 738 517 735 519 q 742 503 741 505 q 746 499 743 502 q 750 489 749 496 q 754 476 751 481 q 762 463 761 464 q 764 460 762 463 q 770 441 768 446 q 777 415 774 426 q 785 392 785 400 q 785 377 784 384 q 789 363 788 363 q 789 361 789 362 q 791 347 789 351 q 792 338 792 342 q 790 329 789 332 q 791 323 791 326 q 787 300 789 308 l 785 279 q 783 267 785 271 q 780 256 780 263 q 779 237 780 240 q 777 229 779 235 q 768 208 769 216 q 762 194 766 201 q 758 174 762 182 q 749 157 753 167 q 742 144 743 144 q 739 142 741 144 q 732 127 735 132 q 728 117 728 123 q 715 99 716 100 q 706 87 708 91 q 703 81 704 84 q 690 67 692 71 q 688 64 689 64 q 670 53 673 54 q 652 39 656 43 q 643 33 648 35 q 616 17 623 22 q 598 9 609 12 q 583 -1 583 -1 q 574 -4 578 -3 q 563 -8 570 -5 q 550 -13 555 -12 q 543 -16 545 -14 q 527 -16 533 -16 q 515 -18 521 -16 q 489 -24 498 -23 q 471 -26 480 -24 q 451 -25 458 -24 q 435 -23 444 -26 q 426 -22 430 -22 q 416 -20 422 -22 q 393 -18 400 -19 q 380 -15 387 -16 q 365 -11 369 -12 q 351 -10 351 -11 q 347 -9 350 -9 q 336 -8 342 -8 q 327 -7 331 -8 q 315 -1 319 -3 q 308 0 312 0 q 290 7 293 7 q 285 9 288 7 q 269 20 273 16 q 258 24 262 24 q 255 27 254 24 q 239 37 241 35 q 235 42 236 39 q 220 49 224 45 q 208 62 210 60 q 190 75 194 73 q 182 79 186 76 q 173 87 174 84 q 170 91 172 90 q 156 110 156 104 q 146 116 149 114 q 142 119 144 118 q 126 144 130 134 q 115 160 122 153 q 104 172 104 171 q 103 175 104 174 q 98 182 100 178 q 94 190 96 186 q 90 200 91 198 q 85 206 88 202 q 79 218 83 212 q 73 231 76 224 q 57 274 61 260 q 53 291 54 288 q 53 298 52 294 q 50 312 50 308 q 49 321 50 316 q 47 339 46 334 q 46 350 47 345 q 41 372 42 368 q 38 382 39 376 q 36 396 37 396 q 35 399 35 396 q 33 410 34 407 q 30 418 31 414 q 31 427 30 422 q 31 439 33 433 q 29 453 31 446 q 30 467 27 460 q 31 489 30 483 q 31 500 31 495 l 33 517 q 33 524 33 519 q 35 532 33 528 q 35 543 35 540 q 37 548 35 545 q 41 569 41 564 q 45 578 42 574 q 47 599 46 593 q 52 609 49 605 q 66 651 53 633 q 72 670 71 667 q 75 675 73 673 l 80 690 q 92 707 91 703 q 102 720 98 719 q 106 732 102 728 q 110 743 110 735 q 117 757 117 753 q 125 770 125 768 q 127 774 125 772 q 140 785 140 785 q 152 797 149 795 q 155 803 155 799 q 171 817 168 815 q 176 822 174 819 q 195 845 194 841 q 209 854 208 853 q 218 867 217 867 q 232 872 229 871 q 237 876 235 873 q 270 902 258 898 q 279 912 274 909 q 290 920 285 916 q 301 926 300 926 q 304 928 302 926 q 320 939 316 935 q 334 944 334 943 q 338 948 335 945 q 353 956 351 954 q 357 958 355 959 q 368 964 363 962 q 374 970 372 967 q 387 975 381 972 q 399 981 393 977 q 416 987 411 986 q 429 991 422 989 q 439 998 438 997 q 442 1000 441 998 q 450 1002 446 1001 q 457 1005 453 1004 q 477 1009 473 1009 q 495 1019 492 1017 q 500 1021 498 1020 q 511 1025 510 1025 q 515 1025 513 1024 q 536 1031 526 1031 q 547 1034 541 1032 q 557 1036 552 1036 q 570 1036 566 1035 q 578 1035 574 1038 q 595 1019 590 1021 q 604 1004 605 1005 q 605 1001 604 1002 l 616 985 q 627 971 620 978 l 635 958 q 640 945 637 949 q 644 939 642 941 q 654 922 648 928 q 663 907 661 913 q 671 894 669 902 l 678 880 q 670 854 680 861 q 655 852 658 852 q 650 849 652 852 q 629 843 633 842 q 621 844 625 844 q 607 842 609 841 q 604 842 605 842 q 579 836 583 837 q 557 830 564 830 q 543 830 544 831 q 540 829 541 829 q 517 821 525 823 q 506 816 510 818 q 498 811 502 814 q 475 800 483 806 q 457 791 467 795 q 441 779 448 787 q 419 764 423 769 q 408 757 415 760 q 398 748 400 749 q 395 745 396 747 q 385 739 388 742 q 377 732 382 735 l 361 716 q 352 708 357 711 q 343 701 347 705 q 336 694 339 699 q 330 686 334 690 q 313 673 317 675 q 298 652 301 656 q 293 642 296 647 q 286 630 289 633 q 283 623 283 627 q 277 616 278 621 q 274 605 277 612 q 267 591 267 593 q 266 589 267 590 q 260 578 262 581 q 258 572 258 575 m 262 308 q 271 295 270 298 q 271 289 271 292 q 277 283 274 286 q 282 278 279 281 q 296 263 292 267 q 302 251 300 259 q 320 241 313 244 q 331 231 330 232 q 349 220 342 222 q 362 211 358 212 q 369 208 366 210 q 381 202 377 202 q 388 198 385 202 q 400 197 395 199 q 412 194 406 195 q 425 194 423 195 q 429 193 426 193 q 464 193 457 191 l 481 191 q 507 203 503 198 q 517 205 511 201 q 528 206 524 209 q 545 218 540 213 q 556 233 555 229 q 566 247 566 245 q 567 250 566 248 q 573 257 571 255 q 576 262 575 259 q 585 278 581 274 q 587 290 582 283 q 590 297 591 296 q 592 314 591 313 q 593 317 593 315 q 591 332 593 327 q 586 345 589 338 q 583 355 583 354 q 582 359 583 357 q 581 376 582 372 q 579 384 579 381 q 574 401 574 397 q 566 410 566 408 q 563 414 566 411 q 541 431 549 429 q 529 439 534 438 q 521 442 524 439 q 513 446 517 445 q 506 449 509 446 q 483 449 488 449 q 471 449 477 449 l 450 448 q 426 446 431 445 q 415 445 420 446 q 404 441 408 444 q 393 437 399 439 q 383 431 388 434 q 372 426 378 429 q 357 418 365 420 q 343 414 350 416 q 335 406 340 408 q 324 401 330 404 q 316 393 317 396 q 313 388 315 391 q 294 370 298 374 q 285 361 289 365 q 274 350 278 353 q 265 336 270 343 q 255 321 260 330 q 258 314 258 317 q 262 308 259 311 z "},"7":{"ha":713,"x_min":35,"x_max":697,"o":"m 113 -15 q 98 -14 103 -16 q 91 -12 94 -12 q 80 -14 84 -12 q 71 -14 76 -15 q 66 1 65 0 q 66 4 68 1 l 66 22 q 73 35 69 28 q 81 46 80 46 q 84 49 81 46 q 90 60 88 54 q 95 68 92 65 q 104 85 100 79 q 116 104 114 100 q 121 110 118 107 q 128 121 129 121 q 130 125 127 122 q 136 132 134 129 q 141 137 137 134 q 144 147 141 142 q 149 156 146 152 q 153 166 152 163 q 155 171 153 170 q 164 184 164 184 q 172 197 172 195 q 174 199 172 198 q 186 224 182 220 q 194 237 191 228 q 205 254 203 252 q 212 266 210 262 q 216 273 213 270 q 228 289 224 288 q 235 303 233 302 q 236 307 236 304 q 241 320 240 317 q 245 323 243 323 q 248 335 247 332 q 250 340 248 338 q 259 359 256 357 q 271 374 270 374 q 281 393 275 385 q 281 401 278 397 q 286 411 285 404 q 294 423 293 420 q 298 429 296 426 q 305 444 304 444 q 308 446 307 444 q 320 468 315 460 q 326 483 321 476 q 332 496 331 494 q 335 500 334 498 q 343 516 342 514 q 345 521 345 518 q 359 547 354 537 q 368 567 363 557 q 387 605 373 585 q 392 620 388 612 q 398 631 396 628 q 401 637 400 633 q 410 659 406 656 q 414 673 415 671 q 416 677 414 675 q 431 707 427 703 q 435 717 431 713 q 438 730 439 720 q 445 745 445 745 q 448 747 445 746 q 451 758 449 754 q 453 769 453 762 q 447 785 452 783 q 435 787 442 787 q 420 787 425 785 q 411 788 415 788 q 398 787 404 788 q 385 788 392 787 q 373 789 378 788 q 363 788 368 789 q 342 787 346 787 q 334 788 338 788 l 316 788 q 285 789 304 788 q 254 789 266 789 q 239 789 239 788 q 237 789 239 789 q 221 788 221 788 q 214 787 218 788 q 206 784 210 785 q 183 781 187 783 q 175 777 179 779 q 161 771 163 773 q 153 770 159 769 q 143 770 146 772 q 137 766 140 768 q 125 767 130 766 q 113 765 119 768 q 105 764 109 765 q 95 764 102 762 q 78 766 83 766 q 69 768 73 766 q 60 771 62 769 q 56 776 58 773 q 52 789 52 783 q 50 800 53 795 l 49 825 q 47 846 47 841 q 46 854 47 850 q 43 864 45 860 q 42 873 42 868 q 40 882 41 879 q 39 890 39 886 q 39 907 41 903 q 38 916 38 911 q 35 932 35 929 q 36 948 37 944 q 37 956 35 952 q 38 982 39 975 q 60 1008 54 1001 q 73 1010 71 1009 q 77 1008 76 1010 q 96 1008 94 1006 q 113 1007 104 1008 q 130 1006 122 1006 q 143 1006 137 1006 q 156 1004 149 1005 q 170 1003 165 1004 q 180 1002 175 1002 q 195 1002 194 1001 q 199 1002 197 1002 q 227 998 220 997 q 240 998 233 998 q 260 998 255 997 q 270 998 264 998 q 278 1000 274 998 q 286 1001 282 1001 q 302 999 301 998 q 305 1000 304 1000 q 321 998 313 1000 q 338 1000 330 997 q 351 998 346 998 q 361 997 357 997 q 371 998 366 997 q 381 1000 376 1000 q 393 999 392 1000 q 396 998 395 998 q 403 1000 399 998 q 411 1002 407 1001 q 422 1001 418 1001 q 429 1002 426 1001 q 446 1005 439 1005 q 456 1005 450 1005 q 469 1006 463 1005 l 494 1008 q 512 1008 505 1008 q 526 1009 519 1009 q 541 1007 540 1006 q 544 1008 543 1008 q 568 1007 560 1009 q 581 1005 576 1005 q 606 1004 598 1005 q 620 1006 613 1002 q 630 1003 625 1004 q 640 1000 635 1002 q 653 983 651 986 q 658 975 655 979 q 663 968 661 972 q 667 958 665 964 l 670 936 q 673 928 671 932 q 675 921 674 925 l 675 905 q 678 897 677 901 q 682 886 680 892 q 685 865 682 879 q 687 856 686 860 q 689 846 688 852 q 691 836 692 838 q 690 831 690 834 q 691 817 692 819 q 690 811 690 814 q 682 769 697 781 q 678 753 682 758 l 673 738 q 660 720 662 724 q 655 712 658 715 q 651 700 651 703 q 648 697 651 697 q 631 659 644 673 q 623 637 625 643 q 617 625 620 632 q 610 608 610 610 q 609 604 610 606 q 602 595 602 598 q 600 590 601 593 q 593 574 594 579 q 587 557 587 563 q 586 548 586 553 q 583 538 586 543 q 577 522 579 525 q 576 517 575 519 q 564 503 564 503 q 557 488 556 490 q 555 486 557 487 q 550 471 552 472 q 547 468 548 471 q 543 458 547 461 q 538 448 538 454 q 530 433 533 446 q 525 418 526 420 q 514 388 517 395 l 506 374 q 500 357 503 370 q 494 342 496 347 q 484 321 487 327 q 481 311 483 313 q 480 305 479 308 q 468 277 473 286 q 461 260 463 263 q 458 254 460 256 q 452 236 453 239 q 443 217 445 220 q 438 212 441 214 q 431 193 439 203 q 426 178 427 182 q 422 174 425 175 q 419 161 422 167 q 414 151 416 156 q 407 137 407 138 q 403 123 403 127 q 401 115 403 118 q 397 108 400 111 q 392 100 395 104 l 385 84 q 384 77 384 80 q 382 69 384 73 q 373 49 373 52 q 366 35 366 38 q 365 27 366 31 q 357 10 357 14 q 357 4 358 7 q 349 -5 354 -1 q 339 -12 343 -8 q 329 -14 334 -14 q 316 -14 324 -15 q 284 -13 296 -12 q 259 -12 273 -14 q 246 -13 248 -14 q 241 -12 244 -12 q 220 -12 231 -9 q 203 -14 205 -15 q 198 -14 201 -14 q 183 -16 187 -16 q 175 -15 179 -15 q 159 -15 167 -15 q 142 -12 152 -15 q 135 -16 138 -15 q 127 -18 132 -18 q 115 -18 117 -20 q 113 -15 114 -15 z "},"8":{"ha":844,"x_min":49,"x_max":796,"o":"m 589 494 q 595 491 591 491 q 604 490 600 491 q 625 483 621 484 q 631 480 628 481 q 640 473 639 475 q 644 471 642 472 q 656 466 654 468 q 662 461 659 464 l 686 445 q 699 435 700 438 q 700 431 699 433 q 718 415 712 419 q 728 402 727 403 q 731 400 730 401 q 736 393 734 397 q 741 387 738 389 q 747 380 743 382 q 753 370 750 377 q 762 353 761 354 q 768 342 766 345 q 772 336 769 339 q 772 330 772 334 q 773 321 773 326 q 774 311 774 316 q 776 302 774 307 q 783 274 784 285 q 784 252 783 263 q 783 237 784 245 q 780 222 783 228 q 777 195 780 201 q 773 182 774 189 q 770 169 770 175 q 766 157 769 163 q 765 151 765 155 q 764 142 765 146 q 753 122 755 126 l 747 104 q 739 94 739 95 q 738 91 739 92 q 727 80 731 81 q 718 66 718 66 q 709 56 709 60 q 705 50 708 53 q 693 43 696 45 q 688 41 690 42 q 678 29 680 28 q 674 27 677 30 q 656 19 661 23 q 640 12 643 14 q 635 11 637 9 q 623 5 629 7 q 609 0 616 3 q 592 -5 593 -4 q 589 -5 591 -5 q 581 -9 585 -7 q 574 -11 576 -11 q 566 -12 571 -12 q 557 -12 562 -12 q 543 -13 545 -12 q 536 -15 540 -14 q 519 -16 524 -16 q 504 -20 507 -20 q 500 -23 500 -20 q 484 -23 490 -23 q 468 -23 477 -23 q 452 -24 453 -26 q 448 -23 450 -23 q 430 -20 433 -22 q 425 -19 427 -19 q 409 -20 415 -20 q 399 -20 403 -19 l 381 -20 q 370 -18 374 -19 q 361 -16 365 -16 q 332 -12 345 -16 q 311 -7 317 -7 q 300 -3 304 -7 q 291 -2 294 -4 q 283 0 288 0 q 267 1 278 1 q 243 9 248 7 q 221 16 224 15 q 205 26 209 20 q 197 30 201 28 q 191 34 194 31 q 173 45 176 43 q 164 49 170 46 q 152 60 153 60 q 133 78 137 73 q 123 90 129 83 q 113 101 114 99 q 110 106 113 103 q 94 130 99 122 q 83 141 83 140 q 75 156 76 155 q 72 160 73 157 q 70 172 69 170 q 68 176 71 174 q 62 191 62 187 q 61 197 62 194 q 57 221 57 216 q 57 232 57 227 q 56 253 54 248 q 54 263 57 258 q 56 277 54 270 q 60 290 58 283 q 61 305 60 304 q 62 317 61 316 q 62 321 62 319 q 71 336 72 336 q 72 338 71 335 q 85 363 76 349 q 91 379 91 377 q 92 384 91 381 q 106 408 102 403 q 114 420 111 414 q 125 431 121 425 q 140 449 134 444 q 149 456 145 456 q 153 460 152 457 q 161 469 159 467 q 165 469 163 471 q 180 479 176 476 q 189 486 184 483 q 203 493 201 494 q 205 495 205 492 q 220 499 214 498 q 229 503 225 500 q 216 509 222 506 q 201 513 210 513 q 189 522 189 522 q 169 534 172 532 q 161 537 165 537 q 154 545 159 543 q 146 553 149 547 q 126 564 136 557 q 110 578 113 576 q 104 589 104 589 q 100 591 103 589 q 92 605 94 604 q 90 612 90 606 q 79 625 80 623 q 76 628 79 628 q 70 642 75 637 q 66 654 65 647 q 60 673 62 669 q 56 682 57 677 q 52 705 54 697 q 50 731 52 723 q 49 747 49 739 l 49 766 q 50 776 49 772 q 52 787 50 780 l 54 802 q 60 817 60 815 q 61 822 60 819 q 66 836 66 833 q 69 838 66 838 q 72 853 68 846 q 79 867 76 860 q 88 880 83 876 q 94 895 95 894 q 95 894 94 897 q 114 918 107 907 q 130 936 126 933 q 140 944 138 944 q 144 945 141 944 q 172 967 164 963 q 191 973 189 971 q 195 975 193 975 q 212 980 212 979 q 216 982 213 981 q 231 986 224 986 q 247 994 244 993 q 252 996 250 994 q 271 1002 269 1001 q 277 1004 274 1002 q 302 1009 300 1009 q 319 1011 316 1012 q 326 1012 323 1010 q 337 1013 331 1012 q 346 1016 343 1015 q 356 1019 354 1017 q 361 1021 358 1020 q 382 1021 378 1023 q 388 1020 385 1020 l 437 1021 l 458 1021 q 471 1020 465 1021 q 483 1019 476 1019 q 496 1019 496 1019 q 498 1020 496 1020 q 507 1019 502 1020 q 517 1017 513 1017 q 526 1017 522 1017 q 533 1015 529 1017 q 545 1010 537 1012 q 559 1008 553 1009 q 579 1005 572 1005 q 601 998 597 998 q 610 997 605 998 q 625 993 621 994 q 631 990 628 991 q 650 985 647 985 q 655 982 652 985 q 671 974 669 977 q 694 960 688 967 q 705 953 704 952 q 708 952 707 954 q 725 935 720 937 q 732 926 730 932 q 740 917 736 921 q 747 910 743 913 q 755 892 749 903 q 766 881 765 882 q 768 880 766 880 q 772 867 770 868 q 773 864 773 865 q 774 855 774 860 q 776 846 774 850 q 784 831 783 836 q 788 822 785 826 q 789 806 789 815 q 789 787 788 798 q 793 771 793 773 q 795 769 792 769 q 795 754 795 762 q 795 739 796 746 q 789 724 788 730 q 788 711 789 718 l 785 694 q 781 683 780 685 q 780 680 783 681 q 774 667 774 671 q 772 661 774 663 q 762 645 765 650 q 757 633 758 640 q 745 618 746 621 q 728 599 734 604 q 718 587 723 594 q 703 578 704 579 q 701 575 703 576 q 692 569 699 572 q 684 560 686 566 q 667 545 673 553 q 652 536 654 538 q 648 533 651 534 q 633 524 635 525 q 631 522 632 524 q 617 513 618 514 q 609 507 613 509 q 604 503 605 506 q 591 498 593 499 q 589 494 589 496 m 553 787 q 543 795 544 795 q 540 796 541 795 q 522 805 525 804 q 514 807 518 806 q 494 815 498 814 q 487 818 490 817 q 477 819 481 819 q 467 821 472 819 q 448 826 456 823 q 440 827 445 826 q 433 827 435 827 q 416 827 420 827 q 402 826 407 827 q 392 823 397 825 q 378 822 381 823 q 372 821 376 821 q 342 815 353 819 q 321 808 332 812 q 302 798 309 804 q 290 785 292 788 q 286 780 288 783 q 275 762 277 766 q 270 755 273 758 q 270 747 273 750 q 267 739 267 743 q 270 721 269 723 q 273 716 271 719 q 278 693 278 704 q 298 673 296 680 q 312 659 309 661 q 327 646 324 648 q 341 636 340 636 q 343 635 342 636 q 367 619 358 624 q 382 609 376 614 q 414 591 400 597 q 426 597 420 594 q 438 604 431 601 q 452 612 452 610 q 468 620 465 618 q 473 623 471 621 q 492 633 488 632 q 499 636 496 633 q 518 651 514 647 q 526 659 522 655 q 534 666 529 662 q 541 675 538 670 q 560 690 552 680 q 571 704 568 701 q 583 746 581 731 q 576 764 576 761 q 574 769 576 766 q 564 778 566 777 q 563 783 563 779 l 553 787 m 418 422 q 404 414 406 414 q 393 408 393 408 q 391 407 392 408 q 372 396 381 400 q 349 378 351 384 q 339 372 343 376 q 332 365 335 368 q 318 353 323 357 q 309 346 313 350 q 300 336 304 340 q 293 326 296 332 q 288 319 289 323 q 283 312 286 315 q 274 285 278 292 q 273 261 270 274 q 278 241 277 248 q 286 227 281 232 q 292 220 290 222 q 298 214 294 217 l 312 206 q 326 196 321 197 q 334 193 330 195 q 345 187 345 189 q 349 184 346 186 q 376 178 363 184 q 401 176 388 172 q 409 172 404 174 q 418 170 414 170 l 448 174 q 455 174 452 175 q 463 174 458 174 q 473 175 468 175 q 483 176 477 175 q 500 179 494 179 q 513 182 509 179 q 521 183 517 184 q 528 188 524 186 q 534 191 532 190 q 548 199 547 197 q 552 203 549 201 q 565 214 563 210 q 571 220 567 217 q 577 233 572 227 q 578 245 582 239 q 581 262 579 262 q 579 264 582 263 q 577 272 578 270 q 578 279 576 274 q 568 300 574 292 q 562 314 563 315 q 562 315 562 313 q 551 332 552 328 q 547 338 549 335 q 526 354 534 346 q 514 364 514 363 q 513 365 514 365 q 499 376 500 373 q 495 382 498 380 q 480 389 483 389 q 477 392 477 389 q 465 397 471 393 q 454 403 460 400 q 437 412 441 408 q 425 416 433 416 l 418 422 z "},"9":{"ha":814,"x_min":30,"x_max":788,"o":"m 562 430 q 554 428 556 431 q 547 423 552 425 q 541 418 544 420 q 534 414 537 416 q 522 404 530 410 q 499 389 509 392 q 486 384 487 384 q 483 382 486 384 q 454 372 467 374 q 438 366 442 366 q 428 364 433 363 q 419 363 423 365 q 401 358 406 358 q 392 355 396 358 q 378 355 381 354 q 372 354 374 355 q 347 351 355 353 q 331 350 339 349 q 321 351 327 350 q 312 351 315 351 q 300 353 302 353 q 296 355 298 354 q 277 357 281 355 q 270 361 274 359 q 259 361 264 362 q 248 362 254 361 q 233 368 235 368 l 218 368 q 201 375 205 374 q 194 378 197 376 q 178 388 189 382 q 164 395 164 395 q 149 407 151 406 q 144 411 146 408 l 130 420 q 120 433 125 429 q 113 448 115 438 q 98 468 102 464 q 90 476 94 472 q 80 492 81 490 q 81 498 79 495 q 69 515 71 509 q 65 528 68 522 q 58 540 60 538 q 56 544 57 541 q 49 563 52 557 q 43 582 46 574 q 40 589 42 586 q 38 597 38 593 q 36 612 35 604 q 35 627 37 620 q 32 640 33 639 q 31 643 31 642 q 30 657 30 652 q 30 667 30 662 q 30 678 30 670 q 31 693 30 686 q 34 711 34 703 q 36 726 37 724 q 35 730 35 727 q 37 738 35 734 q 39 747 39 742 q 40 762 39 761 q 41 766 41 764 q 47 783 46 779 q 49 789 47 787 q 53 800 52 793 q 57 810 54 807 q 61 830 60 827 q 68 844 68 838 q 75 859 75 850 q 88 878 84 873 q 92 888 92 882 q 100 898 99 898 q 102 901 100 898 q 113 917 111 914 q 118 922 115 920 l 125 936 q 139 945 134 943 q 151 952 144 948 q 171 968 167 963 q 186 977 175 974 q 204 988 197 985 q 218 994 212 991 q 230 1002 227 1001 q 236 1006 233 1004 q 256 1015 245 1006 q 270 1019 266 1017 q 277 1023 274 1020 q 292 1022 286 1023 q 304 1024 298 1021 q 318 1027 311 1025 q 334 1029 326 1029 q 356 1031 345 1031 q 381 1029 368 1032 q 403 1025 400 1027 q 441 1020 426 1024 l 465 1017 q 482 1015 477 1015 q 494 1012 487 1015 q 508 1005 507 1005 q 511 1004 509 1005 q 529 998 526 998 q 536 996 532 997 q 552 985 544 990 q 563 980 559 979 q 566 977 567 981 q 581 969 578 971 q 585 964 583 967 q 597 960 597 960 q 600 956 598 959 q 613 943 610 948 q 637 926 627 929 q 649 916 643 920 q 658 905 655 913 q 668 893 667 895 q 670 890 669 891 q 682 880 681 879 q 684 879 684 880 q 693 861 689 869 q 704 845 697 853 q 709 840 707 842 q 715 834 712 837 q 722 821 720 822 q 726 817 724 819 q 738 793 732 804 q 745 777 742 781 q 750 766 747 773 q 753 756 751 761 q 757 745 754 751 q 764 719 764 727 q 768 703 768 703 q 769 689 768 693 q 770 684 770 685 q 772 669 773 680 q 774 651 772 658 q 779 634 777 637 q 780 628 780 631 q 783 612 781 614 q 785 605 785 609 q 785 570 788 590 q 784 557 785 563 q 783 543 783 552 q 780 524 783 528 q 777 515 777 519 q 777 507 776 511 q 779 499 779 503 q 777 488 779 492 q 779 479 776 484 q 777 458 781 471 q 772 437 773 445 q 764 402 768 414 q 758 380 761 391 l 753 362 q 749 347 751 350 q 744 338 746 343 q 739 327 742 332 l 730 312 q 724 292 726 296 q 720 283 723 289 q 712 270 712 271 q 705 254 705 258 q 701 247 704 250 q 694 235 694 237 q 690 231 693 233 q 679 217 681 220 q 673 213 677 214 q 669 207 673 209 q 665 199 665 205 q 659 195 661 198 q 654 189 656 191 q 633 168 639 176 q 616 151 621 156 q 604 138 604 140 q 601 134 604 136 q 587 130 590 132 q 582 125 585 127 q 551 100 564 106 q 538 89 544 95 q 525 80 533 83 q 502 64 505 66 q 490 60 494 64 q 480 54 486 57 q 465 45 465 46 q 452 38 456 41 q 445 33 449 35 q 433 27 441 30 q 420 20 426 24 q 406 16 410 16 q 400 14 403 15 q 377 1 381 4 q 357 -5 361 -5 q 351 -5 354 -4 q 336 -11 339 -9 q 331 -14 334 -12 q 313 -20 315 -19 q 298 -27 298 -27 q 292 -28 296 -30 q 283 -30 288 -27 q 274 -33 278 -31 q 264 -35 270 -34 q 250 -35 254 -34 q 241 -34 245 -37 q 232 -22 232 -24 l 218 -9 q 212 3 213 3 q 210 5 210 4 q 203 19 203 19 q 197 26 198 22 q 194 31 197 30 q 190 38 193 35 q 184 45 187 41 q 178 60 179 57 q 170 77 171 72 q 165 90 168 83 q 159 116 159 106 q 163 129 160 126 q 176 146 174 142 q 193 153 190 151 q 199 156 197 155 q 210 158 205 159 q 218 159 214 157 q 229 161 225 160 q 240 165 233 163 q 257 170 254 168 q 264 172 260 171 q 279 172 277 171 q 282 172 281 172 q 299 180 298 179 q 302 182 300 180 q 315 187 312 186 q 321 190 317 189 q 336 196 335 195 q 339 198 338 197 q 352 206 350 205 q 357 209 354 208 q 369 215 363 212 q 380 222 374 218 q 401 238 396 233 q 411 245 406 243 q 425 258 425 256 q 435 264 431 259 q 444 271 438 269 l 458 286 q 467 294 464 292 q 473 298 471 296 q 484 308 480 304 q 491 316 488 312 q 498 323 495 320 q 505 330 502 326 q 509 336 507 332 q 515 340 511 339 q 526 361 521 351 q 537 381 532 370 q 543 388 541 384 q 547 397 544 392 q 554 411 553 410 q 555 415 555 412 q 561 425 559 423 q 562 430 563 427 m 582 548 q 583 584 586 572 q 587 604 581 595 q 584 617 586 612 q 582 628 582 623 q 572 673 579 658 q 564 687 564 684 q 560 693 563 690 l 552 707 q 543 721 545 718 q 537 727 541 724 q 524 742 529 738 q 517 753 519 746 q 503 761 505 760 q 499 765 500 762 q 484 776 486 776 q 475 784 476 784 q 471 785 473 784 q 453 796 457 793 q 436 803 439 803 q 433 806 433 803 q 420 806 426 804 q 408 810 415 808 q 395 810 396 808 q 392 811 393 811 q 355 811 362 812 q 334 811 338 811 q 328 808 331 811 q 312 802 316 806 q 302 800 308 804 q 292 799 296 796 q 279 791 281 792 q 275 788 278 789 q 264 771 266 773 q 262 766 263 769 q 254 757 254 758 q 252 754 254 755 l 243 739 q 233 714 239 720 q 229 705 228 708 l 227 690 q 229 672 227 678 q 233 658 231 666 q 235 646 233 647 q 236 642 236 644 q 240 617 240 627 l 245 602 q 254 593 254 594 q 256 590 255 591 q 267 578 266 579 q 283 568 281 568 q 298 562 298 563 q 300 562 298 562 q 310 557 308 559 q 315 556 312 556 q 330 556 323 559 q 347 556 336 553 q 364 557 358 557 q 374 557 370 557 q 390 559 382 559 q 404 560 397 559 q 412 562 407 560 q 419 564 416 563 q 435 572 429 568 q 449 578 442 575 q 477 590 461 586 q 496 602 483 598 q 512 585 503 593 q 528 570 521 578 q 534 563 530 567 q 540 556 537 559 q 551 543 547 549 q 560 533 555 536 q 572 528 570 529 q 578 528 575 528 q 581 538 581 533 q 582 548 581 543 z "},"":{"ha":920,"x_min":42,"x_max":884,"o":"m 136 418 q 124 418 130 419 q 114 419 118 416 q 101 416 107 416 q 85 416 95 416 q 69 414 72 415 q 50 419 61 412 q 49 428 49 423 q 47 438 49 433 q 43 454 42 450 q 45 460 45 457 q 44 477 45 472 q 45 490 43 483 q 47 506 45 498 q 45 522 45 521 q 46 525 46 522 q 44 542 43 541 q 45 545 45 543 q 49 565 47 562 q 54 571 50 568 q 79 579 76 576 q 93 578 87 578 q 106 576 99 578 l 132 576 l 132 595 q 132 617 134 602 q 132 635 132 632 q 132 642 133 639 q 130 653 130 644 q 130 667 130 662 q 131 701 132 690 q 132 719 130 712 q 132 746 134 731 q 132 760 132 753 q 132 773 133 766 q 131 787 130 785 q 132 791 132 788 q 129 802 130 799 q 127 807 127 804 q 128 819 127 814 q 127 827 129 823 q 126 841 127 837 q 125 848 125 845 q 123 858 123 853 q 123 869 122 863 q 122 884 123 880 q 121 891 121 888 q 121 909 121 901 q 119 925 121 917 q 118 932 119 928 q 117 940 117 936 q 117 952 117 945 q 119 966 118 959 q 123 979 122 972 q 126 987 123 985 q 137 996 137 994 q 138 1000 137 998 q 146 1004 142 1001 q 153 1009 149 1006 q 167 1011 165 1010 q 171 1012 168 1012 q 185 1011 180 1010 q 195 1009 190 1012 q 203 1011 198 1012 q 213 1010 208 1010 l 231 1010 q 241 1005 236 1005 q 252 1005 247 1005 q 278 1006 269 1004 q 297 1009 288 1009 q 309 1008 304 1009 q 317 1009 313 1006 q 332 1006 324 1006 q 346 1005 339 1006 q 370 1005 361 1002 q 382 1006 378 1005 q 388 1005 385 1006 q 400 1004 395 1005 q 412 1004 406 1004 q 427 1005 427 1005 q 440 1005 434 1005 q 454 1004 446 1005 q 471 1002 471 1002 q 473 1001 472 1001 q 482 1002 477 1001 q 491 1000 487 1002 q 509 1000 507 1001 q 514 1000 511 1000 q 537 996 529 998 q 550 994 548 996 q 555 994 552 993 q 568 988 566 987 q 574 987 571 989 q 583 981 579 985 q 590 979 586 978 q 602 966 601 967 q 619 956 617 958 q 625 954 621 954 q 635 940 633 940 q 650 926 647 930 q 658 922 652 922 q 671 910 665 910 q 675 904 671 906 q 678 895 678 902 q 690 886 689 886 q 701 873 696 879 l 711 861 q 720 846 720 846 q 727 838 723 844 q 731 826 731 831 q 739 812 738 819 q 749 798 747 799 q 751 795 750 798 q 760 781 760 784 q 762 780 760 779 q 772 768 772 769 q 774 768 772 766 q 779 758 776 762 q 784 747 781 753 q 793 729 791 734 q 800 722 795 724 q 810 702 803 709 q 821 680 818 694 q 829 661 823 674 q 836 646 836 650 q 840 640 837 643 q 845 633 842 636 q 852 616 852 620 q 854 606 852 612 q 860 593 859 597 q 863 583 861 589 q 866 573 865 578 q 868 564 867 568 q 876 545 873 551 q 875 538 878 541 q 875 530 872 534 q 878 520 878 522 q 879 515 879 518 q 882 506 880 511 q 884 496 884 500 q 883 475 882 480 q 879 467 884 469 q 882 451 882 457 q 880 435 883 445 q 874 422 876 423 q 871 419 872 422 q 866 406 867 408 q 864 403 865 404 q 857 387 860 397 q 852 380 854 384 q 850 369 849 376 q 836 340 844 350 q 826 319 826 326 q 823 309 826 313 l 815 296 q 804 276 806 282 q 799 263 802 270 q 792 247 793 251 q 788 237 791 243 q 782 225 785 231 q 776 213 779 220 q 768 199 770 212 q 755 183 760 195 q 748 176 750 180 q 742 165 746 171 q 732 154 732 155 q 730 153 731 153 q 725 146 727 151 q 718 138 723 141 q 711 125 711 127 q 693 107 696 111 q 684 98 688 102 q 677 88 680 95 q 670 83 674 85 q 663 77 666 80 q 650 62 650 62 q 635 53 637 56 q 629 47 632 50 q 613 41 617 39 q 601 26 602 27 q 582 11 587 16 q 568 1 572 1 q 543 -5 553 -5 q 529 -7 532 -8 q 524 -5 526 -5 q 505 -5 509 -7 q 498 -3 502 -4 q 481 -5 492 -3 q 467 -4 475 -3 q 449 -3 458 -5 q 425 -2 434 -1 q 410 0 415 -3 q 399 -2 404 -1 q 388 -3 395 -3 q 376 -3 378 -1 q 370 -4 373 -4 q 355 -5 357 -4 q 351 -7 354 -7 q 331 -9 336 -7 q 318 -8 326 -8 q 305 -9 311 -8 q 283 -12 289 -12 q 271 -11 278 -11 q 254 -12 256 -12 q 248 -14 251 -11 q 228 -14 240 -8 q 209 -12 216 -19 q 197 -14 205 -15 q 183 -12 190 -12 q 167 -11 175 -14 q 148 1 148 -1 q 146 9 148 3 q 144 23 142 22 q 146 27 146 24 q 147 35 148 31 q 146 43 146 39 q 147 56 146 49 q 149 71 148 62 q 153 102 153 94 q 153 117 152 110 q 155 138 156 134 q 154 152 153 151 q 155 156 155 153 q 153 169 155 167 q 152 174 152 171 q 153 189 155 189 q 152 193 152 190 q 149 209 152 201 l 149 225 q 147 243 148 237 q 144 252 146 250 l 142 269 l 142 285 q 142 296 141 292 q 142 308 142 301 q 141 321 142 313 q 140 335 140 328 q 138 353 138 351 q 137 355 137 354 l 137 380 q 135 395 134 395 q 136 397 136 395 q 136 418 133 406 m 416 134 q 425 133 420 134 q 431 133 429 132 q 445 141 444 141 q 448 142 446 141 q 457 154 457 152 q 460 157 457 156 q 472 170 468 165 q 479 176 476 174 q 487 186 484 184 q 491 190 490 189 q 502 205 502 203 q 503 210 502 208 q 513 223 511 220 q 518 229 515 227 q 520 240 518 236 q 525 247 522 244 q 531 258 529 258 q 534 259 533 258 q 543 275 540 273 q 550 290 547 285 q 556 298 553 294 q 562 309 559 304 q 567 320 564 313 q 572 330 570 326 q 576 340 575 334 q 586 359 585 355 q 590 365 587 362 q 602 397 597 385 q 613 420 606 410 l 624 431 q 626 445 627 438 q 627 454 625 452 q 631 467 631 464 q 633 473 632 469 q 634 482 635 480 q 633 488 633 484 q 631 503 632 496 q 632 517 631 510 q 627 533 627 529 q 625 540 627 537 q 622 547 624 543 q 618 555 620 552 q 612 568 613 567 q 602 583 602 579 q 600 590 601 587 q 590 609 593 604 q 583 628 583 625 q 576 644 576 642 q 574 648 575 646 q 564 663 566 662 q 562 665 563 663 q 552 682 553 682 q 545 695 544 694 q 544 697 545 696 q 530 718 533 709 q 517 738 522 731 q 510 753 513 745 l 499 765 q 490 779 491 779 q 487 783 488 780 q 479 795 481 793 q 477 798 477 796 q 464 816 468 812 q 457 822 460 819 q 435 842 442 837 q 420 854 427 848 q 406 859 408 859 q 403 861 403 860 q 385 867 392 867 q 376 860 380 860 q 372 856 373 860 q 370 843 369 845 q 372 838 372 841 q 371 826 372 827 q 370 823 370 825 q 371 807 372 808 q 372 803 370 806 q 370 791 369 798 q 369 779 370 785 q 368 755 368 760 q 368 746 368 750 q 368 738 368 742 q 369 728 369 734 q 370 717 369 723 q 369 707 370 711 q 369 688 368 690 q 368 661 366 671 q 372 640 370 651 q 371 629 370 632 q 372 624 372 627 q 371 597 373 609 q 370 574 369 586 q 380 574 376 575 q 388 571 384 572 l 404 571 q 421 574 418 574 q 427 576 425 574 q 446 574 444 575 q 452 575 449 574 q 471 566 471 570 q 473 556 472 563 q 475 539 476 548 q 476 519 475 530 q 479 503 476 514 q 479 491 479 498 q 479 479 480 484 q 479 456 479 463 q 479 442 480 449 q 472 430 472 433 q 471 426 472 427 q 463 421 467 423 q 457 415 460 419 q 446 412 448 412 q 442 410 444 412 q 425 412 434 411 q 410 411 416 414 q 392 412 399 414 q 370 411 385 411 q 370 397 369 404 q 373 384 372 391 l 372 366 q 374 345 373 350 q 378 336 374 339 q 376 323 377 323 q 374 321 374 324 q 376 307 374 315 q 378 293 378 300 q 379 278 380 286 q 380 263 378 270 q 381 252 380 256 q 382 245 382 248 q 381 231 382 237 q 384 217 380 224 q 382 195 382 199 q 385 187 382 190 q 384 175 381 183 q 387 161 387 167 q 389 144 389 145 q 388 142 388 144 q 403 135 396 136 q 416 134 410 134 z "},"":{"ha":833,"x_min":35,"x_max":799,"o":"m 796 381 q 798 358 799 370 q 798 336 798 346 q 794 317 793 321 q 795 309 795 312 q 791 301 793 305 q 791 293 789 297 l 788 274 q 782 256 780 258 q 783 251 784 254 q 775 229 777 236 q 773 216 773 222 q 765 197 766 202 q 762 190 764 193 q 754 172 754 179 q 741 153 743 160 q 732 140 738 146 q 728 129 730 132 q 724 123 726 126 l 711 114 q 703 102 705 104 q 700 95 701 99 q 682 81 689 90 q 669 65 675 73 q 652 58 661 64 q 637 50 643 53 q 618 35 627 38 q 597 22 602 24 q 585 12 586 16 q 575 8 578 12 q 566 4 572 4 q 543 -5 559 -5 q 536 -10 538 -8 q 526 -11 533 -12 q 509 -16 514 -14 q 500 -15 505 -18 q 490 -20 491 -19 q 486 -22 488 -20 q 463 -26 467 -26 q 446 -30 453 -27 q 433 -30 439 -33 q 409 -29 414 -31 q 399 -26 404 -27 q 378 -25 388 -23 q 359 -24 369 -27 q 340 -22 345 -22 q 332 -20 335 -22 q 315 -16 319 -18 q 308 -14 311 -14 q 296 -11 298 -11 q 293 -8 294 -11 q 278 -5 278 -5 l 259 1 q 241 9 243 8 q 236 11 239 9 q 218 18 220 18 q 214 19 217 18 q 191 31 199 24 q 179 40 183 38 q 172 45 175 42 q 160 54 165 50 q 148 61 155 58 q 141 68 144 65 q 136 76 138 72 q 122 91 125 84 q 113 102 115 102 q 113 104 111 103 q 102 117 106 113 q 92 133 98 129 q 83 144 87 137 q 77 157 77 156 q 73 160 76 159 q 66 175 66 168 l 57 197 q 54 212 53 212 q 54 216 54 213 q 49 233 52 228 q 45 252 45 250 q 42 258 46 255 q 42 272 42 266 q 42 283 42 278 q 39 296 38 294 q 39 298 39 297 q 39 309 38 307 q 39 315 39 312 q 37 333 37 328 q 35 340 38 338 q 37 349 38 345 q 38 357 37 353 q 42 366 39 361 q 42 374 45 370 q 45 383 45 378 q 46 393 45 388 q 52 414 50 411 q 58 438 58 429 q 64 454 64 452 q 66 460 64 457 q 73 475 73 473 q 75 479 73 476 q 84 494 81 490 l 94 506 q 102 524 102 518 l 119 544 q 129 557 127 556 l 140 570 q 151 582 151 581 q 155 585 152 583 q 165 595 163 594 q 171 597 168 597 l 184 606 q 191 613 189 612 q 197 616 194 614 q 210 625 209 624 q 224 632 224 631 q 247 643 241 640 q 256 646 251 646 q 263 650 260 647 q 278 655 275 652 q 285 658 281 658 q 309 664 302 661 q 324 669 315 667 q 340 669 336 667 q 347 670 345 671 q 355 675 351 674 q 366 677 359 675 q 379 677 376 678 q 385 677 382 677 q 393 678 389 678 q 400 681 397 678 q 407 679 404 678 q 415 680 410 680 q 437 677 430 678 q 450 675 444 677 q 444 691 448 688 q 437 699 439 694 q 427 706 430 701 q 416 712 423 711 q 406 724 406 723 q 404 726 407 726 q 393 734 397 730 q 381 742 388 739 q 368 753 369 753 q 363 757 366 754 l 353 746 q 339 739 339 739 q 338 736 339 738 q 329 732 331 734 q 320 727 327 731 q 307 715 311 719 q 279 698 288 705 q 262 685 271 690 l 247 675 q 227 677 233 669 q 213 696 220 685 q 200 713 205 709 q 193 724 195 718 q 189 733 190 728 q 184 743 187 738 q 176 757 176 754 q 172 762 175 760 q 168 771 168 768 q 170 779 167 774 q 185 799 178 795 q 195 806 193 803 q 210 812 208 812 q 216 814 213 812 q 195 824 199 825 q 187 826 191 823 q 164 837 171 837 q 153 859 153 853 q 151 875 151 863 q 152 891 151 887 q 154 900 152 897 q 159 907 156 903 q 163 919 163 917 q 165 924 164 921 q 170 937 170 936 q 171 941 170 939 q 176 950 174 947 q 178 960 178 954 q 186 974 184 974 q 189 983 189 979 q 191 990 190 987 q 198 1006 195 1004 q 205 1020 205 1019 q 206 1023 205 1021 q 216 1038 214 1035 q 220 1043 217 1040 q 228 1045 224 1046 q 235 1044 232 1044 q 251 1044 247 1046 q 259 1042 255 1043 q 269 1042 264 1042 q 275 1043 273 1043 q 289 1036 289 1038 q 290 1035 289 1035 q 302 1032 300 1034 q 307 1029 304 1031 q 327 1024 327 1024 q 353 1016 345 1021 q 366 1008 365 1008 q 382 1002 380 1002 q 388 998 385 1001 q 408 991 401 994 q 420 986 415 989 q 427 981 423 983 q 435 981 431 978 q 444 972 442 972 q 448 971 446 972 q 460 973 460 972 q 464 975 461 974 q 479 984 471 978 q 496 997 487 990 q 509 1006 506 1002 q 515 1012 513 1009 q 528 1020 526 1020 q 533 1021 530 1020 q 548 1034 544 1032 q 555 1040 552 1035 q 572 1038 566 1043 l 585 1025 l 595 1010 q 610 991 604 998 q 624 972 621 978 q 631 962 627 967 q 637 950 633 955 q 643 940 640 945 q 631 927 633 928 q 627 925 629 926 q 614 915 620 921 q 602 906 609 909 q 587 898 590 901 q 581 894 583 895 q 582 878 582 880 q 583 873 582 876 q 597 861 595 864 q 602 859 600 859 q 606 851 604 853 q 612 846 609 849 q 617 840 614 844 q 623 833 620 836 q 628 827 625 830 q 633 822 631 825 q 639 816 636 819 q 646 812 642 812 q 648 804 646 806 q 652 798 651 803 q 669 783 667 787 q 671 777 670 780 q 681 760 681 764 q 688 751 686 755 q 693 743 690 747 q 707 722 704 730 q 712 707 711 711 q 716 697 713 703 q 724 682 722 682 q 726 680 726 681 q 739 655 735 661 q 745 643 742 650 q 750 625 750 635 q 755 612 755 614 q 757 606 755 609 q 765 580 761 594 q 772 553 769 566 q 782 514 776 529 q 787 488 788 499 q 786 477 785 481 q 788 465 787 472 q 790 455 788 460 q 792 445 792 450 q 795 435 793 439 q 796 423 796 430 l 796 401 q 796 382 799 385 l 796 381 m 582 292 q 583 300 582 296 q 585 309 583 304 q 585 323 585 316 q 585 338 586 331 q 579 353 582 347 q 576 365 578 363 q 575 369 575 366 q 569 382 571 377 q 564 391 567 388 q 559 407 560 403 q 555 414 557 411 q 549 425 549 423 q 547 429 548 427 q 540 441 541 438 q 537 448 538 445 l 525 457 q 519 467 524 464 q 511 476 514 471 q 498 484 500 483 q 487 498 488 496 q 469 510 471 507 q 461 515 467 513 l 446 521 q 422 528 429 529 q 408 530 415 528 q 393 525 395 526 q 383 521 385 522 q 378 518 381 519 q 363 507 363 509 q 359 505 362 506 q 347 491 349 494 q 342 486 345 488 l 331 475 q 317 460 323 464 q 301 433 305 442 q 292 418 292 420 q 288 415 292 416 q 279 401 282 403 q 273 385 274 387 q 270 381 271 384 q 261 363 263 365 q 262 361 259 362 l 255 346 q 251 327 251 330 q 253 300 250 308 q 255 283 256 292 l 263 270 q 270 258 270 259 q 271 255 270 256 q 281 243 279 245 q 286 239 283 241 q 296 227 294 229 q 300 224 297 224 q 308 212 307 213 q 312 209 309 212 q 320 196 315 201 q 328 184 326 191 q 343 174 342 175 q 346 172 345 174 q 359 161 355 165 q 368 153 366 155 q 370 149 369 152 q 387 136 384 141 q 403 127 401 129 q 407 125 404 125 q 420 127 419 126 q 423 127 422 127 q 444 140 441 138 q 454 150 454 149 q 457 152 454 151 q 470 163 465 160 q 477 168 475 165 q 483 173 480 171 q 488 179 486 175 q 513 191 509 184 q 529 205 519 203 q 548 225 545 221 q 559 234 557 233 q 563 237 562 235 q 571 250 571 250 q 572 254 571 251 q 577 262 576 258 q 579 270 578 267 l 585 288 l 582 292 z "},"":{"ha":671,"x_min":-69,"x_max":651,"o":"m 370 734 q 389 726 381 732 q 400 712 397 715 q 410 700 408 700 q 412 699 411 700 q 420 686 418 690 q 426 677 423 682 q 440 656 437 662 q 446 644 444 650 q 454 634 450 639 q 458 623 457 629 q 446 609 449 610 q 441 605 444 608 q 426 595 433 601 q 412 586 419 590 q 395 578 399 581 q 388 574 392 576 q 377 570 382 571 q 366 566 372 568 q 357 560 362 562 q 350 555 351 559 q 332 547 342 556 q 313 540 323 538 q 311 509 311 522 q 313 483 311 495 l 315 465 q 314 456 313 461 q 315 448 315 452 q 315 435 315 437 q 316 431 316 434 q 315 423 316 427 q 315 415 315 419 q 320 393 316 397 q 321 373 321 382 q 321 354 320 363 q 325 336 326 339 q 324 328 324 332 q 326 297 323 311 q 328 275 328 283 l 328 259 l 327 241 q 338 227 330 228 q 351 227 346 225 l 373 221 q 384 219 380 220 q 395 217 388 218 q 408 219 404 220 q 412 222 412 218 q 433 219 419 218 q 457 218 446 220 q 474 218 469 218 q 481 221 479 218 q 508 220 492 220 q 532 222 524 220 q 553 220 540 220 q 575 222 566 221 q 590 222 587 222 q 618 225 609 227 q 631 222 629 220 q 636 221 633 224 q 643 213 642 217 q 647 206 644 209 q 648 193 646 198 q 648 180 651 187 q 642 165 644 167 q 640 161 640 164 q 635 148 635 151 q 635 141 636 145 q 625 124 627 126 q 623 119 624 122 q 616 100 616 104 q 610 85 610 91 q 600 69 600 72 q 598 64 600 66 q 595 55 597 58 q 591 47 594 52 q 585 37 586 39 q 583 31 585 34 q 572 14 574 16 q 571 7 570 11 q 559 -5 562 -5 q 556 -7 556 -4 q 543 -11 545 -12 q 537 -9 540 -9 q 530 -12 533 -12 q 519 -11 526 -11 q 507 -11 513 -9 q 495 -11 502 -12 q 486 -7 488 -7 q 480 -8 483 -8 q 468 -9 473 -8 q 456 -7 463 -9 q 448 -9 452 -9 q 438 -8 444 -8 l 415 -8 q 396 -5 401 -5 l 377 -5 q 357 -3 361 -1 q 349 -5 353 -4 q 337 -5 340 -7 q 331 -4 334 -4 q 321 -6 324 -5 q 315 -7 319 -7 l 297 -5 q 277 -3 288 -3 q 255 -3 267 -3 q 247 -1 251 -1 q 239 1 243 -1 q 222 9 225 8 q 217 9 220 9 q 209 16 213 12 q 198 24 205 20 q 189 37 191 31 q 176 50 178 49 q 175 53 175 50 q 166 60 171 57 q 159 71 161 64 q 151 78 153 73 q 144 90 148 83 q 132 100 130 100 q 125 111 127 109 q 121 115 123 113 q 104 140 107 132 q 92 153 100 149 q 89 161 92 159 q 83 165 85 163 q 76 178 77 178 q 75 182 75 179 q 76 197 75 194 q 77 203 77 199 q 73 237 72 224 q 71 248 69 243 q 68 256 73 254 q 70 279 71 274 q 69 292 69 285 q 68 308 68 304 q 68 315 68 312 q 69 323 69 319 q 69 340 69 331 q 72 358 69 349 q 73 366 72 362 q 75 373 75 369 q 47 368 57 376 q 26 353 37 359 q 11 343 16 346 q -12 345 -5 336 q -24 365 -18 354 q -38 384 -34 378 q -45 395 -42 389 q -49 405 -47 400 q -53 415 -50 410 q -61 429 -61 426 q -65 435 -61 431 q -68 446 -68 442 q -66 453 -69 449 q -60 467 -60 464 q -49 473 -57 469 q -37 480 -41 477 q -14 490 -23 487 q -3 498 -4 498 q -1 499 -3 499 q 12 509 8 505 q 23 514 22 513 q 26 515 24 515 q 56 533 47 528 q 75 544 65 538 q 75 559 75 556 q 76 564 75 562 q 75 572 76 568 q 73 582 73 576 q 74 596 75 594 q 73 601 73 598 q 72 612 73 609 q 71 620 71 616 q 74 634 73 632 q 75 639 75 636 l 73 655 q 73 667 72 663 q 72 675 73 671 q 71 697 71 688 q 71 735 68 723 q 66 755 73 747 q 69 773 69 768 q 71 785 69 779 q 71 804 72 802 q 72 808 71 806 q 71 832 73 823 q 69 850 69 841 q 69 866 69 864 q 69 871 69 868 q 68 881 68 875 q 69 894 69 887 q 66 913 69 902 q 66 934 68 925 q 64 952 64 943 q 64 966 62 962 q 65 977 65 970 q 66 988 64 983 q 66 998 69 993 q 90 1004 81 1004 q 98 1005 92 1004 q 109 1008 104 1006 q 123 1005 118 1010 q 138 1008 132 1008 q 156 1007 152 1006 q 163 1008 160 1008 q 184 1007 174 1008 q 205 1009 194 1006 q 214 1006 209 1005 q 227 1008 220 1008 l 243 1008 q 254 1008 252 1009 q 258 1006 255 1006 q 286 1006 278 1009 q 301 1001 293 1002 q 312 990 309 994 q 321 975 321 979 q 324 967 321 970 q 326 957 323 962 q 327 947 328 952 q 326 930 326 933 q 327 924 327 926 q 326 909 327 917 q 327 894 324 902 q 322 859 326 878 q 323 829 319 841 q 319 818 317 819 q 321 814 320 817 q 319 803 319 808 q 321 791 320 798 q 318 779 319 785 q 317 765 317 772 q 316 748 319 755 q 315 731 313 741 q 313 709 313 718 q 313 689 313 700 q 319 694 316 692 q 324 700 323 697 q 340 705 338 705 q 345 708 342 705 q 361 721 357 719 q 369 730 366 723 l 370 734 z "},"":{"ha":355,"x_min":-83,"x_max":445,"o":"m 357 734 q 374 726 366 732 q 387 712 384 715 q 396 700 395 700 q 399 699 397 700 q 407 686 404 690 q 412 677 410 682 q 425 656 422 662 q 431 644 429 650 q 445 623 444 632 q 432 609 435 610 q 426 605 429 608 q 412 595 419 601 q 399 586 406 590 q 382 578 385 581 q 373 574 378 576 q 363 570 368 571 q 353 566 358 568 q 343 560 349 562 q 336 555 338 559 q 318 547 328 556 q 300 540 308 538 q 293 535 297 536 q 286 532 289 534 q 276 513 277 518 q 275 503 275 507 l 277 487 q 277 474 275 475 q 278 471 278 473 q 277 424 278 441 q 277 389 277 407 q 279 370 278 373 q 279 363 279 366 q 279 354 281 358 q 278 345 278 350 q 279 334 278 339 q 279 326 279 330 q 280 311 281 313 q 282 308 279 308 q 281 286 278 298 q 283 262 283 274 q 283 245 283 252 q 285 231 282 237 q 281 205 278 220 q 285 175 283 190 q 284 167 285 171 q 285 159 283 163 q 286 143 285 152 q 288 127 286 134 q 292 106 290 110 q 294 96 293 102 l 294 81 q 296 66 297 68 q 296 58 294 64 l 297 42 q 300 23 300 24 q 298 14 300 19 q 298 4 296 9 q 288 -6 292 -1 q 274 -12 285 -11 q 258 -13 263 -14 q 250 -12 254 -12 q 243 -14 247 -12 q 235 -16 239 -15 q 227 -16 231 -16 q 220 -15 222 -15 q 202 -14 203 -14 q 198 -15 201 -15 l 170 -15 q 159 -15 161 -14 q 153 -16 156 -16 q 106 -12 125 -19 q 86 -7 91 -8 q 79 -7 81 -7 q 66 10 68 8 q 62 15 64 12 q 58 43 58 35 q 56 57 57 50 q 56 68 57 65 q 57 77 56 71 q 60 98 60 90 q 64 117 64 114 q 66 122 64 119 q 66 132 64 127 q 69 140 68 136 q 71 157 69 155 q 72 163 72 160 q 71 174 72 170 q 71 180 69 178 q 71 189 71 184 q 72 197 72 193 q 71 212 72 205 q 71 227 69 218 q 73 239 73 237 q 72 244 72 241 q 74 259 75 259 q 73 262 73 259 q 76 277 73 269 q 76 297 76 297 l 76 323 l 76 346 q 80 361 77 357 q 80 372 83 366 q 80 387 77 382 q 67 388 68 389 q 64 387 66 387 q 33 368 43 376 q 12 353 23 359 q -3 343 3 346 q -26 345 -19 336 q -39 365 -33 354 q -52 384 -47 378 q -58 395 -56 389 q -62 405 -61 400 q -66 415 -64 410 q -75 429 -75 426 q -79 435 -75 431 q -82 446 -81 442 q -80 453 -83 449 q -73 467 -73 464 q -62 473 -71 469 q -50 480 -54 477 q -27 490 -38 487 q -17 498 -18 498 q -15 499 -16 499 q -3 509 -3 506 q 9 514 8 513 q 12 515 11 515 q 72 553 49 536 q 75 564 76 560 q 73 574 73 568 q 73 594 72 585 q 71 610 75 604 q 71 629 73 618 q 73 647 73 640 q 71 658 72 654 q 70 671 71 670 q 69 674 69 673 q 69 692 69 690 q 71 711 72 703 q 69 731 69 720 q 70 738 69 734 q 71 746 71 742 q 69 766 68 760 q 65 792 68 784 q 67 816 66 810 q 65 829 68 822 q 64 840 64 831 q 65 856 65 849 q 66 866 65 861 q 66 876 66 871 q 64 894 64 891 q 64 921 64 910 q 62 943 64 932 q 60 955 61 949 q 61 967 60 960 q 62 978 62 972 q 64 986 62 983 q 69 1007 69 1002 q 71 1017 69 1012 q 81 1034 79 1028 q 97 1041 95 1040 q 100 1043 99 1042 q 117 1044 111 1043 q 129 1043 122 1044 q 138 1040 134 1042 q 146 1039 141 1039 q 160 1040 160 1039 q 161 1042 160 1042 q 170 1040 165 1040 q 176 1043 174 1040 q 190 1040 190 1039 q 191 1040 190 1040 q 217 1042 209 1039 q 231 1039 229 1036 q 233 1039 232 1042 q 245 1038 240 1038 q 255 1035 251 1038 q 271 1037 264 1039 q 285 1032 278 1035 q 288 1023 288 1028 q 290 1016 289 1019 q 294 999 292 1005 q 293 986 296 993 q 295 970 296 970 q 294 967 294 970 l 294 947 q 293 939 294 943 q 290 929 292 935 q 291 922 290 925 q 292 914 292 918 q 291 901 290 902 q 292 898 292 899 q 290 888 292 892 q 289 880 289 884 q 288 871 288 875 q 288 861 289 867 q 287 854 286 859 q 286 842 288 849 q 285 827 286 834 q 285 808 283 819 q 284 793 285 796 q 283 787 283 789 q 285 774 283 780 q 283 764 286 769 q 286 751 286 758 q 285 738 285 745 q 282 708 282 719 q 285 690 282 697 q 303 692 300 689 q 309 700 307 696 q 326 705 324 705 q 331 708 328 705 q 348 721 343 719 q 355 730 353 723 l 357 734 z "},"":{"ha":519,"x_min":42,"x_max":491,"o":"m 327 1036 q 334 1038 330 1040 q 342 1038 339 1035 q 358 1029 351 1031 q 372 1021 362 1024 q 384 1010 382 1012 q 405 991 397 996 q 419 983 412 987 q 435 975 434 978 q 441 970 437 972 l 454 958 q 467 948 463 952 q 478 945 472 947 q 487 940 484 943 q 490 921 491 925 q 490 913 490 917 q 485 904 486 907 q 481 898 484 901 q 472 884 475 887 q 459 874 463 876 q 453 869 456 872 q 439 857 441 857 q 435 854 437 856 q 426 842 429 849 q 418 839 420 842 q 412 834 416 836 q 401 825 401 826 q 397 822 400 825 q 386 812 389 815 q 380 806 382 808 q 368 791 369 793 q 363 787 366 789 q 354 774 355 774 q 351 770 353 773 q 339 755 343 760 q 332 746 335 751 q 324 732 326 734 q 324 727 323 730 q 317 715 320 718 q 312 708 313 712 q 311 693 313 700 q 308 680 308 686 q 311 662 308 665 q 317 638 313 646 q 324 623 321 631 q 329 611 327 617 q 334 600 331 605 q 342 583 339 586 q 347 575 345 579 q 359 564 357 564 q 362 560 361 563 q 367 550 365 552 q 370 545 369 548 q 379 531 376 537 q 387 519 382 525 q 393 507 392 509 q 396 502 393 505 q 404 488 403 490 q 414 474 414 473 q 415 472 415 475 q 421 448 419 456 q 426 431 423 439 q 431 421 429 425 q 435 415 433 418 l 441 397 q 449 382 448 384 q 450 380 450 381 q 453 362 453 368 q 456 351 453 357 q 458 341 457 346 q 460 330 460 336 q 461 315 460 317 q 463 309 463 312 q 461 298 463 305 q 460 285 460 290 q 460 275 461 277 q 460 270 460 273 q 455 250 457 254 q 453 241 453 245 q 444 222 445 225 q 441 216 444 218 q 436 203 437 206 q 433 198 435 201 q 422 183 430 191 q 408 167 415 170 q 406 158 408 161 q 400 151 403 155 q 395 142 395 145 q 393 137 395 140 q 379 121 381 125 q 372 115 377 118 q 358 100 365 109 q 347 80 351 91 q 335 69 338 75 q 327 58 328 58 q 324 54 326 57 q 318 44 320 47 q 315 38 316 41 q 301 28 301 30 q 292 20 294 22 q 288 18 290 19 q 278 8 278 9 q 277 5 278 7 q 265 -12 269 -8 q 258 -19 262 -15 q 248 -31 250 -23 q 234 -42 236 -41 q 225 -46 232 -43 q 208 -46 210 -49 q 199 -45 206 -43 q 186 -36 187 -35 q 184 -35 186 -37 q 180 -28 182 -33 q 175 -22 178 -24 q 162 -9 163 -11 q 159 -9 161 -8 q 136 14 144 3 q 123 21 126 20 q 117 23 121 22 q 106 45 109 39 q 92 59 92 57 q 88 62 91 61 l 69 81 q 54 104 60 99 q 50 116 54 113 q 45 126 46 119 q 47 135 45 130 q 52 144 49 140 q 62 161 57 156 q 71 168 66 165 q 84 182 80 175 q 106 203 100 199 q 111 212 109 208 q 118 220 113 217 q 137 240 130 233 q 151 254 144 247 q 164 271 157 262 q 177 287 175 285 q 180 292 179 289 q 192 310 191 307 q 194 316 193 313 q 208 342 205 332 q 208 363 212 351 l 206 378 q 198 395 199 391 q 194 404 197 400 q 180 418 184 416 q 175 428 179 425 q 168 438 171 431 q 163 446 164 442 q 160 453 163 450 q 149 469 152 464 q 144 480 146 475 q 137 490 138 490 q 134 494 136 491 l 122 507 q 116 520 119 514 q 109 533 113 526 q 102 544 106 538 q 96 556 99 549 q 91 567 91 566 q 90 570 91 568 q 80 585 80 583 l 71 601 q 64 614 65 613 q 64 616 64 614 q 57 625 58 623 q 54 629 56 627 q 50 646 50 643 q 44 666 46 662 q 42 675 42 670 q 47 700 45 689 q 52 714 50 712 q 54 719 53 716 q 56 744 57 734 q 58 761 56 754 q 69 784 65 773 q 77 804 76 799 q 80 811 79 808 q 90 829 83 821 q 99 842 98 840 q 102 846 100 844 q 119 865 115 859 q 131 879 126 875 q 140 890 136 883 q 144 898 142 895 q 149 903 146 901 q 160 913 159 910 q 164 920 161 917 q 173 927 168 924 q 180 935 178 930 q 185 940 183 937 q 190 947 187 943 q 212 960 208 956 q 221 967 216 964 q 243 985 235 977 q 253 993 252 993 q 255 996 254 993 q 266 1004 260 1000 q 278 1015 271 1009 q 288 1027 286 1027 q 289 1028 289 1027 q 314 1042 304 1040 q 327 1036 324 1043 m 435 1274 q 428 1257 435 1261 q 415 1246 420 1253 q 397 1227 410 1242 q 390 1219 393 1223 q 382 1211 387 1215 q 371 1202 376 1206 q 362 1195 366 1199 q 354 1186 358 1191 q 346 1177 350 1181 q 330 1166 334 1166 q 318 1155 323 1161 q 309 1146 313 1149 q 298 1143 301 1143 q 293 1139 296 1142 q 283 1132 288 1137 q 277 1126 279 1127 q 256 1126 267 1123 q 246 1132 250 1128 q 239 1141 243 1135 q 232 1145 236 1143 q 224 1150 228 1147 q 215 1157 220 1153 q 208 1165 210 1161 q 196 1171 199 1165 q 184 1176 193 1176 q 159 1200 168 1194 q 149 1210 151 1206 q 140 1214 146 1214 q 125 1230 129 1230 q 104 1251 121 1245 q 96 1260 102 1257 q 88 1270 91 1263 q 99 1276 95 1278 q 109 1275 103 1275 q 123 1276 115 1275 q 140 1275 132 1276 q 157 1274 149 1275 q 172 1274 164 1274 q 187 1276 180 1276 q 208 1276 198 1278 q 229 1274 218 1275 q 309 1274 269 1271 q 345 1276 328 1275 q 378 1276 362 1278 q 393 1275 388 1276 q 413 1276 401 1275 q 435 1274 425 1276 z "},"":{"ha":452,"x_min":27,"x_max":423,"o":"m 294 803 q 301 785 301 785 q 311 770 309 772 q 315 769 312 769 q 321 760 316 762 q 327 751 326 758 q 340 730 335 738 q 350 716 345 723 q 354 707 351 711 q 359 700 357 704 q 363 692 362 697 q 369 685 365 688 q 380 666 376 673 q 384 650 385 659 q 369 637 372 637 q 366 635 366 637 q 349 627 351 629 q 343 623 346 625 q 328 614 330 614 q 326 613 327 613 q 318 608 323 610 q 311 601 313 605 q 303 600 307 601 q 296 595 300 598 q 286 587 288 589 q 282 582 285 585 q 273 570 275 574 q 267 563 271 566 q 262 552 262 553 q 262 548 263 551 q 256 528 258 532 q 256 519 254 525 q 262 509 260 510 q 264 506 264 509 q 267 490 267 495 q 281 475 277 479 q 289 468 286 472 q 297 460 296 461 q 300 457 298 460 q 308 446 307 449 q 312 439 309 442 q 319 425 316 426 q 324 419 323 423 q 334 404 331 408 q 342 399 336 400 q 348 388 343 392 q 357 378 353 384 q 362 369 359 373 q 370 362 365 365 q 381 342 380 347 q 388 334 382 336 q 397 313 393 320 q 404 300 400 307 q 409 288 407 290 q 411 283 411 286 l 414 264 q 418 244 416 248 q 419 235 418 240 q 420 227 420 231 q 421 218 420 222 q 422 212 422 214 q 421 196 422 202 q 423 183 420 190 q 419 174 420 179 q 414 165 418 168 q 412 155 414 159 q 407 146 410 151 q 399 133 401 134 q 399 129 396 132 q 391 121 391 122 q 388 117 391 119 q 378 107 380 109 q 377 103 377 106 q 365 92 366 95 q 359 83 361 85 q 355 79 358 81 q 348 68 350 71 q 345 62 346 66 q 336 58 339 62 q 331 52 334 54 q 323 43 323 45 q 320 41 323 41 q 309 26 312 30 q 288 7 293 15 q 264 -14 273 -5 q 247 -26 250 -24 q 241 -30 244 -27 q 234 -36 236 -34 q 229 -41 232 -38 q 218 -44 224 -43 q 208 -49 212 -45 q 199 -49 202 -47 q 193 -49 195 -50 q 185 -45 189 -49 q 179 -39 182 -42 q 165 -30 167 -30 q 161 -19 163 -22 q 156 -14 159 -16 q 144 2 146 -3 q 138 9 141 7 q 127 24 129 23 q 119 37 119 35 q 117 39 118 38 q 110 51 113 49 q 104 56 107 53 q 98 73 98 71 q 96 77 98 75 q 91 86 94 81 q 85 94 88 91 q 85 105 85 103 q 84 109 84 107 l 102 119 q 109 123 104 122 q 114 130 113 125 q 121 132 118 130 q 127 137 125 134 q 139 144 138 142 q 141 148 140 146 q 157 155 152 152 q 168 168 165 165 q 174 172 171 170 q 186 184 186 183 q 193 197 190 195 q 195 201 195 198 q 197 229 198 220 q 194 248 195 239 q 186 260 189 254 q 179 271 183 266 q 168 288 168 285 q 164 293 167 290 l 144 315 q 139 321 141 319 q 134 328 137 323 q 122 342 130 336 q 113 353 113 353 q 111 355 113 354 q 99 368 100 366 q 94 387 95 384 q 87 398 88 393 q 84 406 87 403 q 78 414 81 410 q 72 422 75 418 q 65 438 66 435 q 64 444 64 441 q 58 453 60 450 q 54 458 56 456 q 50 475 52 473 q 47 479 49 476 q 34 509 39 499 q 32 529 35 519 q 31 545 28 538 q 28 564 27 552 q 33 582 28 575 q 33 600 33 593 q 39 612 34 608 q 46 628 39 618 q 57 642 53 637 q 66 654 65 652 q 69 659 66 656 q 80 680 77 674 q 87 689 84 689 q 92 690 90 689 q 108 709 103 701 q 122 722 113 718 l 130 735 q 156 753 153 747 q 170 758 165 755 q 179 765 174 761 q 191 775 190 774 q 195 777 193 776 q 203 781 198 779 q 213 785 209 783 l 227 792 q 247 802 241 796 q 264 804 258 804 q 281 804 281 806 q 285 803 282 803 l 294 803 m 393 1051 q 386 1035 393 1039 q 373 1024 378 1031 q 355 1005 368 1020 q 348 997 351 1001 q 340 989 345 993 q 329 980 334 983 q 320 972 324 977 q 312 964 316 968 q 304 955 308 959 q 288 944 292 944 q 276 932 281 939 q 267 924 271 926 q 256 920 259 921 q 251 917 254 920 q 241 909 245 914 q 235 903 237 905 q 214 903 225 901 q 204 909 208 906 q 197 918 201 913 q 190 923 194 921 q 182 928 186 925 q 173 935 178 930 q 165 943 168 939 q 154 948 157 943 q 142 954 151 954 q 117 978 126 971 q 106 987 109 983 q 98 991 104 991 q 83 1008 87 1008 q 62 1028 79 1023 q 54 1038 60 1035 q 46 1047 49 1040 q 57 1054 53 1055 q 66 1053 61 1053 q 81 1053 73 1053 q 98 1053 90 1054 q 115 1052 107 1053 q 130 1051 122 1051 q 145 1054 138 1054 q 166 1054 156 1055 q 187 1051 176 1053 q 267 1051 227 1048 q 303 1054 286 1053 q 336 1054 320 1055 q 351 1053 346 1054 q 371 1053 359 1053 q 393 1051 382 1054 z "},"":{"ha":734,"x_min":-42,"x_max":774,"o":"m -27 998 q -17 1001 -23 1000 q -4 1002 -11 1002 q 6 1001 1 1002 q 16 1000 11 1000 q 24 1000 20 1000 q 34 1002 28 1001 q 49 1002 41 1002 q 68 1002 57 1001 q 85 1001 83 1001 q 94 1002 90 1001 q 100 1000 98 1002 q 125 1002 113 1002 q 152 1005 138 1002 q 176 1004 165 1002 q 201 1009 197 1008 q 212 1009 206 1010 q 224 1005 222 1005 q 227 1004 225 1005 q 243 987 237 993 q 250 970 247 978 q 251 960 251 964 q 254 951 251 956 q 266 924 260 930 q 273 910 271 917 q 273 897 274 903 q 274 884 273 891 q 280 861 279 865 q 283 852 281 857 q 288 837 288 841 q 292 826 292 829 q 293 821 293 823 q 302 791 300 798 q 309 772 304 785 q 315 759 312 765 q 323 746 319 753 q 331 730 330 734 q 335 720 332 726 q 340 713 338 716 q 345 705 342 709 q 349 697 347 701 q 355 690 351 693 q 361 675 355 684 q 376 670 374 665 q 384 678 378 675 q 391 694 387 686 q 399 712 396 703 q 406 729 404 726 q 410 735 407 732 q 416 754 414 747 q 420 762 418 757 q 426 768 422 766 q 429 781 430 780 q 429 784 429 783 q 439 799 438 795 q 442 807 439 803 q 446 823 445 823 q 449 825 448 823 l 454 842 q 461 859 458 850 q 465 869 465 865 q 465 876 464 872 q 475 895 475 891 q 476 901 475 898 q 486 920 484 917 q 490 925 488 922 q 492 932 491 928 q 495 940 494 936 q 500 960 500 959 q 506 978 505 974 q 513 991 513 987 q 531 1004 526 1002 q 543 1008 536 1005 q 565 1009 559 1010 q 578 1009 571 1008 q 587 1010 583 1009 q 595 1009 591 1010 q 612 1007 609 1006 q 618 1008 616 1008 q 628 1006 624 1006 q 637 1004 632 1005 q 704 1004 669 1001 q 726 1004 715 1004 q 749 1004 738 1005 q 760 1004 754 1004 q 772 1001 766 1005 q 774 989 774 996 q 773 977 773 983 q 769 961 770 963 q 766 956 768 959 q 762 943 764 945 q 760 939 761 941 q 750 922 757 930 l 741 909 q 734 898 738 903 q 727 887 730 892 q 716 872 720 876 q 707 856 709 859 q 697 837 699 845 q 689 823 689 823 q 676 804 678 807 q 673 796 674 800 q 664 779 667 781 q 658 773 661 776 l 651 757 l 643 742 q 633 728 633 730 q 632 726 632 727 q 626 711 627 713 q 624 708 625 709 q 614 695 616 696 q 612 693 613 694 q 585 651 597 667 q 580 644 582 647 q 575 636 578 640 q 568 621 567 623 q 567 620 570 620 q 558 602 560 605 q 557 595 556 600 q 549 586 551 586 q 547 585 548 586 q 543 574 544 576 q 538 568 541 571 q 530 554 532 555 q 529 552 529 553 q 521 535 521 537 q 518 532 521 533 q 511 514 515 521 q 502 500 507 507 q 495 483 496 484 q 487 474 487 476 q 484 469 487 472 q 478 448 479 453 q 480 435 477 442 q 479 422 477 430 q 480 407 480 414 l 480 382 q 481 372 480 373 q 481 368 481 370 q 481 359 481 363 q 481 349 480 355 q 481 326 483 332 q 480 313 480 320 l 483 290 q 484 274 483 277 q 484 269 484 271 q 481 250 481 255 q 482 242 481 245 q 481 235 483 239 q 481 219 480 231 q 481 197 481 208 q 479 175 480 186 q 481 149 479 164 q 483 133 481 138 q 486 117 484 125 q 488 99 488 110 q 489 88 490 92 q 488 79 488 84 q 492 62 490 71 q 496 47 494 54 q 498 4 505 22 q 492 -1 495 1 q 486 -5 488 -3 q 470 -9 473 -9 q 464 -11 467 -9 q 443 -11 448 -9 q 431 -12 438 -12 q 421 -11 426 -12 q 411 -9 416 -9 q 394 -8 396 -9 q 389 -7 392 -7 q 370 -7 380 -7 q 353 -8 361 -8 q 340 -8 342 -7 q 338 -9 339 -9 q 326 -9 336 -9 q 315 -7 316 -8 q 300 -5 304 -4 q 292 -4 296 -7 q 276 -7 285 -5 q 256 -5 267 -8 q 242 1 243 -1 q 239 4 241 4 q 241 16 241 15 q 243 20 241 18 q 248 35 247 34 q 250 38 248 37 q 251 48 250 46 q 252 54 252 50 q 253 62 254 58 q 255 69 252 65 q 256 85 258 80 q 255 96 255 91 q 256 103 255 99 q 256 111 256 107 q 256 134 255 129 q 256 146 256 140 q 258 160 258 153 q 259 174 258 167 q 260 191 259 178 q 258 213 260 203 q 258 226 260 220 q 255 236 255 232 q 256 247 256 245 q 255 251 255 248 q 256 271 255 267 q 256 277 256 274 q 260 295 262 290 q 263 305 259 300 q 262 325 262 320 q 263 336 263 330 l 263 359 q 264 378 263 376 q 264 384 264 381 q 264 391 264 388 q 263 399 263 395 q 262 409 262 404 q 263 418 263 414 l 263 439 q 256 454 258 453 q 254 456 255 454 l 245 469 q 239 481 240 477 q 236 487 239 484 q 221 515 228 506 q 216 530 216 530 q 211 540 213 533 q 205 552 209 547 q 197 566 197 563 q 187 578 191 572 q 178 591 178 591 q 172 605 175 600 q 167 616 170 610 q 158 635 161 627 q 152 647 155 643 q 141 658 141 656 q 138 668 138 665 q 134 674 137 671 q 130 690 132 689 q 129 693 129 690 q 123 708 125 700 q 117 723 117 722 q 115 726 117 724 q 107 739 107 739 q 95 757 98 753 q 88 770 90 769 q 77 784 77 777 q 57 819 65 811 q 52 833 53 833 q 52 836 52 834 q 44 848 49 842 q 35 859 39 854 q 24 869 28 864 q 15 878 20 875 q 5 893 5 892 q 1 899 4 894 q -9 920 -7 916 q -14 926 -11 924 q -23 941 -22 940 q -34 958 -31 949 q -41 972 -41 967 q -42 979 -42 978 q -34 993 -39 990 l -27 998 m 585 1214 q 581 1197 587 1203 q 570 1184 574 1191 q 553 1178 560 1183 q 538 1166 545 1173 q 526 1156 526 1158 q 525 1154 526 1154 q 513 1149 518 1152 q 505 1143 509 1146 q 487 1135 491 1135 q 479 1131 483 1134 q 459 1117 464 1120 q 449 1109 454 1114 q 431 1099 439 1103 q 415 1088 423 1095 q 389 1072 395 1074 q 368 1063 377 1065 q 353 1072 359 1069 q 341 1084 345 1084 q 336 1088 338 1085 q 328 1098 334 1093 q 319 1112 321 1103 q 305 1122 305 1120 q 301 1140 297 1138 q 309 1145 305 1142 q 318 1154 313 1147 q 328 1165 323 1160 q 337 1172 332 1169 q 346 1179 342 1175 q 359 1195 358 1192 q 371 1201 368 1196 q 384 1208 374 1206 q 395 1219 389 1214 q 406 1229 400 1223 q 414 1238 410 1233 q 423 1249 418 1244 q 435 1260 431 1256 q 445 1267 439 1264 q 456 1275 450 1271 q 464 1287 461 1279 q 475 1293 471 1290 q 483 1301 479 1297 q 495 1311 491 1310 q 500 1312 499 1312 q 507 1304 505 1305 q 513 1301 510 1303 q 524 1290 521 1293 q 536 1276 533 1282 q 541 1265 538 1270 l 551 1252 q 563 1240 560 1244 q 568 1233 566 1237 q 574 1227 571 1230 q 579 1221 576 1223 l 585 1214 z "},"":{"ha":743,"x_min":42,"x_max":688,"o":"m 286 761 q 287 746 286 747 q 288 742 288 745 q 290 733 289 736 q 290 724 290 730 q 288 703 290 707 q 288 693 286 699 q 288 680 288 682 q 288 674 289 678 q 288 663 288 665 q 288 658 289 661 q 286 646 288 652 q 288 633 285 640 q 283 609 283 613 q 284 599 283 604 q 285 591 285 594 q 283 583 285 587 q 282 575 282 579 q 283 562 282 568 q 285 547 285 555 q 288 514 285 528 q 288 498 288 506 q 290 483 289 491 q 289 456 292 467 q 290 442 289 449 q 290 429 290 435 q 292 412 292 414 q 293 410 293 411 q 292 397 293 403 q 293 382 292 391 q 294 354 292 369 q 298 339 297 346 q 296 323 298 327 q 294 313 294 319 q 293 292 296 300 q 294 277 294 279 q 294 273 293 275 q 295 256 296 259 q 294 251 294 254 q 300 232 293 239 q 299 224 298 228 q 300 216 300 221 q 315 197 308 201 l 328 187 q 353 177 347 179 q 368 178 359 175 q 376 180 372 179 q 387 183 381 182 q 408 194 401 186 q 425 206 415 202 q 439 221 438 217 q 450 233 450 229 q 455 239 453 236 q 458 247 457 243 q 458 258 457 256 q 458 262 458 259 q 460 277 460 275 q 461 279 461 278 q 459 294 458 294 q 460 296 460 294 l 460 320 q 460 331 460 326 q 461 343 461 336 q 463 365 460 359 l 463 387 q 462 399 463 399 q 461 401 461 400 q 461 427 463 419 q 460 445 460 434 q 459 465 458 453 q 458 487 460 476 q 457 509 456 505 q 458 517 458 513 l 460 533 q 462 544 461 543 q 463 548 463 545 q 463 558 461 556 q 465 563 465 560 l 465 578 q 465 601 465 594 q 463 617 464 608 q 460 633 460 628 q 460 643 461 637 q 458 661 458 658 q 457 667 457 663 q 456 685 457 681 q 454 693 454 689 q 454 707 453 700 q 454 720 454 713 q 454 737 454 731 q 457 749 454 743 q 462 755 458 753 q 468 761 465 758 q 475 761 472 762 q 484 762 477 760 q 510 764 499 766 q 532 762 521 762 q 537 763 534 762 q 547 765 540 764 q 576 761 571 762 l 591 761 q 605 762 600 761 q 617 764 610 764 q 629 763 628 762 q 633 764 631 764 q 651 763 644 762 q 665 761 658 764 q 675 755 673 757 q 678 750 677 753 q 683 738 681 741 q 688 736 685 735 q 685 710 684 724 q 685 681 686 696 q 684 663 685 671 q 681 648 684 655 q 680 635 680 635 q 681 633 681 635 l 680 618 q 678 604 680 610 q 677 590 675 591 q 677 586 678 589 q 674 566 674 570 q 675 544 674 551 q 677 530 677 537 l 677 514 q 680 496 678 499 q 682 488 681 494 q 682 460 682 468 q 680 445 681 453 q 679 418 678 434 q 678 389 680 403 q 678 364 680 374 q 677 347 677 354 q 680 330 680 336 q 679 323 680 327 q 678 315 678 319 q 680 302 678 308 q 681 290 681 297 q 680 249 681 270 q 678 209 678 228 q 679 200 678 205 q 680 191 680 195 q 680 178 681 182 q 680 170 680 175 q 680 153 680 161 q 681 134 681 145 q 680 126 681 130 q 680 117 680 122 q 681 96 680 106 q 682 73 682 85 q 682 60 681 62 q 682 53 682 57 l 682 16 q 683 -17 682 -5 q 684 -41 684 -28 q 683 -52 684 -47 q 682 -64 682 -57 q 683 -74 682 -69 q 684 -85 684 -79 q 683 -94 684 -90 q 682 -100 682 -98 q 682 -121 684 -117 q 683 -130 682 -125 q 684 -138 684 -134 q 683 -152 684 -145 q 682 -165 682 -159 q 680 -191 681 -186 q 677 -203 678 -197 q 673 -212 675 -209 q 671 -222 671 -216 q 663 -236 666 -228 q 658 -251 661 -244 q 645 -267 648 -263 q 639 -274 642 -270 q 627 -290 635 -279 q 616 -303 617 -301 q 613 -307 614 -305 l 605 -321 l 593 -331 q 583 -342 585 -342 q 578 -345 581 -342 q 559 -366 563 -363 q 547 -377 553 -372 q 537 -388 541 -382 q 530 -400 534 -396 q 517 -411 525 -404 q 507 -418 510 -416 q 502 -422 505 -419 q 488 -431 488 -431 q 478 -438 480 -438 q 473 -439 476 -438 q 463 -442 468 -441 q 450 -444 457 -444 q 427 -438 438 -444 q 420 -433 423 -435 q 414 -429 416 -431 q 402 -419 406 -420 q 397 -415 399 -418 q 392 -397 392 -403 q 388 -391 389 -395 q 382 -385 387 -387 q 374 -370 380 -376 q 362 -354 363 -358 q 353 -339 358 -345 q 345 -323 346 -327 q 342 -316 343 -320 q 340 -298 338 -301 q 345 -290 342 -294 q 368 -272 359 -275 q 385 -263 377 -269 q 399 -252 396 -254 q 406 -245 406 -247 q 410 -241 407 -244 q 422 -230 420 -231 q 426 -227 423 -229 q 438 -216 438 -217 q 446 -201 445 -202 q 446 -199 446 -201 q 449 -191 445 -195 q 453 -184 453 -187 q 467 -147 465 -161 q 468 -118 469 -133 q 467 -108 468 -110 q 468 -103 467 -106 q 470 -86 469 -94 q 471 -76 471 -79 q 471 -61 471 -69 q 469 -45 471 -53 q 469 -37 469 -41 q 468 -30 468 -34 q 469 -9 469 -19 q 464 12 469 1 l 468 35 q 468 56 467 46 q 471 77 469 66 q 456 64 458 66 q 452 60 453 62 q 445 56 448 58 q 439 50 442 53 q 427 41 427 43 q 411 34 416 37 q 393 20 400 23 q 385 14 387 16 q 380 8 382 11 q 369 3 374 5 q 359 0 363 1 q 350 -6 354 -3 q 340 -12 346 -9 q 327 -19 327 -19 q 308 -23 313 -20 q 298 -27 302 -26 q 290 -26 293 -27 q 282 -30 286 -26 l 255 -26 q 225 -15 235 -16 q 208 -9 216 -14 l 195 0 q 186 6 190 3 q 179 11 183 9 q 168 26 171 23 q 155 35 155 35 q 137 54 142 52 q 129 67 130 66 q 126 69 127 68 q 114 88 115 81 q 100 102 102 100 q 96 104 99 104 q 94 113 95 110 q 91 119 92 115 q 77 136 80 132 q 72 146 75 141 q 62 172 64 168 q 62 191 61 186 q 64 203 64 197 q 65 225 64 220 q 68 237 66 231 q 68 253 68 251 q 69 258 69 255 l 68 283 q 70 299 69 296 q 71 305 71 302 q 71 323 71 319 q 73 331 71 327 q 71 339 72 335 q 69 350 69 343 q 69 367 71 362 q 68 380 68 372 q 67 410 66 401 q 69 426 68 419 q 69 442 69 433 l 68 468 q 71 488 71 484 q 72 496 72 492 q 68 524 68 515 q 68 543 69 533 q 66 557 66 555 q 65 566 65 560 l 62 581 q 61 599 61 594 q 60 610 61 604 q 58 621 58 616 q 56 635 57 627 q 53 652 53 644 q 52 667 53 663 q 50 674 50 671 q 47 689 45 689 q 47 692 49 689 q 46 718 46 711 q 42 731 46 726 q 46 757 45 751 q 54 760 50 758 q 61 764 57 761 q 76 769 76 769 q 87 768 84 769 q 94 769 90 768 l 109 769 q 119 769 115 769 q 126 768 123 769 l 152 768 q 172 767 161 766 q 190 766 183 768 q 201 766 195 766 q 210 765 206 765 q 236 768 229 770 q 251 766 243 766 q 274 765 263 769 l 286 761 m 585 1019 q 581 1002 587 1008 q 570 989 574 996 q 553 983 560 987 q 538 971 545 978 q 526 961 526 963 q 525 959 526 959 q 513 954 518 956 q 505 948 509 951 q 487 939 491 940 q 479 936 483 939 q 459 922 464 925 q 449 914 454 918 q 431 903 439 907 q 415 892 423 899 q 389 876 395 879 q 368 868 377 869 q 353 876 359 873 q 341 889 345 888 q 336 892 338 890 q 328 903 334 898 q 319 917 321 907 q 305 926 305 925 q 301 945 297 943 q 309 949 305 947 q 318 958 313 952 q 328 970 323 964 q 337 977 332 974 q 346 983 342 979 q 359 1000 358 997 q 371 1006 368 1001 q 384 1013 374 1010 q 395 1023 389 1019 q 406 1034 400 1028 q 414 1043 410 1038 q 423 1054 418 1048 q 435 1065 431 1061 q 445 1072 439 1069 q 456 1080 450 1076 q 464 1092 461 1084 q 475 1098 471 1095 q 483 1105 479 1101 q 495 1116 491 1115 q 500 1116 499 1116 q 507 1109 505 1109 q 513 1105 510 1108 q 524 1095 521 1097 q 536 1080 533 1086 q 541 1070 538 1074 l 551 1057 q 563 1045 560 1048 q 568 1038 566 1042 q 574 1031 571 1035 q 579 1025 576 1028 l 585 1019 z "},"":{"ha":853,"x_min":69,"x_max":825,"o":"m 351 986 q 348 979 350 982 q 345 970 346 975 q 344 958 343 964 q 345 945 345 952 q 344 923 343 935 q 343 901 345 911 q 342 889 342 891 q 343 884 343 887 q 341 876 343 880 q 340 865 339 872 q 359 863 350 863 q 380 864 369 864 q 393 863 392 864 q 396 863 393 863 q 409 863 404 864 q 420 860 414 861 l 442 860 q 456 859 449 859 q 471 859 463 859 q 489 857 486 856 q 496 857 492 857 q 519 856 513 857 q 538 854 537 853 q 543 854 540 856 q 551 851 545 852 q 560 849 556 850 q 570 846 566 846 q 576 842 574 845 q 586 840 582 844 q 597 836 590 836 q 604 831 598 831 q 614 829 610 831 q 632 819 628 821 q 652 807 647 811 q 663 800 656 803 l 677 793 q 688 783 686 783 q 689 780 689 783 q 700 771 697 772 q 703 766 703 770 q 711 761 708 764 q 716 755 715 758 q 724 747 720 753 q 734 738 728 742 q 747 726 747 728 q 750 720 747 724 q 754 713 751 718 q 757 704 757 709 q 762 697 760 701 q 766 690 764 693 q 779 659 773 670 q 783 651 783 654 q 785 646 784 648 q 791 636 791 637 q 792 632 791 635 q 795 625 793 628 q 798 617 796 621 q 804 601 804 604 q 810 586 807 594 q 817 560 814 570 q 821 532 817 543 q 821 512 821 515 q 822 505 822 509 q 822 496 822 500 q 825 487 822 492 q 823 471 822 480 q 822 453 823 461 q 821 439 819 441 q 819 435 822 437 q 818 410 818 418 q 815 395 818 401 q 810 372 811 385 q 803 355 806 358 q 791 333 792 339 q 784 324 791 327 q 781 315 784 319 q 776 308 779 312 q 766 294 766 294 q 751 271 754 278 q 739 259 739 263 q 728 245 730 247 l 711 232 q 699 222 703 227 q 685 210 689 213 q 669 195 673 197 q 665 191 665 194 q 640 176 646 182 q 631 175 635 176 q 624 171 628 174 q 606 164 614 170 q 589 159 591 160 q 583 159 586 159 q 565 150 571 152 q 555 141 559 148 q 540 140 543 140 q 537 137 537 141 q 519 137 521 138 q 514 136 517 136 q 503 136 506 137 q 496 134 499 134 q 484 134 490 133 q 473 132 477 134 q 458 128 460 127 q 450 127 456 129 q 435 125 437 126 q 431 123 434 123 q 421 123 425 125 q 414 122 418 121 q 389 115 397 121 q 370 115 382 117 q 349 111 358 114 q 348 94 349 104 q 353 81 347 84 q 353 68 353 75 q 354 52 353 61 q 356 37 357 39 q 357 33 355 35 q 359 23 357 27 q 359 15 361 19 q 354 9 358 9 q 346 5 350 8 q 334 -4 336 -1 q 317 -3 321 -4 q 309 -3 312 -3 l 293 -4 q 278 -2 281 -1 q 273 -1 275 -3 q 254 -1 258 0 q 247 -3 250 -3 q 230 -2 232 -1 q 225 -3 228 -3 q 214 -1 220 -3 q 201 0 208 0 q 171 -4 178 -3 q 159 -5 160 -5 q 155 -4 157 -4 q 134 -3 138 -4 q 125 -1 130 -1 q 114 -3 119 -1 q 106 3 109 -5 q 100 20 100 15 q 100 31 99 24 l 102 52 l 103 66 q 106 76 104 72 q 107 85 107 80 q 108 94 109 90 q 107 100 107 98 q 109 121 107 111 q 110 140 110 130 q 109 153 110 146 q 109 167 109 160 q 109 187 110 180 q 109 201 109 194 q 110 211 109 206 q 111 220 111 216 q 111 230 111 225 q 110 239 110 235 q 111 255 110 250 q 110 267 111 260 q 109 281 106 281 q 110 283 111 281 q 110 304 111 294 q 109 327 109 315 q 109 346 109 336 q 109 366 110 355 q 108 384 110 380 q 103 391 106 388 q 104 404 103 397 q 104 419 104 411 q 106 433 104 429 q 107 442 107 438 q 105 454 107 448 q 103 465 103 460 q 102 486 102 480 q 102 499 102 492 l 103 514 q 103 530 103 519 q 101 555 100 549 q 102 568 102 562 q 102 584 102 578 q 100 595 103 590 q 100 605 100 602 q 99 612 99 608 q 100 631 99 623 q 102 651 100 640 q 101 666 102 658 q 100 681 100 674 l 100 709 q 98 722 98 720 q 99 727 99 724 q 98 736 98 730 q 96 745 99 742 q 96 762 96 762 q 94 783 94 774 q 94 794 94 788 q 92 807 94 800 q 89 833 88 826 q 90 849 90 841 q 83 869 84 864 q 80 882 83 875 q 79 899 77 897 q 79 903 80 901 q 75 918 79 911 q 75 928 77 922 q 73 936 73 933 q 74 947 73 944 q 72 952 75 949 q 70 964 69 962 q 71 968 71 966 q 79 998 72 990 q 92 1004 91 1001 q 96 1006 94 1006 l 113 1006 q 122 1006 118 1008 q 130 1004 126 1005 q 140 1005 134 1005 q 149 1004 145 1005 q 165 1003 163 1002 q 170 1004 167 1004 q 189 998 184 1000 q 199 997 194 997 q 227 994 217 994 q 241 996 233 994 q 255 998 248 998 q 271 998 270 998 q 275 997 273 997 q 292 996 286 997 q 304 994 297 994 q 319 996 311 994 q 334 997 327 997 q 349 990 349 990 l 351 986 m 358 263 q 379 265 376 266 q 385 266 382 264 q 402 271 399 271 q 410 270 406 270 q 422 279 414 274 q 438 286 435 285 q 442 286 441 286 q 455 300 453 297 q 458 307 457 302 q 471 316 473 315 q 472 317 469 317 q 486 330 484 330 q 490 332 487 330 q 507 349 506 346 q 519 360 518 359 q 522 362 521 361 q 533 373 533 372 q 548 391 541 387 q 559 398 557 395 q 563 404 560 401 q 574 417 571 415 q 581 422 578 419 q 587 438 587 437 q 589 441 587 439 q 595 453 595 449 q 597 460 595 457 q 600 468 598 464 q 601 475 601 472 q 602 488 602 481 q 601 500 601 494 q 602 509 601 505 q 604 518 604 513 q 597 538 598 533 q 594 547 597 543 q 587 564 590 559 q 582 572 585 568 q 572 586 576 579 q 562 598 567 593 q 556 611 556 609 q 555 616 556 613 q 541 625 544 625 q 534 637 534 635 q 533 639 534 639 q 524 650 528 646 q 518 658 521 654 q 506 670 510 662 q 490 681 491 680 q 487 684 488 682 q 472 697 473 694 q 456 709 457 707 q 435 722 441 720 q 427 727 430 724 q 414 736 416 734 q 410 739 412 738 q 385 745 396 742 q 373 744 378 745 q 362 745 368 743 q 347 743 349 741 q 343 743 346 745 q 340 733 342 738 q 339 722 339 728 q 334 697 336 708 l 334 663 q 332 638 334 646 q 331 624 331 631 q 331 607 331 616 q 330 590 331 598 q 327 570 328 581 q 328 553 326 560 q 329 536 330 537 q 328 534 328 536 q 328 509 331 521 q 328 492 328 500 q 328 475 327 483 q 330 462 328 468 q 331 449 331 456 l 331 433 q 334 416 331 427 q 333 408 332 412 q 334 400 334 403 q 332 356 332 377 q 332 312 332 335 q 334 286 332 298 q 335 259 336 273 q 347 260 342 258 q 358 263 353 262 z "},"":{"ha":792,"x_min":41,"x_max":764,"o":"m 761 350 q 760 334 760 336 q 758 325 758 328 q 755 316 758 321 q 753 308 754 313 q 751 297 753 302 q 750 282 751 288 q 749 269 747 273 q 749 262 750 264 q 738 228 743 241 q 736 219 736 224 q 731 212 735 214 q 728 195 728 198 q 727 191 728 193 q 724 179 726 186 q 718 170 723 172 q 711 155 712 156 q 709 152 711 153 q 703 140 704 144 q 700 134 701 137 q 693 121 694 123 q 682 102 686 109 q 674 91 678 96 q 669 84 671 87 q 663 79 667 81 q 646 58 654 66 q 636 43 637 45 q 626 34 627 34 q 625 33 625 34 q 609 19 614 23 q 600 12 604 15 q 588 10 593 11 q 581 3 583 9 q 566 -4 576 1 q 553 -9 555 -8 q 548 -12 552 -11 q 533 -17 538 -15 q 524 -19 528 -19 l 499 -18 q 488 -17 492 -18 q 477 -16 483 -16 q 469 -17 472 -16 q 458 -16 465 -18 q 439 -16 442 -18 q 431 -14 435 -14 q 413 -10 416 -12 q 407 -11 410 -8 q 399 -7 403 -8 q 389 -5 396 -5 q 368 4 373 4 q 359 7 362 4 q 342 19 350 14 q 329 28 330 26 q 326 31 328 30 l 311 41 q 297 53 301 49 q 286 37 286 42 q 285 24 285 31 q 286 16 285 20 q 286 8 286 12 q 287 -13 288 -3 q 288 -34 286 -23 q 290 -50 290 -47 q 289 -56 289 -53 q 292 -79 292 -69 l 292 -109 q 294 -128 294 -123 q 297 -137 294 -133 q 297 -151 294 -144 q 298 -164 300 -157 l 301 -184 q 298 -199 298 -195 q 299 -208 298 -203 q 300 -216 300 -212 q 298 -234 297 -229 q 297 -243 298 -239 q 295 -254 297 -250 q 290 -266 293 -259 q 284 -278 285 -274 q 279 -285 283 -282 q 265 -289 275 -289 q 252 -289 255 -289 q 223 -290 233 -289 q 206 -288 213 -292 q 187 -292 195 -292 q 165 -292 179 -292 q 144 -292 151 -294 q 132 -292 138 -289 q 117 -292 122 -294 q 107 -290 113 -290 q 90 -290 94 -292 q 81 -288 87 -289 q 66 -286 65 -286 q 66 -282 68 -285 q 49 -272 50 -274 q 45 -267 47 -270 q 43 -247 45 -256 q 42 -228 41 -237 q 47 -210 46 -212 q 50 -186 50 -194 q 53 -170 50 -178 q 58 -153 57 -156 q 60 -148 60 -151 q 60 -136 61 -141 q 60 -123 60 -130 q 65 -100 64 -106 q 64 -90 66 -95 q 68 -75 69 -83 q 68 -57 68 -66 l 69 -41 q 70 -33 69 -37 q 71 -26 71 -28 l 69 -9 q 68 1 69 -4 q 71 9 68 5 q 70 21 68 15 q 72 35 72 27 q 73 58 71 49 q 72 72 75 68 q 71 87 72 83 q 71 94 71 91 q 71 109 69 109 q 72 113 72 110 q 71 127 71 127 q 72 129 72 127 l 72 149 q 72 179 73 163 q 73 187 72 183 q 73 194 73 191 q 72 214 73 206 q 71 233 71 222 q 73 246 73 241 q 73 258 72 251 q 75 269 76 266 q 76 274 75 273 q 77 303 76 292 q 76 321 79 315 q 78 336 79 328 q 77 351 77 343 q 77 359 77 355 q 76 366 76 363 l 79 381 q 77 389 77 382 q 77 397 77 395 q 77 410 77 404 q 79 423 77 416 q 80 438 79 437 q 79 451 77 450 q 80 453 80 452 q 81 473 83 465 q 83 486 80 480 q 81 497 80 490 q 81 513 81 505 l 80 528 q 81 539 81 537 q 80 544 80 541 q 79 553 80 549 q 79 559 79 556 q 81 575 80 574 q 81 578 81 576 q 81 616 80 595 q 80 637 83 632 q 82 664 84 656 q 83 678 80 671 q 82 690 80 682 q 83 707 84 697 q 81 722 83 722 q 80 726 80 723 q 83 743 83 731 q 81 756 80 754 q 81 761 81 758 q 79 777 81 766 q 77 785 77 781 q 75 792 77 789 q 73 812 76 803 q 69 831 71 822 q 68 844 68 838 q 68 857 69 850 q 62 876 66 872 q 63 896 62 891 q 64 903 64 901 q 62 911 64 907 q 61 920 61 916 q 65 936 64 935 q 76 949 73 945 q 89 955 87 956 q 94 956 91 954 q 104 958 102 959 q 110 958 107 956 q 129 958 125 958 q 136 959 133 959 q 146 958 141 959 q 159 958 152 958 q 179 959 172 959 l 198 956 q 214 951 213 952 q 217 951 216 951 q 236 951 227 948 l 251 952 q 269 951 264 949 q 279 949 275 951 q 288 945 283 948 q 300 928 301 935 q 301 914 298 921 l 302 891 q 301 865 304 878 q 302 848 304 852 q 302 837 300 844 q 300 814 301 822 q 298 795 298 806 l 298 780 l 300 712 q 312 720 312 719 q 313 724 312 722 q 329 736 324 732 q 336 745 334 739 q 345 749 340 747 q 355 753 350 750 q 372 758 366 758 q 384 761 378 757 q 401 765 400 764 q 413 767 410 768 q 419 768 416 766 q 430 768 425 768 q 444 770 435 769 q 458 771 452 772 q 473 768 464 770 q 488 768 487 765 q 502 762 500 762 q 506 761 503 761 q 522 755 517 755 q 531 750 528 753 q 540 745 534 747 q 553 738 551 739 q 557 735 555 736 q 576 727 574 730 q 587 720 586 720 q 591 719 589 720 q 606 709 601 711 q 613 704 610 707 q 621 701 617 703 q 627 697 624 699 q 646 682 642 686 q 656 674 650 677 q 673 656 659 663 q 682 646 680 648 q 688 642 685 643 q 699 622 697 625 q 703 616 701 618 q 709 604 709 606 q 712 602 709 602 q 717 588 715 591 q 720 582 719 585 l 728 564 q 735 547 730 560 l 739 529 q 746 510 746 515 q 747 502 746 505 q 751 483 749 491 q 753 465 751 468 q 755 457 755 461 q 758 444 757 444 q 758 442 758 444 q 760 427 760 431 q 761 405 760 410 q 764 395 762 400 q 760 376 761 385 q 760 359 758 368 l 761 350 m 563 340 l 562 366 q 561 382 560 381 q 562 387 562 384 q 559 398 559 395 q 560 404 560 401 q 559 422 560 419 q 556 429 557 426 q 553 441 555 441 q 553 444 552 441 q 550 457 553 453 q 548 467 547 461 q 538 481 541 477 q 533 488 534 484 q 530 503 532 502 q 526 506 528 503 q 519 519 521 518 q 514 524 517 521 l 499 536 q 486 545 486 544 q 484 547 486 545 q 473 555 475 553 q 469 555 472 557 q 461 561 465 559 q 453 566 457 563 l 437 575 q 408 576 418 574 q 389 575 397 578 q 381 577 387 578 q 373 576 376 576 q 355 572 357 574 q 341 563 345 563 q 335 560 338 563 q 323 553 328 557 q 312 545 319 549 q 307 538 309 541 q 301 530 304 534 q 294 509 292 513 q 288 487 286 492 q 290 470 289 476 q 290 457 290 464 q 286 422 286 434 q 286 403 285 411 q 288 386 286 388 q 286 384 289 384 q 288 366 289 373 q 288 351 288 358 q 288 339 289 345 q 285 331 286 334 q 286 313 286 317 q 289 304 286 308 q 287 286 286 294 q 285 271 288 278 q 299 258 297 260 q 301 252 301 255 q 326 236 319 237 q 340 220 336 224 q 347 214 343 217 q 358 207 357 209 q 362 206 359 205 q 369 199 368 201 q 373 195 370 197 q 389 187 384 190 q 403 181 401 182 q 407 180 404 180 q 418 174 416 175 q 423 175 420 172 q 432 170 426 172 q 439 170 438 168 q 457 169 453 170 q 464 168 461 168 q 477 175 476 174 q 491 178 486 175 q 503 183 496 182 q 514 194 507 190 q 528 217 525 213 q 530 228 530 221 l 540 244 q 544 261 545 260 q 544 264 543 262 q 549 275 547 273 q 547 279 551 277 q 553 309 556 302 q 559 324 556 319 q 562 332 562 330 l 563 340 z "},"":{"ha":791,"x_min":42,"x_max":762,"o":"m 349 214 q 356 212 353 212 q 363 213 359 213 q 391 210 382 209 q 410 210 400 210 l 439 210 q 455 211 448 210 q 472 213 463 212 q 483 214 480 213 q 488 214 486 214 q 502 215 495 216 q 514 214 509 214 q 527 217 524 216 q 533 220 530 218 q 542 220 537 221 q 552 220 547 220 q 567 224 567 224 q 568 225 567 225 q 585 226 581 227 q 595 227 590 225 q 612 227 602 227 q 631 229 621 227 q 647 232 642 232 q 662 233 659 232 q 667 233 665 233 q 696 234 681 232 q 718 233 711 236 q 726 229 723 232 q 734 227 730 227 q 732 203 731 210 q 734 194 732 197 q 732 179 735 190 q 730 171 731 174 q 726 161 728 168 q 721 146 723 155 q 716 130 719 137 q 714 117 713 118 q 715 115 715 117 q 711 99 713 109 q 705 81 709 90 q 702 59 703 64 q 699 52 701 54 l 693 30 q 686 16 686 16 q 686 7 685 11 q 685 0 688 3 q 677 -10 678 -9 q 674 -14 675 -11 l 659 -14 q 635 -17 643 -15 q 620 -19 627 -19 q 595 -17 604 -16 q 585 -18 587 -18 q 570 -15 572 -15 q 561 -14 566 -14 q 553 -14 556 -14 q 532 -12 536 -15 q 524 -9 528 -9 q 505 -10 511 -11 q 494 -9 499 -9 q 481 -8 484 -9 q 473 -5 477 -7 q 460 -6 467 -5 q 446 -7 453 -7 q 431 -6 434 -5 q 427 -7 429 -7 q 414 -5 418 -5 q 406 -5 410 -4 q 386 -6 391 -7 q 374 -5 381 -5 q 356 -5 359 -4 q 350 -5 353 -5 q 331 1 345 -4 q 312 0 320 -1 q 294 1 304 1 q 283 1 288 1 q 271 0 278 0 q 247 0 260 -3 q 239 1 243 0 q 231 1 235 1 q 213 1 216 0 q 208 1 210 1 q 198 0 202 1 q 190 -1 194 -1 q 177 -2 183 -3 q 165 -1 171 -1 q 154 -2 156 -1 q 149 -3 152 -3 q 140 -1 144 -3 q 132 0 136 0 q 121 1 126 1 q 113 0 117 0 q 103 3 107 1 q 96 3 99 4 q 75 16 79 11 q 65 24 71 20 q 62 33 64 30 q 58 38 61 35 q 56 49 57 45 q 54 58 54 53 l 50 83 q 46 106 45 100 q 45 118 47 113 q 50 142 49 137 q 54 153 52 149 q 56 161 57 156 q 78 192 73 178 q 94 217 83 206 l 99 232 q 109 245 109 245 q 115 255 113 251 q 119 262 117 259 q 127 273 122 269 q 134 283 132 278 q 139 298 137 298 q 142 300 141 297 q 151 312 151 309 q 153 317 151 315 q 162 331 161 328 q 165 336 163 334 q 174 349 172 347 q 178 354 175 351 q 186 365 186 363 q 187 368 186 366 q 197 382 194 374 q 208 395 208 393 q 210 400 209 397 q 218 414 216 411 q 222 419 221 416 q 228 434 228 431 q 231 439 228 437 q 241 454 239 452 q 259 481 251 471 q 269 494 266 490 q 275 500 271 498 q 280 512 281 511 q 281 515 279 513 q 290 532 290 530 q 293 536 290 533 q 302 553 302 553 q 307 562 305 557 q 312 568 309 566 q 319 576 317 575 q 323 579 320 576 q 333 594 331 590 q 338 602 335 598 q 343 613 343 612 q 345 617 343 614 q 354 632 354 629 q 365 647 363 644 q 369 651 366 650 q 372 658 369 655 q 377 665 374 661 q 387 678 384 673 l 395 693 q 402 707 401 704 q 404 712 403 709 q 411 732 411 728 q 416 739 415 735 q 422 746 418 743 q 427 757 427 754 q 427 761 426 760 q 427 773 429 772 q 422 776 426 774 l 393 776 q 347 777 369 780 q 325 777 331 776 q 311 777 319 779 q 294 775 298 777 q 285 773 290 773 q 243 770 255 774 q 212 765 222 766 q 191 765 202 764 q 177 763 178 762 q 172 762 176 764 q 155 760 159 758 q 149 761 152 761 q 130 760 134 760 q 121 757 125 760 q 99 753 107 755 q 83 754 91 751 q 70 760 69 760 q 69 761 71 761 l 60 773 q 58 802 58 793 q 57 821 58 811 q 57 833 57 827 q 58 844 57 838 q 57 852 57 848 q 57 861 57 857 q 58 869 57 865 q 57 879 58 873 q 50 907 52 903 q 49 918 49 911 q 47 930 49 924 q 47 939 46 935 q 46 948 47 944 q 45 956 46 952 q 43 963 43 960 q 43 976 42 974 q 42 979 43 978 q 58 1001 56 997 q 73 1005 72 1006 q 77 1005 75 1004 q 92 1012 92 1012 q 94 1015 91 1012 q 113 1015 110 1012 q 130 1017 129 1017 q 134 1016 132 1016 q 144 1017 140 1016 q 151 1016 148 1017 q 170 1016 164 1015 q 180 1016 175 1017 q 193 1015 187 1016 q 206 1015 198 1015 l 221 1016 q 234 1016 228 1016 q 247 1015 240 1016 q 256 1013 252 1015 q 266 1012 259 1012 q 281 1013 277 1010 q 293 1015 286 1016 q 308 1012 307 1013 q 322 1010 320 1012 q 327 1009 324 1009 q 351 1011 346 1012 q 363 1009 357 1010 q 383 1010 380 1009 q 389 1010 387 1010 q 397 1009 393 1010 q 406 1008 401 1008 q 416 1007 411 1006 q 426 1008 420 1008 l 444 1006 q 468 1002 457 1002 q 480 1001 473 1001 q 495 1001 487 1001 q 511 999 510 998 q 514 1000 513 1000 q 526 1001 526 1000 q 529 1000 526 1002 q 545 998 537 997 q 562 997 553 1000 q 584 998 578 997 q 597 1000 590 1000 l 613 1000 q 621 1000 618 1000 q 629 1001 624 1001 q 644 1001 636 1000 q 658 1002 651 1002 q 666 1003 662 1002 q 673 1004 670 1004 q 700 1001 686 1001 q 709 1002 704 1001 q 716 1001 713 1002 q 730 990 727 990 q 737 979 738 981 q 738 977 736 978 q 746 966 745 967 q 749 962 747 964 q 753 947 753 948 q 754 945 754 947 q 757 932 755 933 q 758 928 758 930 q 760 909 762 914 l 758 892 q 750 877 754 884 q 745 859 746 869 q 730 836 735 849 q 722 821 724 825 q 719 815 720 818 q 711 802 711 803 q 709 798 711 800 q 700 783 701 784 q 686 761 692 772 q 677 747 677 747 q 675 745 677 746 q 660 727 665 731 q 652 718 655 723 l 646 704 q 636 690 637 692 q 629 685 633 688 q 625 677 625 682 q 615 665 616 667 q 613 661 614 663 q 601 643 604 648 q 594 627 600 637 q 587 612 587 612 q 578 596 581 600 q 572 589 575 593 q 564 576 564 578 q 563 572 564 574 q 555 560 556 564 q 552 553 555 556 q 541 534 543 537 q 528 517 532 524 q 521 505 525 510 q 515 494 515 495 q 513 491 514 494 q 503 476 503 477 q 502 473 503 475 q 488 455 491 461 q 483 444 486 449 q 477 433 479 435 q 473 427 475 430 l 463 411 q 453 399 453 400 q 452 399 453 399 l 439 381 q 427 359 431 368 q 420 348 420 351 q 416 342 419 345 q 404 320 410 328 q 395 306 395 307 q 395 304 396 305 q 387 290 392 298 q 380 273 380 275 q 367 248 370 254 q 359 235 363 241 q 354 224 357 229 q 349 214 351 220 m 574 1274 q 566 1257 574 1261 q 553 1246 559 1253 q 536 1227 548 1242 q 528 1219 532 1223 q 521 1211 525 1215 q 509 1202 514 1206 q 500 1195 505 1199 q 492 1186 496 1191 q 484 1177 488 1181 q 468 1166 472 1166 q 456 1155 461 1161 q 448 1146 452 1149 q 437 1143 439 1143 q 431 1139 434 1142 q 422 1132 426 1137 q 415 1126 418 1127 q 395 1126 406 1123 q 385 1132 388 1128 q 377 1141 381 1135 q 370 1145 374 1143 q 362 1150 366 1147 q 353 1157 358 1153 q 346 1165 349 1161 q 334 1171 338 1165 q 323 1176 331 1176 q 297 1200 307 1194 q 287 1210 289 1206 q 278 1214 285 1214 q 263 1230 267 1230 q 243 1251 259 1245 q 235 1260 240 1257 q 227 1270 229 1263 q 237 1276 233 1278 q 247 1275 241 1275 q 262 1276 254 1275 q 278 1275 270 1276 q 295 1274 288 1275 q 311 1274 302 1274 q 326 1276 319 1276 q 347 1276 336 1278 q 368 1274 357 1275 q 448 1274 407 1271 q 484 1276 467 1275 q 517 1276 500 1278 q 532 1275 526 1276 q 551 1276 540 1275 q 574 1274 563 1276 z "},"":{"ha":685,"x_min":19,"x_max":663,"o":"m 115 787 q 165 780 145 789 q 197 780 183 779 q 212 779 209 780 q 218 777 216 777 q 249 778 237 779 q 273 776 260 777 q 283 775 282 774 q 288 776 285 776 q 296 774 292 776 q 307 773 300 773 q 327 776 319 772 q 349 777 342 777 q 362 776 355 776 q 376 777 369 776 q 389 777 382 777 q 402 777 396 777 q 415 774 408 776 q 425 777 419 777 q 437 777 430 777 l 460 777 q 479 776 476 774 q 486 777 483 777 l 524 779 q 535 779 530 779 q 551 780 540 780 q 563 781 556 780 q 576 780 570 783 q 600 779 595 779 q 606 779 604 780 q 624 772 621 772 q 628 769 627 772 q 631 763 631 768 q 635 754 632 758 q 640 739 639 741 q 642 730 642 734 q 643 720 643 726 q 642 704 643 708 q 644 697 642 700 q 642 684 640 685 q 643 681 643 684 l 642 652 q 643 628 640 632 q 646 618 646 624 q 644 611 646 614 q 643 601 642 608 l 644 578 q 640 562 642 564 q 636 556 639 559 q 635 548 635 552 q 631 541 635 544 q 621 526 621 529 q 618 521 621 524 l 600 499 l 589 487 q 576 477 576 477 q 566 469 568 471 q 562 465 564 468 q 543 449 551 454 q 531 441 532 444 q 528 439 530 439 q 521 434 522 439 q 514 430 519 429 q 506 420 506 422 q 503 418 506 419 q 484 404 490 410 q 479 398 481 401 q 473 392 476 395 q 456 377 461 381 q 442 362 445 368 q 429 354 435 354 q 416 342 416 345 q 412 339 415 340 l 400 330 q 386 318 389 320 q 380 313 382 316 q 370 307 374 311 q 362 300 365 304 q 355 295 358 298 q 349 289 351 292 q 330 274 336 277 q 321 263 323 264 q 320 258 320 262 q 309 252 313 255 q 301 245 305 248 q 291 234 293 236 q 288 229 289 232 q 279 213 279 214 q 277 208 278 212 q 284 193 281 193 q 293 191 288 194 q 314 189 311 187 q 323 189 317 190 q 347 187 338 186 q 362 189 355 189 q 370 189 366 190 q 378 189 373 189 q 387 189 382 189 q 396 189 392 190 q 404 187 400 189 q 414 186 408 186 q 431 186 422 184 q 446 189 439 187 q 475 188 467 186 q 496 190 484 190 q 508 191 502 191 q 517 190 514 190 q 530 193 524 190 q 543 194 537 195 q 567 200 560 197 q 581 206 574 203 q 596 208 591 209 q 602 213 601 208 q 620 213 609 210 q 640 220 633 220 q 662 208 659 214 q 663 199 663 205 q 663 187 662 193 q 661 175 661 183 q 659 160 661 167 q 657 144 659 151 q 654 133 655 138 q 654 119 656 119 q 652 117 651 119 q 643 100 648 106 q 642 92 643 96 q 640 83 642 88 l 637 68 q 635 56 635 60 q 633 50 635 53 q 628 29 628 34 q 627 18 628 24 q 623 7 624 8 q 620 4 621 7 q 610 -4 613 -3 q 605 -3 608 -5 q 591 -7 594 -5 q 585 -7 587 -8 q 566 -4 578 -3 l 548 -3 q 533 -3 541 -3 q 518 -3 525 -4 q 509 1 514 -1 q 498 3 505 3 q 486 1 491 3 q 477 0 480 0 q 469 -1 473 -1 q 461 0 465 0 q 439 -2 450 0 q 416 -4 427 -4 q 384 -5 393 -4 q 368 -7 374 -5 q 354 -7 354 -8 q 351 -5 354 -5 q 331 -6 340 -8 q 311 -8 321 -4 q 302 -6 307 -5 q 292 -7 298 -7 q 286 -6 289 -7 q 277 -7 282 -5 q 260 -8 260 -7 q 256 -8 259 -9 q 249 -9 254 -8 q 241 -9 244 -9 q 228 -11 232 -9 q 218 -14 224 -12 q 194 -11 201 -12 q 180 -9 187 -9 q 169 -11 174 -9 q 156 -12 164 -12 q 140 -11 144 -11 q 127 -12 133 -11 q 117 -8 122 -12 q 100 -9 106 -14 q 85 3 94 -4 q 77 12 76 11 q 76 15 77 14 q 68 28 69 24 q 65 35 66 33 q 61 50 64 45 l 61 73 q 62 89 61 85 q 62 95 62 92 q 61 119 64 107 q 58 141 61 133 q 54 155 54 149 q 56 168 54 161 q 57 182 58 175 q 54 199 53 197 q 52 206 54 202 q 54 216 54 210 q 56 227 54 221 q 61 234 58 231 q 64 243 64 237 q 71 250 68 245 q 76 258 73 254 q 89 274 87 273 q 94 278 91 275 q 102 287 102 285 q 106 292 103 289 q 121 304 118 301 q 127 311 123 308 q 134 317 130 315 q 138 326 137 319 q 152 335 151 335 q 156 338 153 335 l 176 353 q 183 358 179 355 q 190 363 187 361 q 196 370 193 366 q 201 377 199 373 q 208 381 206 378 q 213 387 210 384 q 224 397 222 396 q 241 413 237 410 q 247 422 244 416 q 257 430 254 425 q 269 438 260 435 q 275 444 271 442 q 281 450 278 446 q 291 463 289 461 q 296 468 293 465 q 302 473 298 471 q 308 479 305 476 q 328 494 321 487 q 340 509 334 502 q 354 517 351 514 q 368 533 362 530 q 378 544 374 540 q 390 553 384 551 q 399 563 396 556 q 382 570 392 570 q 366 568 369 567 q 361 568 363 568 q 353 568 357 568 q 345 567 349 567 q 321 566 328 566 q 311 567 315 567 q 302 566 307 567 q 294 566 298 566 l 279 566 q 263 564 264 563 q 259 564 262 564 q 244 562 245 560 q 241 560 243 563 q 223 560 227 562 q 216 559 220 559 q 209 558 213 557 q 201 559 205 559 q 193 558 197 557 q 186 557 190 559 q 159 551 168 552 q 144 548 151 551 q 117 542 123 545 q 102 540 111 538 l 85 540 q 73 541 79 540 q 61 541 68 543 q 49 553 49 552 q 40 574 41 567 q 34 587 39 582 q 30 606 31 602 q 27 629 27 623 q 28 649 30 647 q 23 654 26 651 q 24 665 24 663 q 23 669 23 666 q 23 686 24 682 q 20 694 22 689 q 20 703 19 700 q 22 711 22 705 q 22 718 23 715 q 23 726 22 722 q 31 758 31 746 q 37 764 34 762 q 42 770 41 766 q 76 780 58 773 q 109 784 94 787 l 115 787 m 533 1038 q 526 1021 533 1025 q 513 1010 518 1017 q 495 991 507 1006 q 488 983 491 987 q 480 975 484 979 q 469 966 473 970 q 460 959 464 963 q 452 950 456 955 q 444 941 448 945 q 427 930 431 930 q 416 919 420 925 q 407 910 411 913 q 396 907 399 907 q 391 903 393 906 q 381 896 385 901 q 374 890 377 891 q 354 890 365 887 q 344 896 347 892 q 336 905 340 899 q 330 909 334 907 q 321 914 326 911 q 313 921 317 917 q 305 929 308 925 q 294 935 297 929 q 282 940 290 940 q 256 964 266 958 q 246 974 248 970 q 237 978 244 978 q 222 994 227 994 q 202 1015 218 1009 q 194 1024 199 1021 q 186 1034 189 1027 q 197 1040 193 1042 q 206 1039 201 1039 q 221 1040 213 1039 q 237 1039 229 1040 q 254 1038 247 1039 q 270 1038 262 1038 q 285 1040 278 1040 q 306 1040 296 1042 q 327 1038 316 1039 q 407 1038 366 1035 q 443 1040 426 1039 q 476 1040 460 1042 q 491 1039 486 1040 q 511 1040 499 1039 q 533 1038 522 1040 z "},"":{"ha":987,"x_min":23,"x_max":962,"o":"m 252 396 q 238 396 245 395 q 222 397 231 397 q 214 396 218 397 q 205 395 210 395 q 189 392 198 392 q 170 391 180 392 q 157 391 167 389 q 142 392 148 392 q 132 393 137 393 q 122 395 127 393 q 107 410 107 406 q 104 418 107 414 q 109 441 107 429 q 111 468 110 454 q 112 481 111 475 q 113 496 113 488 q 113 513 113 511 q 114 517 114 514 q 113 541 113 526 q 115 566 114 555 q 117 587 117 578 q 117 605 117 597 q 119 618 118 612 q 121 631 119 624 q 121 660 122 646 q 122 689 121 674 q 122 713 121 705 q 123 731 123 722 q 123 758 123 745 q 122 785 122 770 l 122 811 q 121 823 121 818 q 121 836 122 829 q 103 835 113 837 q 81 833 94 833 q 72 832 77 833 q 61 831 66 831 q 45 833 45 833 q 37 842 38 836 q 30 853 37 849 q 35 882 23 869 q 49 901 46 897 q 54 909 52 905 q 65 921 65 920 q 68 924 65 922 q 75 937 73 936 q 76 939 76 937 q 80 945 79 941 q 84 952 81 949 q 94 967 91 960 q 113 997 102 986 q 120 1000 118 998 q 127 1002 122 1001 q 144 1004 141 1006 q 159 1003 157 1004 q 163 1002 160 1002 q 182 1003 179 1002 q 190 1004 186 1004 q 219 1003 210 1002 q 233 1001 228 1004 l 243 989 q 249 969 250 974 q 250 960 248 964 l 250 940 q 249 925 250 933 q 247 910 248 917 q 248 889 245 899 q 248 865 250 879 q 245 826 244 838 q 244 802 245 814 q 245 752 244 776 q 244 705 247 728 q 242 691 241 693 q 243 686 243 689 q 243 674 243 680 q 244 662 243 669 q 243 650 244 655 q 243 637 243 644 q 243 606 243 623 q 244 574 243 590 q 245 559 244 567 q 245 543 245 552 q 247 527 247 534 q 248 511 247 519 q 250 496 250 505 q 252 481 251 488 q 254 467 254 475 q 255 453 254 460 q 256 438 255 446 q 256 423 256 430 q 256 410 256 416 q 252 396 256 403 m 808 997 q 807 985 811 990 q 800 974 803 979 q 784 947 792 956 q 777 942 780 944 q 772 937 774 940 q 760 909 765 917 q 751 891 754 902 q 739 879 741 882 q 735 873 738 876 q 728 863 730 867 q 722 856 726 859 q 707 834 712 842 q 696 812 699 823 q 685 797 686 799 q 681 792 684 795 q 663 766 671 774 q 661 759 663 762 q 655 753 658 755 q 644 735 647 738 q 637 715 637 722 q 628 703 629 705 q 624 700 627 701 q 616 683 618 685 q 613 678 614 681 q 607 665 609 667 q 604 661 605 663 q 594 647 594 647 l 581 621 q 570 605 576 614 l 560 589 q 554 581 557 585 q 552 572 551 578 q 541 561 543 562 q 538 557 540 560 q 529 537 532 543 q 521 526 522 530 q 517 519 519 522 q 500 499 510 509 q 496 489 499 492 q 491 481 494 486 q 481 464 484 468 q 476 453 479 460 q 471 446 473 450 q 467 439 469 442 q 457 423 458 427 q 453 416 456 419 q 446 401 448 401 q 446 397 445 400 q 435 387 437 388 q 431 382 433 385 q 423 368 427 372 q 416 356 415 357 q 415 354 416 355 q 407 340 411 347 q 401 323 403 332 q 396 316 397 320 q 392 309 395 312 l 382 296 q 378 288 380 293 q 372 281 376 283 q 363 269 363 270 q 362 264 363 267 q 355 253 355 255 q 351 248 354 251 q 346 239 346 243 q 343 232 346 235 q 336 222 335 224 q 334 220 336 220 q 319 199 323 202 q 313 191 316 195 q 308 182 309 183 q 304 179 307 182 l 294 164 q 279 142 283 148 q 274 130 275 137 q 266 117 269 127 q 254 106 258 113 q 245 94 251 100 q 228 66 233 75 q 212 41 214 46 q 205 27 205 30 q 197 18 198 20 q 194 16 197 16 q 186 -1 194 7 q 173 -4 179 -3 q 159 -5 167 -5 q 146 -2 152 -4 q 134 0 140 0 q 127 1 130 1 q 119 0 123 0 q 98 -3 102 -1 q 92 -5 95 -5 q 53 3 72 -9 q 58 30 52 19 q 76 53 69 41 q 88 72 83 71 q 99 88 98 85 q 106 101 104 99 q 111 106 109 103 q 127 123 125 121 q 136 136 134 132 q 141 144 138 141 q 151 157 151 153 q 152 163 151 160 q 159 173 157 168 q 164 183 161 178 q 176 199 174 197 q 180 206 178 202 q 197 232 190 224 q 208 245 208 244 q 209 248 208 247 q 218 265 217 263 q 221 270 220 267 q 231 288 229 283 q 235 294 232 292 q 244 309 241 307 q 250 316 247 312 l 255 331 q 266 345 264 345 q 269 347 267 346 q 279 359 275 358 l 292 377 q 297 389 297 388 q 298 392 297 391 q 312 412 304 404 q 317 418 315 416 q 323 423 320 420 q 325 429 323 426 q 330 437 327 433 q 333 444 332 441 q 336 450 334 448 q 348 465 346 461 q 353 473 350 469 q 361 486 359 481 q 365 494 362 490 q 372 505 369 498 q 380 518 376 511 q 387 530 388 529 q 388 533 387 532 q 395 547 395 547 q 401 560 399 560 q 412 578 408 572 q 418 589 415 583 q 425 601 425 601 q 427 602 426 601 q 437 621 435 617 q 442 629 439 625 q 450 644 449 640 q 454 650 452 647 q 465 663 463 661 q 473 676 473 675 q 475 678 473 677 q 483 696 481 694 l 494 707 q 497 715 495 711 q 502 726 499 719 q 511 743 510 739 q 514 749 511 746 q 520 757 518 753 q 524 765 522 761 q 536 783 533 777 q 564 817 557 804 q 569 823 567 819 q 574 830 571 827 q 582 848 578 844 q 592 860 591 859 q 595 864 593 861 q 606 882 601 878 q 612 892 610 886 q 624 903 616 895 q 633 921 625 910 l 643 937 q 650 951 650 951 q 658 963 655 959 q 661 972 661 967 q 669 976 667 972 q 673 982 670 979 q 685 995 682 994 q 690 997 688 996 q 705 1001 696 1001 q 729 998 724 1000 q 738 997 734 997 q 747 997 743 996 q 757 1000 751 998 q 770 1000 764 1001 q 784 998 777 998 q 798 1000 791 998 q 808 997 804 1002 m 692 125 l 739 123 q 774 123 757 123 q 806 119 791 122 q 812 121 808 121 q 821 122 815 121 q 838 125 829 125 q 857 127 846 126 q 870 127 864 127 q 882 130 876 127 q 893 134 891 133 q 898 134 895 134 q 907 136 902 136 q 916 137 911 136 q 931 142 928 141 q 939 144 935 144 q 958 142 948 148 q 960 130 962 136 q 958 122 958 125 q 955 112 956 117 q 951 100 954 107 q 945 75 947 79 q 943 55 943 58 q 941 47 943 52 q 938 27 939 33 q 935 16 937 22 q 926 3 926 3 q 911 -4 914 -4 q 903 -3 907 -4 q 871 1 884 1 q 845 3 863 3 q 814 4 827 4 q 804 3 808 4 q 792 1 799 1 q 774 1 783 1 q 757 0 766 1 l 713 0 q 703 -1 708 0 q 692 -1 697 -1 l 667 -1 q 656 -3 661 -3 q 646 -5 652 -4 q 631 -6 632 -5 q 627 -7 629 -7 q 612 -8 620 -8 q 598 -8 605 -8 q 578 -9 587 -9 q 563 -4 570 -8 q 553 8 556 0 q 551 38 551 27 q 548 54 551 46 q 547 72 545 62 q 549 87 551 83 q 548 94 548 91 l 548 109 q 547 121 548 115 q 545 133 545 126 q 551 151 547 141 q 557 164 555 161 q 570 176 567 174 q 575 182 572 179 q 586 191 583 187 q 593 198 589 195 q 610 214 597 206 q 617 220 613 217 q 624 227 621 224 l 636 237 q 654 251 650 247 q 663 259 659 255 q 680 271 677 270 q 685 274 682 271 q 699 286 697 283 q 703 290 700 288 q 720 301 716 297 q 738 311 732 309 q 749 316 743 313 q 762 328 755 321 q 776 342 769 335 q 795 357 791 353 q 803 365 799 361 q 813 379 811 376 q 818 385 815 382 q 823 400 823 399 q 823 404 822 401 q 826 412 825 408 q 829 422 827 416 q 829 431 829 426 q 827 441 829 437 q 823 458 825 456 q 818 473 818 471 q 804 485 812 480 q 787 495 796 490 l 766 500 l 745 502 q 732 498 734 498 q 727 496 730 498 q 709 486 715 488 q 703 478 707 483 q 697 469 700 473 q 688 458 689 463 q 685 449 688 453 q 679 435 680 435 q 678 434 678 435 q 671 417 674 425 q 661 404 667 410 q 648 403 654 404 q 636 404 643 401 q 629 408 633 406 q 621 414 625 411 q 611 419 613 418 q 605 423 609 420 q 586 437 591 429 q 573 448 575 446 q 568 453 571 450 q 555 468 557 463 q 550 475 552 472 q 547 487 548 479 q 549 505 547 503 q 552 510 551 507 q 563 528 555 517 q 569 534 566 530 q 575 540 572 537 q 586 552 578 544 q 601 566 590 557 q 620 579 616 578 q 631 586 631 585 q 633 587 631 587 q 644 593 642 591 q 648 597 646 594 q 658 602 654 600 q 670 606 662 604 q 677 611 673 609 q 685 616 681 613 q 694 617 689 617 q 705 620 700 617 q 728 625 726 624 q 749 628 739 628 q 757 627 753 628 q 765 627 761 627 q 773 628 769 627 q 783 628 777 629 q 797 625 789 628 q 811 620 804 623 q 819 617 815 617 q 827 614 823 617 q 836 609 834 606 q 842 609 838 612 l 859 594 q 871 587 869 587 q 873 586 872 587 q 886 574 878 582 q 901 555 898 560 q 906 545 903 551 q 917 528 917 532 q 920 519 917 524 q 929 496 929 505 q 935 478 935 483 q 939 469 936 473 q 942 457 943 458 q 943 453 941 456 q 948 430 948 437 q 949 415 948 423 q 949 401 949 408 q 948 387 949 393 l 940 362 q 936 351 937 357 q 932 342 935 346 q 922 320 926 331 q 910 302 917 309 q 902 295 906 298 q 892 288 898 292 q 885 281 890 283 q 876 274 880 278 l 865 263 q 849 248 853 250 q 823 228 833 237 q 817 223 821 225 q 811 218 814 221 q 798 209 804 213 q 784 198 791 205 q 771 189 773 190 q 766 186 769 187 q 749 172 753 175 q 743 165 746 168 q 733 160 735 161 q 728 157 731 159 q 715 146 720 152 q 699 134 703 136 q 692 125 694 132 z "},"":{"ha":925,"x_min":23,"x_max":899,"o":"m 252 397 q 238 397 245 395 q 222 399 231 399 q 205 395 212 396 q 189 393 198 393 q 170 392 180 392 q 157 391 167 389 q 142 393 148 392 q 122 396 136 393 q 107 411 107 407 q 104 418 107 415 q 109 444 107 431 q 111 468 110 456 q 112 482 111 475 q 113 498 113 490 q 113 514 113 513 q 114 517 114 515 q 113 541 113 526 q 115 567 114 555 q 117 588 117 579 q 117 606 117 597 q 119 618 118 613 q 121 631 119 624 q 121 660 122 646 q 122 689 121 674 q 122 713 121 705 q 123 731 123 722 q 123 759 123 746 q 122 787 122 772 l 122 812 q 121 825 121 819 q 121 837 122 830 q 103 836 113 838 q 81 833 94 834 l 61 833 q 45 833 50 833 q 37 844 38 837 q 30 854 37 850 q 35 883 23 871 q 49 902 46 898 q 54 909 52 906 q 65 922 65 921 q 68 925 65 922 q 75 938 73 937 q 76 940 76 939 q 84 954 81 948 q 94 967 92 964 q 102 985 98 979 q 113 998 107 991 q 120 1000 118 998 q 127 1002 122 1002 q 140 1005 138 1004 q 144 1005 142 1006 q 159 1004 157 1005 q 163 1002 160 1002 q 182 1004 179 1002 q 190 1005 186 1005 q 219 1004 210 1004 q 233 1001 228 1004 l 244 989 q 249 970 250 975 q 250 962 248 966 l 250 941 q 249 926 250 935 q 247 910 248 918 q 248 890 245 901 q 248 867 250 879 q 247 859 248 863 q 245 852 245 856 q 245 827 244 840 q 244 803 245 815 q 245 753 244 777 q 244 705 247 730 q 242 692 241 693 q 243 688 243 690 q 243 675 243 681 q 244 663 243 670 q 243 651 244 656 q 243 639 243 646 q 243 607 243 624 q 244 575 243 590 q 245 559 244 567 q 245 543 245 552 q 247 528 247 536 q 248 513 247 519 q 250 498 250 506 q 252 483 251 491 q 254 469 254 476 q 255 454 254 461 q 256 440 255 448 q 256 425 256 433 q 256 411 256 418 q 252 397 256 404 m 830 997 q 829 985 833 990 q 822 975 825 981 q 804 948 812 955 q 794 932 795 935 q 793 926 793 929 q 782 910 788 918 q 773 891 776 902 q 757 873 762 882 q 749 864 751 868 q 745 857 747 860 q 734 840 735 844 q 730 834 732 837 q 718 814 720 823 q 711 800 711 810 l 700 788 q 692 776 694 780 q 686 768 689 772 q 684 760 686 762 q 678 753 681 757 q 667 735 670 739 l 659 716 q 650 704 651 707 q 646 700 648 701 q 637 684 639 686 q 635 680 636 682 q 629 667 631 669 q 627 662 628 665 l 620 648 q 607 631 609 635 q 602 623 605 627 q 597 614 600 618 q 591 606 595 610 l 582 590 q 576 582 579 586 q 574 572 572 578 q 564 562 566 563 q 562 557 563 560 q 554 542 555 544 q 552 537 553 540 q 537 521 541 525 q 530 509 534 515 q 521 499 526 503 q 514 483 518 490 q 498 454 505 463 q 494 448 496 452 q 488 439 491 444 q 475 416 480 427 q 468 402 469 403 q 468 399 467 401 q 457 387 458 389 q 454 382 456 385 l 446 369 q 439 357 438 358 q 438 354 439 355 q 429 340 433 347 q 422 324 425 332 q 418 317 419 321 q 414 311 416 313 q 409 304 411 308 q 404 298 407 301 q 399 289 401 293 q 395 282 397 285 q 387 269 387 270 q 385 266 387 267 q 377 254 378 256 q 373 248 376 251 q 367 239 368 243 q 363 232 366 236 q 353 217 354 217 q 350 214 351 217 q 336 193 345 203 l 327 179 q 319 168 320 168 q 316 165 317 167 q 301 144 305 149 q 294 132 297 138 q 288 118 290 129 q 277 107 281 114 q 269 94 274 100 q 255 76 258 80 q 250 68 252 72 q 233 42 236 47 q 225 27 228 33 q 214 6 217 9 q 209 -1 212 3 q 195 -3 202 -1 q 180 -4 187 -5 q 168 -1 174 -3 q 156 1 163 1 q 150 1 153 1 q 141 0 146 0 q 134 1 137 0 q 126 0 130 1 q 92 -5 103 -8 q 75 4 81 -1 q 80 30 73 20 q 91 41 87 37 q 98 53 95 46 q 101 61 100 57 q 103 68 102 65 q 115 79 114 77 q 122 94 122 92 q 125 98 122 95 l 137 111 q 144 120 141 118 q 151 125 148 122 q 159 137 157 133 q 164 144 161 141 q 172 157 172 153 q 174 163 172 160 q 186 184 180 172 q 197 201 195 198 q 201 208 199 205 l 216 228 q 225 239 224 239 q 228 243 227 240 q 239 259 233 255 q 245 276 244 274 q 247 281 245 278 q 252 288 251 285 q 256 294 254 292 q 267 310 264 307 q 271 317 269 313 q 278 331 278 327 q 283 340 283 338 q 285 345 283 342 q 296 356 293 354 q 301 361 298 358 q 313 377 312 377 q 320 391 320 389 q 321 393 320 392 q 335 414 327 403 q 347 431 345 427 q 351 438 349 434 q 355 445 354 441 q 358 452 355 449 q 374 473 372 468 q 384 486 382 483 q 388 494 385 490 q 395 505 392 498 q 401 519 399 513 q 409 530 410 529 q 410 534 408 532 q 415 546 414 545 q 416 548 416 547 q 422 563 422 563 q 434 578 430 574 q 441 590 438 583 q 450 602 449 601 q 459 622 457 617 q 464 631 461 627 q 476 651 473 646 q 486 665 486 663 q 494 675 491 673 q 498 680 496 677 q 505 694 505 693 q 506 697 505 694 q 519 716 517 712 q 524 726 521 720 q 532 744 532 741 q 536 750 533 747 q 542 758 540 754 q 545 765 544 761 q 551 771 549 768 q 556 777 553 774 l 567 792 q 577 804 572 799 q 586 817 582 810 q 591 824 589 821 q 595 831 593 827 q 604 849 601 846 q 618 865 613 860 q 628 882 624 878 q 633 892 632 886 q 640 898 636 895 q 646 903 643 901 q 649 913 647 909 q 654 921 651 917 q 661 935 661 930 q 670 947 667 941 q 681 964 678 960 q 684 972 684 967 q 690 977 689 974 q 694 983 692 981 q 707 996 704 996 q 712 998 709 996 l 728 1001 q 750 1000 746 1001 q 760 997 754 998 q 769 998 765 997 q 779 1001 773 1000 q 791 1000 785 1001 q 804 1000 798 1000 q 819 1001 811 1000 q 830 997 826 1002 m 842 288 q 865 288 853 285 q 887 286 878 292 q 896 277 894 278 q 898 273 898 275 q 897 262 899 269 q 895 251 895 256 l 895 233 q 895 183 892 208 q 897 170 895 176 q 895 160 898 164 q 875 152 884 152 q 859 153 865 152 q 844 146 842 152 q 844 140 845 140 q 842 126 840 137 q 845 109 845 115 q 846 97 846 103 q 845 84 845 91 q 848 66 846 75 q 850 50 850 57 q 852 39 852 45 q 852 27 852 33 q 851 18 852 23 q 850 9 850 14 q 833 -7 848 -7 q 812 -8 819 -8 q 804 -7 808 -8 q 798 -7 800 -7 q 788 -9 792 -8 q 779 -9 784 -9 q 755 -8 761 -9 q 747 -7 750 -7 q 728 -8 732 -9 q 722 -7 724 -7 q 708 4 708 3 q 709 15 709 11 q 709 23 708 19 l 709 46 l 709 68 l 709 95 q 713 133 713 121 q 712 157 712 145 q 694 160 703 160 q 675 161 685 160 q 650 163 665 163 q 623 164 635 164 q 594 163 604 164 q 576 161 585 163 q 550 161 556 160 q 537 161 544 161 q 528 177 529 176 q 525 179 526 178 q 513 198 515 193 q 506 212 511 203 q 498 225 498 225 q 488 239 490 239 q 487 240 487 239 q 480 254 483 250 q 476 271 475 262 q 477 284 476 281 q 477 290 479 288 q 487 302 484 296 q 495 315 490 308 q 507 330 503 327 q 513 338 510 334 q 524 353 517 346 q 530 363 526 359 q 538 373 534 368 q 545 385 545 384 q 547 387 545 385 q 557 399 557 399 q 568 412 568 411 q 568 415 567 414 q 578 425 576 425 q 581 427 579 425 q 593 445 589 441 q 601 456 597 450 q 610 468 605 461 q 617 478 616 476 q 620 483 618 480 q 633 503 628 498 q 643 519 639 515 q 652 533 652 533 q 660 545 659 540 q 663 553 661 549 q 674 567 673 564 q 680 575 677 571 q 686 585 684 579 q 713 598 699 600 q 738 597 727 597 q 751 597 745 597 q 766 598 758 597 q 779 600 776 601 q 784 600 781 600 q 800 600 800 600 q 802 601 800 601 q 814 602 812 601 q 819 601 817 602 q 829 596 823 600 q 836 590 834 593 q 835 556 836 568 q 833 533 834 544 q 832 492 831 514 q 834 448 833 471 q 834 421 836 434 q 834 396 833 408 q 836 380 836 381 q 837 377 837 380 q 837 329 836 351 q 842 288 838 307 m 708 404 q 699 393 700 393 q 696 389 697 392 q 687 376 688 377 q 685 373 686 374 q 673 358 674 361 q 670 353 673 355 q 661 344 663 345 q 658 340 659 343 q 648 326 648 327 q 646 323 647 324 q 640 317 643 319 q 635 312 637 315 q 624 294 624 298 q 643 285 640 285 l 661 285 q 672 284 667 285 q 681 283 677 283 q 699 286 690 283 q 713 285 707 288 q 715 307 716 294 q 713 330 713 320 q 713 358 712 342 q 713 387 715 374 q 712 397 713 392 q 711 406 711 401 l 708 404 z "},"":{"ha":298,"x_min":23,"x_max":256,"o":"m 252 392 q 238 391 245 389 q 222 393 231 393 q 214 392 218 393 q 205 389 210 391 q 189 387 198 388 q 170 387 180 387 q 157 386 167 385 q 142 388 148 387 q 122 391 136 388 q 107 406 107 401 q 104 412 107 410 q 109 437 107 425 q 111 464 110 450 q 112 477 111 471 q 113 491 113 484 q 113 509 113 507 q 114 511 114 510 q 113 535 113 521 q 115 562 114 549 q 117 583 117 574 q 117 601 117 591 q 121 625 118 614 q 121 654 122 640 q 122 684 121 667 q 122 709 121 700 q 123 726 123 718 q 123 753 123 741 q 122 780 122 766 l 122 807 q 121 819 121 814 q 121 831 122 825 q 103 831 113 833 q 81 829 94 829 q 72 827 77 827 q 61 827 66 827 q 45 829 45 829 q 37 838 38 831 q 30 849 37 845 q 35 878 23 865 q 49 896 46 891 q 54 905 52 901 q 65 916 65 916 q 68 920 65 917 q 75 932 73 932 q 76 935 76 933 q 84 948 81 943 q 94 963 91 956 q 102 981 98 975 q 113 993 107 986 q 120 995 118 993 q 127 997 122 997 q 144 1000 141 1002 q 159 998 157 1000 q 163 997 160 997 q 190 1000 184 1000 q 219 999 210 998 q 233 997 228 1000 l 244 983 q 249 965 250 970 q 250 956 248 960 l 250 936 q 249 921 250 929 q 247 905 248 913 q 248 884 245 894 q 248 861 250 873 q 247 854 248 857 q 245 846 245 850 q 245 822 244 834 q 244 798 245 810 q 245 748 244 772 q 244 701 247 724 q 242 686 241 688 q 243 682 243 685 q 243 670 243 675 q 244 658 243 665 q 243 646 244 651 q 243 633 243 640 q 243 602 243 618 q 244 570 243 585 q 245 554 244 563 q 245 538 245 545 q 247 522 247 530 q 248 507 247 514 q 250 492 250 500 q 252 477 251 484 q 254 463 254 471 q 255 449 254 456 q 256 434 255 442 q 256 419 256 426 q 256 406 256 412 q 252 392 256 399 z "},"":{"ha":1034,"x_min":27,"x_max":1006,"o":"m 65 1010 q 74 1011 69 1010 q 83 1010 79 1012 q 96 1009 90 1010 q 109 1008 102 1008 l 133 1005 l 161 1005 q 173 1004 168 1005 q 184 1004 178 1004 q 210 1006 197 1005 q 233 1006 222 1008 q 250 1004 241 1005 q 267 1002 258 1002 q 285 1003 283 1002 q 289 1004 286 1004 q 320 1003 304 1002 q 355 1004 336 1004 l 370 1004 q 399 1001 385 1005 q 404 995 401 998 q 410 989 407 991 q 412 979 411 985 q 416 971 414 974 q 416 901 415 935 q 418 876 416 890 q 414 856 420 863 q 407 846 408 846 q 403 844 406 846 q 397 834 397 836 q 393 831 396 833 l 381 822 q 375 817 378 819 q 368 812 372 815 q 359 804 361 806 q 354 799 357 802 q 332 777 336 784 l 320 766 q 310 760 312 762 q 305 754 308 757 q 327 745 323 747 q 338 741 331 743 q 354 731 349 735 q 377 709 368 718 q 395 692 387 701 q 408 674 407 675 q 420 656 418 662 q 425 644 422 651 q 429 633 427 637 q 430 625 430 629 q 434 604 433 610 q 437 595 435 598 q 437 587 437 591 q 438 578 438 582 q 435 557 438 571 q 433 546 433 552 q 431 534 433 540 q 425 511 426 514 q 419 505 422 507 q 414 498 416 502 q 411 485 414 490 q 404 475 408 480 l 393 458 q 387 449 391 453 q 378 441 382 445 q 356 422 363 426 q 342 415 349 419 q 320 410 324 410 q 312 407 316 410 q 298 402 302 401 q 292 401 294 403 q 269 398 273 400 q 258 396 264 396 q 244 393 245 395 q 240 392 243 392 l 221 393 l 199 393 q 191 395 195 393 q 183 396 187 396 q 164 399 172 399 q 146 403 156 400 q 127 407 133 407 q 113 418 118 412 q 95 429 103 423 q 80 438 83 438 q 70 450 71 450 q 69 450 69 449 q 50 468 54 464 q 41 476 46 472 q 33 488 38 484 q 27 502 27 491 q 39 520 34 515 q 49 529 45 525 q 64 542 62 540 q 68 547 65 544 q 80 562 77 556 q 87 568 83 564 q 95 575 92 572 q 106 583 102 581 q 117 583 110 586 q 129 567 126 570 q 138 559 136 563 q 142 553 141 556 l 159 541 q 172 534 172 534 q 186 525 182 526 q 201 521 193 524 q 209 519 205 519 q 217 518 213 519 q 243 515 235 513 q 259 519 252 517 l 273 526 q 285 535 283 533 q 289 540 286 537 q 295 547 292 543 q 301 557 298 552 q 309 572 308 571 q 309 574 309 572 l 311 601 q 306 616 309 612 q 298 627 302 620 l 285 636 q 276 640 281 639 q 269 644 271 642 q 258 648 263 646 q 250 652 254 651 q 228 656 236 654 q 208 659 209 659 q 193 659 198 658 q 184 658 189 659 q 172 656 174 655 q 170 656 171 656 l 142 656 q 132 668 133 665 q 130 674 132 671 q 127 680 129 677 q 123 688 126 684 q 119 701 121 697 q 114 708 117 704 q 109 730 111 719 q 108 741 106 739 q 107 747 110 743 q 121 757 115 754 q 132 765 129 762 q 140 770 136 768 q 155 781 151 779 q 163 785 159 783 q 172 793 170 792 q 178 796 175 793 q 187 804 184 803 q 193 807 190 806 q 208 820 206 819 q 213 823 210 821 q 236 841 229 834 q 251 854 243 848 q 266 865 264 864 q 278 874 277 875 q 281 875 279 873 q 287 880 283 878 q 292 888 290 883 q 280 891 286 891 q 267 891 274 891 q 252 892 259 891 q 239 892 245 892 q 225 891 232 892 q 212 890 218 890 q 199 890 205 890 q 186 891 193 891 q 165 890 175 891 q 144 888 155 890 q 131 884 134 884 q 123 883 127 884 q 102 878 104 879 q 86 872 90 872 q 80 871 83 872 q 71 866 75 868 q 62 865 68 864 q 54 886 53 879 q 53 903 54 894 q 51 922 50 917 q 52 935 52 928 q 50 954 49 949 q 50 960 50 958 q 50 968 50 964 q 49 975 49 972 q 53 984 50 981 q 58 993 56 987 q 60 1000 60 997 q 62 1008 60 1004 l 65 1010 m 929 987 q 927 976 932 981 q 920 966 922 971 q 903 939 911 947 q 891 917 891 925 q 880 901 886 909 q 872 883 875 892 q 854 865 860 869 q 848 854 850 859 q 844 848 846 850 q 834 836 834 836 q 825 823 825 825 q 815 804 818 815 q 808 791 811 803 q 800 781 800 783 q 798 779 799 780 q 791 766 793 770 q 785 758 788 762 q 782 751 785 754 q 776 743 779 747 q 768 731 768 732 q 765 727 768 730 q 758 711 757 712 q 757 707 758 709 q 749 694 750 697 q 745 692 747 692 q 732 670 738 675 q 726 652 728 658 q 716 639 718 640 q 701 613 707 624 q 690 597 697 604 l 681 581 q 675 572 678 576 q 673 564 671 568 q 661 551 663 553 q 658 547 659 549 q 652 532 652 534 q 650 529 651 530 q 641 517 643 521 q 636 511 639 514 q 629 500 633 506 q 620 488 625 494 q 616 480 618 484 q 612 473 614 476 q 601 455 604 460 q 595 445 598 450 q 592 438 594 442 q 587 430 590 434 q 574 407 579 418 q 566 393 567 393 q 566 389 566 392 q 555 378 556 380 q 553 372 555 376 q 544 359 544 359 q 534 345 536 346 q 526 331 530 338 q 521 313 522 324 q 508 295 510 298 q 503 289 506 292 q 498 279 499 283 q 494 273 496 275 q 484 260 484 262 q 483 255 484 258 q 475 244 476 247 q 471 239 473 241 q 467 231 468 236 q 463 222 465 227 q 452 208 453 208 q 449 205 450 208 q 441 191 444 194 q 435 183 438 187 q 428 174 430 175 q 425 170 426 172 q 416 158 418 159 q 414 156 415 157 q 407 142 408 146 q 400 134 404 138 q 393 122 396 129 q 385 109 388 118 q 375 97 378 104 q 366 83 372 90 q 354 67 357 72 q 349 58 351 62 q 339 46 343 50 q 332 33 334 38 q 324 19 327 22 q 319 10 319 12 q 315 7 319 8 q 307 -9 312 -4 q 293 -12 300 -11 q 279 -14 286 -14 q 267 -10 273 -12 q 254 -8 260 -8 q 239 -9 244 -8 q 219 -12 222 -9 q 212 -15 216 -14 q 191 -14 201 -18 q 174 -5 180 -11 q 179 19 172 12 q 195 43 189 31 q 198 52 198 47 q 201 58 198 56 q 212 69 210 68 q 222 88 221 84 q 233 100 233 99 q 235 102 233 100 q 243 111 240 109 q 248 115 245 113 q 256 127 254 123 q 263 134 259 132 q 270 146 270 142 q 273 153 270 151 q 280 165 278 160 q 285 175 282 170 q 300 197 294 189 l 313 218 q 327 233 324 232 q 338 251 334 247 q 343 267 343 264 q 345 271 343 269 q 355 286 350 281 q 364 300 362 297 q 369 308 366 304 q 376 318 377 316 q 377 321 374 320 q 382 330 381 328 q 384 335 382 332 q 394 347 391 345 q 400 351 397 350 q 412 366 407 366 q 418 381 418 380 q 419 384 418 382 q 431 404 426 397 q 438 410 435 408 q 444 414 441 412 q 452 435 452 430 q 456 442 453 439 q 468 457 465 453 q 472 465 471 461 q 481 477 480 473 q 484 483 481 480 q 492 496 488 488 q 500 510 496 503 l 507 525 q 515 538 513 536 l 521 553 q 532 569 528 564 q 538 581 536 574 q 548 595 548 594 q 558 612 556 608 q 563 621 560 617 q 571 635 570 631 q 575 642 572 639 q 585 655 585 654 q 591 665 590 662 q 594 670 593 669 q 602 685 602 684 q 604 688 602 686 q 618 707 616 703 q 623 715 620 711 q 631 734 629 731 q 633 741 632 738 q 641 748 639 745 q 644 755 643 751 l 656 772 q 675 795 670 789 q 685 807 681 800 q 689 814 688 811 q 693 822 690 818 q 703 838 700 836 q 715 856 713 853 q 726 873 722 869 q 732 883 731 876 q 739 888 735 886 q 745 894 742 891 q 748 904 746 899 q 753 913 750 909 q 761 927 760 926 q 762 929 762 928 l 773 945 q 778 954 776 949 q 783 964 780 959 q 800 985 795 977 q 814 991 812 991 l 838 993 q 849 990 845 991 q 859 987 853 989 q 868 989 864 987 q 878 991 872 990 q 890 991 884 993 q 903 990 897 990 q 917 991 910 990 q 929 987 924 993 m 948 288 q 972 289 959 286 q 994 286 985 292 q 1002 277 1001 278 q 1005 274 1004 277 q 1004 263 1005 269 q 1002 251 1002 258 l 1002 233 q 1002 209 1002 222 q 1002 183 1001 195 q 1004 170 1002 176 q 1004 160 1006 164 q 982 152 991 152 q 966 153 972 152 q 949 147 948 153 q 951 140 951 141 q 949 126 947 137 q 952 110 951 115 q 951 97 952 103 q 952 84 951 91 q 955 66 952 75 q 959 50 958 58 l 959 27 l 959 9 q 940 -7 954 -7 q 920 -8 926 -8 q 887 -9 898 -7 q 876 -9 878 -8 q 872 -9 875 -9 q 863 -8 868 -9 q 854 -7 857 -7 q 836 -7 840 -9 q 829 -5 831 -5 q 815 5 815 4 q 817 15 818 11 q 817 24 817 19 l 817 47 q 817 58 817 53 q 818 69 818 62 q 817 82 818 76 q 818 95 817 88 q 819 159 821 133 q 801 160 810 160 q 783 161 792 160 q 757 163 772 163 q 730 164 742 164 q 701 164 709 164 q 684 163 692 164 q 657 161 663 160 q 646 161 651 163 q 638 173 639 172 q 637 175 637 174 q 627 189 628 189 q 624 193 625 190 q 613 212 618 203 q 606 224 606 224 q 605 225 605 224 q 598 239 600 233 q 587 255 590 252 q 583 273 582 260 q 586 284 585 281 q 586 292 587 288 q 594 302 591 296 q 601 315 597 308 l 620 338 q 625 346 623 342 q 631 354 628 350 q 638 363 633 359 q 646 373 643 368 l 654 387 l 663 399 q 673 410 673 411 q 675 411 674 410 q 685 425 684 425 q 688 427 686 426 q 695 439 696 438 q 696 441 694 439 q 708 456 704 452 q 716 468 712 461 q 724 479 722 477 q 727 483 726 480 q 736 500 735 498 q 741 505 738 502 q 750 519 747 517 q 761 534 760 533 q 768 545 768 541 q 770 553 768 549 q 780 567 777 562 q 793 586 788 575 q 820 600 806 601 q 845 598 834 598 l 873 598 q 885 600 883 601 q 890 600 887 600 l 906 600 q 922 602 920 601 q 926 602 924 602 q 937 597 932 601 q 943 590 941 593 q 943 557 944 570 q 941 534 941 545 q 939 493 939 515 q 941 449 940 471 q 942 422 943 434 q 941 396 941 410 q 943 380 943 381 q 944 378 944 380 q 944 329 943 351 q 948 288 945 307 m 815 404 q 803 391 808 393 q 792 373 796 377 l 776 354 l 766 342 l 757 328 q 749 318 751 320 q 743 313 746 316 q 732 298 732 300 q 731 296 732 297 q 746 287 745 288 q 750 286 747 286 l 768 286 q 779 285 773 285 q 789 285 784 285 q 806 286 798 285 q 821 286 814 288 q 823 308 823 296 q 821 331 822 320 q 821 358 819 342 q 821 387 822 374 q 820 397 821 392 q 819 407 819 401 l 815 404 z "},"":{"ha":458,"x_min":27,"x_max":438,"o":"m 65 1002 q 74 1002 69 1001 q 83 1002 79 1002 q 96 1000 90 1001 q 109 998 102 998 q 125 998 121 1000 q 133 997 129 997 q 147 996 140 996 q 161 997 155 997 q 173 996 168 997 q 184 996 178 996 q 210 997 197 996 q 233 998 222 998 q 250 996 241 997 q 267 993 258 994 q 285 994 283 993 q 289 994 286 994 q 320 994 304 994 q 355 996 336 994 q 366 995 365 994 q 370 996 368 996 q 386 996 380 996 q 399 993 392 996 q 410 981 406 983 q 416 963 412 967 q 416 891 415 926 q 418 867 416 880 q 414 848 420 853 q 403 834 408 837 l 385 815 q 368 803 373 807 q 359 795 361 798 q 354 791 357 793 q 343 779 347 787 q 332 768 336 774 l 320 758 q 310 750 312 753 q 305 745 308 747 q 327 736 323 738 q 338 732 331 735 q 346 728 342 730 q 354 720 350 726 q 377 700 368 708 q 395 684 387 692 q 399 677 397 681 q 404 671 401 674 q 414 658 412 662 q 420 648 418 654 q 425 636 422 643 q 429 625 427 629 q 430 616 430 621 q 434 595 433 601 q 437 586 435 590 q 437 577 437 582 q 438 570 438 572 q 437 559 438 564 q 435 547 437 553 q 433 536 433 541 q 431 526 433 532 q 425 502 426 505 q 419 496 422 498 q 414 487 416 494 q 411 475 414 480 q 404 465 408 471 q 395 454 396 456 q 393 449 395 452 q 387 441 391 445 q 378 430 382 437 q 356 414 363 418 q 342 407 349 410 q 320 400 324 400 q 312 397 316 400 q 292 393 301 393 q 269 389 273 391 q 258 387 264 388 q 244 385 245 387 q 240 384 243 384 l 221 384 q 205 385 209 385 q 199 384 202 384 l 183 388 q 164 391 172 391 q 146 395 156 392 q 127 399 127 399 q 119 404 123 401 q 113 408 115 406 q 101 416 104 414 q 95 419 98 418 q 80 429 81 427 q 75 435 77 431 q 71 441 73 438 q 64 447 66 445 q 58 452 61 449 q 50 459 54 454 q 41 467 46 464 q 33 479 38 475 q 27 494 27 483 q 39 512 34 507 q 49 521 45 517 q 68 538 65 534 q 80 552 77 545 q 87 560 83 556 q 95 567 92 564 q 106 575 102 572 q 117 575 110 578 q 125 562 125 564 q 129 559 126 560 q 138 551 136 555 q 142 544 141 547 q 159 533 153 538 l 172 526 q 181 519 179 521 q 186 517 183 518 q 196 514 194 514 q 201 511 198 514 q 209 510 205 510 q 217 509 213 510 q 259 511 244 503 q 274 518 273 518 l 289 530 q 295 538 292 534 q 301 547 298 541 q 308 562 307 560 q 311 576 311 567 l 311 593 q 306 605 309 601 q 298 617 302 609 q 286 626 286 625 q 285 628 285 627 q 276 632 281 631 q 269 636 271 633 q 258 639 263 636 q 250 644 254 642 q 228 647 232 647 q 212 649 214 648 q 208 650 210 650 q 193 649 198 648 q 184 650 189 650 q 172 648 174 647 q 170 648 171 648 l 142 647 q 132 659 133 656 q 130 663 132 661 q 123 680 129 669 q 119 691 121 688 q 114 699 117 694 q 109 719 110 713 q 108 732 106 730 q 107 738 110 735 q 121 749 118 746 q 132 756 129 754 q 140 761 136 758 q 155 771 151 769 q 163 776 159 773 q 172 784 170 783 q 178 788 175 785 q 187 795 184 795 q 193 799 190 796 q 213 814 208 811 q 236 832 229 826 q 251 845 243 838 q 263 854 262 854 q 266 856 264 854 l 281 865 q 287 871 283 868 q 292 879 290 873 q 280 882 286 882 q 267 882 274 882 q 252 883 259 883 q 239 883 245 883 q 225 882 232 883 q 212 882 218 882 q 199 882 205 882 q 186 882 193 883 q 165 882 175 882 q 144 879 155 882 q 131 875 134 875 q 123 873 127 875 q 102 869 109 869 l 80 861 q 71 858 75 860 q 62 856 68 856 q 54 878 53 871 q 53 894 54 884 q 51 913 50 909 q 52 925 52 918 q 50 945 49 941 q 50 951 50 948 q 50 960 50 956 q 49 967 49 964 q 53 975 50 971 q 58 983 56 979 q 60 991 60 987 q 62 998 60 996 l 65 1002 z "},"":{"ha":463,"x_min":34,"x_max":449,"o":"m 180 515 l 228 515 q 262 514 245 514 q 294 510 279 514 q 300 513 297 513 q 309 514 302 513 q 346 518 326 515 q 359 519 353 519 q 370 521 365 519 q 387 526 381 524 q 395 526 391 526 q 404 528 400 526 q 420 533 416 532 q 427 536 423 534 q 446 533 438 538 q 448 522 449 528 q 445 514 446 517 q 444 503 444 509 q 441 491 444 498 q 436 472 435 475 q 435 467 437 469 q 431 447 431 450 q 430 439 431 444 q 423 410 427 419 l 415 396 q 392 391 401 388 q 370 394 374 395 q 359 395 365 393 q 334 396 351 396 q 302 396 317 396 q 292 395 297 396 q 281 395 286 395 q 263 394 273 393 q 245 393 254 395 q 224 393 235 392 q 201 393 213 393 q 180 391 194 393 q 168 391 174 391 q 156 391 161 392 q 134 388 148 391 q 114 385 122 388 l 85 385 q 50 389 64 382 q 41 403 41 401 q 39 421 39 418 q 39 429 38 425 q 37 446 39 438 q 37 464 35 454 q 39 478 39 475 q 38 484 38 481 l 38 499 q 35 511 37 506 q 35 525 34 517 q 39 542 37 532 q 45 555 42 552 l 64 572 q 75 582 72 578 q 81 589 77 586 q 89 596 84 593 q 98 602 94 600 q 105 609 102 605 q 113 617 109 613 q 125 628 123 627 q 144 642 138 637 q 153 648 149 646 q 167 659 164 658 q 172 662 170 659 q 187 675 186 673 q 191 678 189 677 l 210 690 q 227 700 221 699 q 236 704 232 701 q 251 716 244 709 q 266 730 258 723 q 283 745 279 741 q 292 753 288 749 q 301 766 300 764 q 305 772 302 769 l 311 792 q 316 808 316 803 q 317 817 317 812 q 316 827 316 822 q 312 845 313 842 q 307 857 308 854 q 305 860 307 859 q 293 871 301 867 q 275 880 285 876 l 254 886 l 233 887 q 216 882 218 883 q 203 873 205 873 q 198 872 201 873 q 184 856 193 867 q 177 844 178 849 q 174 834 176 840 q 168 821 168 822 q 167 819 167 821 q 159 805 163 812 q 149 792 156 798 q 137 791 142 792 q 125 792 132 789 q 118 795 122 792 q 110 802 114 799 q 95 810 100 807 q 78 818 80 815 q 73 823 76 821 q 57 841 61 833 q 43 854 46 849 q 37 872 38 861 q 38 890 37 888 q 41 895 39 892 q 52 913 45 906 q 64 926 60 921 q 81 943 77 940 q 91 949 85 947 q 103 962 100 960 q 109 964 106 963 q 126 975 126 975 q 147 987 142 985 q 159 991 152 989 q 165 994 161 991 q 172 998 170 997 q 182 1001 178 1001 q 194 1002 187 1001 q 201 1005 197 1004 q 209 1006 206 1006 q 226 1010 221 1009 q 237 1012 231 1012 q 245 1011 241 1012 q 254 1010 250 1010 q 262 1011 258 1010 q 271 1012 267 1012 q 286 1008 278 1010 q 300 1002 293 1005 q 308 1000 304 1001 q 316 997 312 1000 q 334 989 332 990 q 339 986 336 989 q 349 978 347 978 q 353 977 350 978 l 374 959 l 384 947 q 389 939 387 944 q 393 932 391 935 q 406 913 406 917 q 408 905 406 909 q 416 887 416 890 q 418 882 416 884 q 427 856 425 861 q 431 838 430 842 q 438 817 438 823 q 439 802 438 811 q 439 787 439 795 q 438 773 439 780 l 429 750 l 420 730 q 410 709 415 719 q 399 692 406 699 q 391 684 395 688 q 382 677 387 680 q 374 670 380 673 q 365 662 369 667 q 359 656 362 659 q 353 651 357 654 q 340 641 340 643 q 338 637 339 639 q 323 627 328 631 q 311 618 317 623 q 305 613 308 616 q 300 606 302 610 q 273 589 288 600 q 260 578 263 579 q 255 575 258 578 q 238 562 241 566 q 231 556 235 559 q 221 550 222 552 q 217 547 220 548 q 209 541 210 543 q 205 537 208 538 q 187 524 191 526 q 180 515 183 522 z "},"":{"ha":285,"x_min":69,"x_max":216,"o":"m 84 1010 q 93 1008 90 1010 q 102 1006 96 1006 q 126 1007 118 1008 q 142 1006 134 1006 q 164 1006 157 1006 q 175 1006 171 1008 q 184 1006 179 1005 q 191 989 193 994 q 190 978 190 985 q 190 959 190 967 q 189 944 190 951 q 188 929 189 930 q 187 925 187 928 q 190 907 190 914 q 191 895 191 901 q 190 886 190 890 q 191 867 191 872 q 190 859 190 863 q 191 846 190 852 q 193 834 193 841 q 192 824 193 829 q 191 814 191 819 q 193 806 191 810 q 195 798 194 802 q 195 789 195 793 q 194 779 194 785 q 195 770 194 774 q 195 761 195 765 q 197 746 197 754 q 198 731 198 738 q 198 715 198 716 q 201 694 198 699 q 203 684 203 689 q 200 669 199 670 q 201 665 201 667 q 199 651 201 659 q 201 635 198 643 q 201 625 199 628 q 203 620 203 623 q 202 600 201 605 q 203 590 203 595 q 202 578 203 583 q 203 566 201 572 q 187 562 195 562 q 172 561 180 560 q 153 560 164 562 q 144 559 149 560 q 137 557 140 557 q 109 557 122 555 q 79 568 87 557 q 77 581 77 575 q 77 593 77 586 q 75 616 75 612 q 75 627 76 621 q 74 639 75 633 q 73 651 73 644 q 75 664 75 658 q 76 677 76 670 q 74 703 75 693 q 73 722 73 712 q 71 743 71 739 q 69 759 69 750 q 69 774 69 768 q 70 787 71 784 q 69 793 69 791 q 73 813 72 808 q 73 822 73 818 q 73 853 76 836 q 73 865 75 860 q 73 878 72 871 q 74 888 73 884 q 75 901 75 892 q 74 922 73 918 q 73 932 75 925 q 75 966 75 954 q 73 991 76 978 q 78 1004 75 1002 q 84 1010 81 1006 m 175 429 q 199 429 184 431 q 209 412 209 415 q 210 393 210 396 q 209 387 209 391 q 209 367 209 377 q 212 346 209 357 q 214 329 213 331 q 214 324 214 327 q 214 317 214 321 q 213 308 213 312 q 214 277 213 293 q 216 239 214 260 l 216 221 q 214 212 216 216 q 213 203 213 209 q 214 196 213 199 q 214 189 214 193 q 212 142 213 159 q 212 107 212 126 q 212 88 213 95 q 210 72 210 81 q 210 56 210 60 q 210 33 209 45 q 208 9 210 20 q 199 0 206 7 q 186 -8 191 -7 q 156 -4 165 -5 q 137 -4 146 -3 q 128 -1 133 -1 q 118 3 123 0 q 95 5 107 5 q 90 25 90 20 q 91 37 91 30 q 91 47 91 42 q 94 57 91 53 q 91 68 91 62 q 90 80 91 73 q 88 95 90 90 q 89 115 88 111 q 90 122 90 118 q 88 142 90 136 q 89 163 88 153 q 90 184 90 174 q 88 199 88 199 q 87 208 90 203 q 85 214 85 212 q 85 237 84 225 q 85 262 85 250 q 83 284 84 273 q 88 305 81 296 q 88 324 84 313 q 87 339 88 339 q 85 340 85 339 q 85 357 85 351 q 84 369 85 362 q 87 395 91 381 q 85 423 83 408 q 104 423 95 420 q 121 427 113 426 q 134 427 127 429 q 149 426 141 426 q 162 427 156 426 q 175 429 168 427 z "},"":{"ha":635,"x_min":42,"x_max":593,"o":"m 575 503 q 585 486 583 492 q 589 468 587 471 q 589 454 589 454 q 590 452 590 453 q 591 435 591 441 q 591 425 591 430 q 592 401 593 407 q 591 388 591 395 q 592 374 591 381 q 590 362 593 368 q 572 357 575 355 q 567 358 570 358 q 549 356 559 358 q 532 355 540 354 q 513 357 518 358 q 505 358 509 357 q 494 359 499 358 q 481 361 488 359 q 471 361 476 359 q 463 361 465 363 q 444 364 456 366 q 425 368 431 362 q 416 366 420 365 q 408 368 412 368 q 401 367 404 368 q 393 366 397 366 q 374 368 377 369 q 369 368 372 368 q 350 368 354 369 q 342 366 346 366 l 323 366 l 308 366 l 289 365 q 271 364 275 365 q 263 363 267 363 q 234 363 248 362 q 205 359 220 363 q 189 362 191 362 l 161 362 q 146 360 149 361 q 142 359 144 359 q 106 360 119 362 q 80 359 94 358 l 62 358 q 45 372 45 361 q 45 397 45 384 q 43 420 45 414 q 43 433 42 426 q 45 443 43 438 q 47 454 47 448 q 47 470 46 467 q 46 477 49 473 q 54 494 50 490 q 65 500 64 500 q 68 502 66 499 q 81 503 72 503 q 96 502 91 502 q 114 500 111 502 q 119 498 117 499 q 133 498 133 499 q 134 498 133 498 q 146 498 144 498 q 151 499 149 499 l 167 498 l 236 498 q 244 497 240 498 q 251 499 248 496 q 277 498 264 498 l 296 498 q 318 496 307 498 q 342 494 330 494 q 353 494 353 495 q 357 494 354 494 q 378 496 373 496 q 391 495 384 495 q 412 495 401 496 q 438 495 423 494 q 465 493 453 492 q 490 495 477 494 q 517 498 506 495 q 538 495 536 495 q 561 497 556 498 q 571 499 566 496 l 575 503 z "},"":{"ha":621,"x_min":35,"x_max":585,"o":"m 308 543 l 324 557 l 334 571 q 346 582 345 582 l 359 602 q 367 614 366 614 q 369 616 368 614 q 382 631 378 628 q 389 640 387 635 q 398 652 397 650 q 401 656 399 654 q 414 671 411 669 q 423 684 422 681 q 431 697 431 697 q 442 709 442 709 q 449 717 446 715 q 453 722 452 719 q 462 732 461 732 q 464 734 463 732 q 475 733 469 735 q 484 734 480 731 q 500 722 498 726 q 510 715 503 718 l 533 703 l 547 694 q 566 686 557 689 q 579 673 578 677 q 583 665 581 669 q 583 650 585 652 q 582 642 581 647 q 572 629 575 632 q 571 624 570 627 q 560 608 564 617 q 548 594 556 600 q 540 583 541 586 q 536 578 538 581 q 528 568 529 568 q 525 566 526 567 q 512 548 514 552 q 507 541 510 544 q 499 532 505 536 q 490 524 494 529 q 480 508 481 509 q 477 506 479 507 q 471 498 475 502 q 464 488 467 494 q 445 467 448 471 q 430 451 433 453 q 425 445 427 449 q 413 427 418 430 q 410 418 408 423 q 414 410 410 412 q 420 403 418 407 q 430 389 427 391 q 435 387 433 388 q 443 376 441 378 q 448 372 445 373 q 456 360 450 365 q 467 349 463 355 q 475 338 475 339 q 476 335 475 336 q 484 326 479 331 q 494 316 488 321 q 508 302 503 305 q 517 293 513 298 q 521 286 518 289 q 526 281 524 283 q 537 270 534 273 q 548 256 544 258 q 560 243 556 245 q 566 235 564 241 q 575 224 572 227 q 581 218 578 221 q 580 210 579 213 q 579 203 581 206 q 574 196 578 199 q 571 189 571 193 q 551 172 563 180 q 537 165 541 165 q 524 153 530 159 q 509 140 517 146 q 498 130 499 129 q 494 130 496 132 q 479 123 483 125 q 472 121 476 121 q 452 140 458 133 q 447 146 449 142 q 441 151 445 151 q 437 157 439 155 q 433 164 435 160 q 423 176 425 174 q 420 180 422 178 q 411 194 416 189 q 400 206 406 199 q 391 221 391 221 q 380 233 381 231 q 374 236 380 236 q 367 248 368 245 q 363 250 366 250 q 358 258 362 256 q 351 267 354 260 q 339 282 347 274 q 323 300 327 298 q 311 290 313 293 q 307 283 309 286 q 297 270 298 273 q 282 248 285 255 q 273 235 274 237 q 270 232 273 233 q 258 212 263 217 q 247 199 252 206 q 237 186 239 189 q 235 182 235 184 q 224 171 225 171 l 212 153 q 199 136 201 138 q 194 132 197 134 q 178 119 183 119 q 156 123 159 121 q 146 128 149 127 q 141 130 144 129 q 130 137 133 136 q 125 140 127 138 q 111 147 113 146 q 109 151 110 148 q 95 160 98 156 q 72 175 76 168 q 61 186 68 182 q 55 205 56 202 q 54 212 54 209 q 65 223 61 218 q 73 235 69 228 q 88 256 84 252 l 100 271 q 110 283 109 279 q 117 288 111 286 q 130 305 127 302 q 136 311 133 308 q 145 328 142 326 q 151 334 148 331 q 156 342 156 340 q 159 347 156 345 q 165 355 163 351 q 170 362 168 358 q 178 374 176 370 q 183 381 180 378 q 193 398 191 396 q 198 403 195 400 l 206 416 q 212 424 209 419 q 217 431 214 429 q 214 441 216 437 q 209 448 212 445 q 189 467 191 463 q 179 481 180 479 q 174 484 178 483 q 168 495 171 490 q 160 503 165 500 l 151 517 q 144 522 148 519 q 140 528 141 524 q 131 535 133 530 q 123 543 129 540 l 114 555 l 103 567 q 94 579 96 578 q 81 593 84 591 q 79 598 79 594 q 72 606 75 605 q 68 613 69 608 q 60 623 61 621 q 58 628 60 625 q 53 633 56 631 q 47 642 50 636 q 35 654 35 652 q 40 669 38 666 q 47 674 42 673 q 56 684 54 682 q 61 686 58 685 q 85 700 80 697 q 100 707 98 707 q 107 711 103 708 q 123 722 119 718 q 142 732 137 728 q 155 739 148 736 q 165 730 164 732 q 168 724 167 727 q 182 711 175 713 q 197 690 184 700 q 201 683 197 684 q 206 677 205 682 q 213 670 210 674 q 220 663 216 666 q 235 643 224 650 q 243 629 237 635 q 252 617 250 624 q 258 606 255 608 q 259 602 262 605 q 268 593 267 595 q 271 591 269 591 q 281 578 273 586 q 298 554 293 559 q 308 543 304 549 z "}," ":{"ha":458,"x_min":0,"x_max":0,"o":""},"!":{"ha":349,"x_min":42,"x_max":293,"o":"m 45 990 q 54 994 47 993 q 65 996 60 996 l 85 996 q 98 995 98 994 q 102 996 99 996 q 111 995 107 996 q 121 994 115 994 q 134 994 133 994 q 138 993 136 993 l 155 994 q 163 995 159 994 q 172 996 168 996 q 180 995 176 996 q 189 994 184 994 l 203 993 q 229 995 217 993 q 254 997 241 997 q 264 996 260 996 q 271 996 269 997 q 286 988 283 990 q 289 986 288 986 q 292 962 292 968 q 290 947 293 955 q 290 921 290 932 q 290 899 290 910 l 290 883 q 290 866 292 872 q 289 854 289 860 q 288 848 289 852 q 289 837 288 844 q 290 830 289 834 q 290 822 290 826 q 290 801 289 806 q 290 792 290 796 q 290 777 290 785 q 289 757 289 768 q 288 741 288 747 q 288 726 288 726 q 289 724 289 726 q 288 684 288 705 q 285 643 288 662 q 279 595 283 617 q 280 577 279 587 q 279 556 281 567 q 278 535 278 544 q 278 519 278 526 l 277 488 q 275 475 277 476 q 274 472 274 475 q 275 462 275 464 q 274 457 274 460 q 275 436 275 442 q 274 423 275 430 q 274 413 274 418 q 277 401 274 408 q 275 389 274 395 q 277 377 277 382 q 279 353 277 361 q 278 331 279 342 q 275 308 277 320 q 275 296 275 301 q 274 286 274 292 q 272 272 271 274 q 271 267 273 270 q 263 253 266 256 q 252 247 260 250 l 236 247 q 220 246 224 247 q 212 245 216 245 q 195 246 203 245 q 180 248 187 247 q 159 248 167 250 q 144 247 152 247 q 129 246 132 247 q 123 247 126 245 q 107 250 121 247 l 92 256 q 77 275 81 273 q 76 306 75 297 q 75 326 77 315 q 79 338 79 336 q 80 342 79 340 q 78 349 79 346 q 76 357 77 353 q 76 378 77 373 q 75 385 75 382 q 73 403 72 396 q 73 416 73 410 q 71 433 73 422 q 69 481 66 461 q 70 498 69 498 q 71 499 71 498 q 68 511 68 510 q 69 514 69 511 l 68 534 q 66 549 68 543 q 65 559 65 555 q 67 576 68 575 q 66 579 66 576 q 65 604 68 593 q 65 612 66 609 q 66 618 64 616 q 66 640 66 628 q 65 658 68 652 q 64 680 65 675 q 61 689 62 684 q 60 703 60 696 q 60 716 61 709 l 60 734 q 60 744 61 739 q 58 754 58 749 l 60 769 l 58 798 q 58 813 57 804 q 57 829 58 822 q 57 838 58 834 q 54 845 56 842 q 55 853 54 849 q 54 860 56 857 q 52 878 52 875 q 52 884 53 882 l 47 901 q 43 922 46 914 q 42 961 42 945 q 45 990 42 977 m 270 133 q 279 117 275 121 q 281 106 282 107 q 282 102 281 104 q 285 85 283 88 l 285 61 q 279 53 282 57 q 279 43 277 49 q 273 27 271 31 q 268 20 269 24 q 264 14 267 16 q 252 4 252 3 q 243 -4 244 -4 q 241 -7 241 -4 q 233 -10 236 -8 q 225 -14 229 -12 l 209 -22 q 191 -22 194 -22 q 184 -23 189 -23 q 175 -24 180 -24 q 164 -23 170 -23 q 150 -20 157 -22 q 136 -15 142 -18 q 126 -12 130 -14 q 117 -9 122 -9 q 109 -5 114 -7 q 102 0 104 -3 q 94 5 98 3 q 85 9 91 8 q 74 26 77 20 q 66 34 71 31 q 64 41 66 38 q 60 49 61 45 l 60 64 l 62 84 q 65 93 64 88 q 68 102 66 98 q 71 111 71 107 q 72 118 71 115 q 83 130 79 126 q 98 141 95 140 q 113 152 111 151 q 133 163 127 159 q 153 170 148 170 q 165 170 159 170 q 184 171 172 171 q 193 171 189 171 q 201 170 198 171 q 213 166 212 165 q 217 165 214 167 q 236 157 233 159 q 245 151 243 151 q 251 149 248 151 q 262 138 258 140 q 270 133 267 136 z "},"\"":{"ha":448,"x_min":42,"x_max":420,"o":"m 180 605 q 155 608 167 605 q 129 605 142 610 q 121 605 125 604 q 114 605 118 606 q 96 602 98 601 q 91 605 94 604 q 76 619 79 616 q 72 624 73 623 q 70 638 71 637 q 69 640 69 639 q 66 658 66 654 q 65 667 65 662 q 66 680 65 674 q 66 692 66 685 q 64 709 66 701 q 62 727 62 718 q 63 736 62 731 q 64 745 64 741 q 60 762 61 758 q 60 768 60 765 q 59 787 60 777 q 57 803 58 798 q 55 819 54 815 q 56 826 56 822 q 50 842 54 833 q 51 854 53 849 q 52 867 49 860 q 48 878 50 872 q 45 890 46 883 q 46 903 45 897 q 45 914 47 910 q 44 926 43 918 q 42 939 45 935 q 43 947 43 941 q 45 956 42 952 q 46 981 42 970 q 53 994 52 993 q 64 999 61 1000 q 69 1000 66 998 q 79 1003 75 1001 q 88 1005 84 1005 q 96 1005 92 1006 q 104 1004 100 1004 q 127 1004 121 1005 q 140 1000 134 1002 l 155 997 q 167 992 160 994 q 180 993 174 990 q 195 996 191 994 q 201 994 198 997 q 208 987 206 991 q 212 978 209 983 q 215 958 216 966 q 213 940 214 949 q 212 930 213 936 q 212 920 212 925 q 212 901 213 903 q 210 894 210 898 q 208 880 208 882 q 209 875 209 878 q 206 848 208 864 q 203 818 205 833 q 202 801 201 810 q 201 784 203 792 q 198 767 199 774 q 197 751 197 760 q 197 732 198 735 q 197 726 197 728 q 194 706 195 715 q 191 688 193 697 q 190 677 190 682 q 189 667 190 673 q 188 659 189 662 q 187 651 187 655 q 185 626 187 637 q 180 605 183 614 m 250 983 q 262 994 262 994 q 281 1003 278 1004 q 288 1002 285 1002 q 300 1002 298 1004 q 304 1001 301 1000 q 323 1002 317 1004 q 335 1004 328 1001 q 357 1006 350 1005 q 370 1006 363 1006 q 391 1001 381 1001 q 399 991 395 994 q 411 986 404 989 q 414 977 412 981 q 418 966 416 972 q 418 954 419 960 q 418 940 418 947 q 419 921 418 932 q 416 906 420 910 q 417 897 418 901 q 416 890 416 892 q 417 869 418 873 q 415 861 416 865 q 414 852 414 853 q 415 846 415 852 q 414 836 415 840 q 414 830 414 833 q 412 807 412 815 q 408 792 411 799 q 408 783 408 788 q 407 774 408 779 q 404 752 403 757 q 403 743 404 747 q 399 729 401 736 q 396 712 397 722 q 397 703 396 708 q 396 693 397 699 q 393 677 396 688 q 391 656 392 661 q 389 648 391 652 q 388 638 388 642 q 387 631 388 635 q 382 618 384 621 q 373 610 380 614 q 363 598 366 601 q 328 598 346 597 q 298 598 311 600 q 286 612 288 612 q 283 614 285 613 q 278 635 278 632 q 275 644 275 640 q 274 655 275 648 q 272 671 271 665 q 271 688 273 677 q 269 703 271 694 q 269 733 270 726 q 269 749 269 741 q 269 762 267 755 q 269 773 270 769 q 267 785 269 780 q 266 795 266 791 q 267 804 266 800 q 267 814 267 808 q 264 836 267 825 q 263 857 262 846 q 261 867 260 861 q 259 876 262 872 q 255 896 255 890 q 255 907 255 902 l 254 928 q 252 943 251 943 q 252 955 251 951 q 252 964 252 959 q 249 975 251 972 q 250 983 247 977 z "},"#":{"ha":869,"x_min":14,"x_max":856,"o":"m 743 1000 q 742 966 746 985 q 739 945 739 948 q 738 927 739 939 q 736 913 736 916 q 731 887 735 897 q 727 871 727 875 q 726 865 727 868 q 715 838 718 845 q 712 818 713 823 q 709 804 708 806 q 708 800 709 803 q 707 792 708 798 q 705 780 705 787 q 720 778 712 777 q 734 777 727 779 q 749 775 747 774 q 753 776 750 776 q 766 775 762 774 q 773 776 770 776 q 783 774 777 776 q 792 776 789 773 q 808 780 800 777 q 819 783 817 784 q 823 783 821 783 q 836 779 834 779 q 842 780 838 780 q 854 771 854 774 q 856 764 854 768 q 853 739 854 742 q 850 727 850 727 q 849 724 849 727 q 846 714 848 718 q 842 705 845 711 q 834 677 837 688 q 828 661 827 666 q 826 655 829 656 q 812 636 819 636 q 789 633 799 632 q 764 632 779 633 l 724 632 q 711 633 712 633 q 708 632 709 632 q 689 635 692 635 q 675 625 674 629 q 674 617 675 621 l 673 602 l 669 581 q 664 564 665 566 q 663 562 663 563 q 661 553 662 557 q 661 543 661 549 q 656 525 658 526 q 655 521 655 524 q 654 511 654 515 q 654 502 655 506 q 647 477 648 487 q 644 456 646 468 q 640 435 642 445 q 637 422 637 426 q 635 403 637 414 q 629 387 629 387 q 633 372 633 372 q 647 371 647 370 q 648 372 647 372 q 659 372 656 372 q 663 373 661 373 q 678 372 677 372 q 681 373 680 373 q 699 372 696 373 q 704 372 701 372 q 727 372 723 372 q 735 373 731 373 q 747 372 746 372 q 750 373 749 373 q 762 370 761 372 q 766 365 764 368 q 770 336 774 355 q 767 321 768 324 q 766 316 766 319 q 764 305 765 309 q 760 294 762 301 q 754 272 755 277 q 753 262 753 267 q 751 253 751 256 q 750 247 751 250 q 738 233 742 233 q 731 231 734 233 q 722 233 727 232 q 713 232 718 233 q 701 231 703 231 q 696 232 699 232 q 680 232 682 232 q 656 235 667 232 q 632 236 636 233 q 618 234 625 232 q 602 235 612 236 l 593 205 q 592 194 593 197 q 591 189 591 191 q 588 163 589 171 q 586 148 587 156 q 583 132 583 133 q 582 130 582 132 q 578 110 579 115 q 575 95 578 109 q 572 80 572 81 q 570 65 571 71 q 568 53 570 60 q 566 41 567 50 q 564 27 566 31 q 563 15 563 22 q 559 7 563 8 q 541 3 545 4 q 532 1 537 3 q 510 1 519 1 q 490 0 500 1 q 479 -3 481 -1 q 473 -3 476 -4 q 457 -1 461 0 q 449 -3 453 -3 q 441 31 438 9 q 442 43 442 34 q 444 56 442 53 l 450 79 q 454 100 452 83 q 457 121 456 117 q 463 140 458 132 q 465 156 463 145 q 469 174 469 167 q 473 189 473 186 l 476 205 q 478 212 477 209 q 480 220 479 216 q 481 228 481 224 q 483 235 480 232 q 470 237 477 237 q 456 236 463 236 q 443 236 449 237 q 430 235 437 235 l 415 236 q 402 235 408 235 q 392 235 396 235 q 376 234 381 235 q 369 233 372 233 l 323 233 q 304 234 307 235 q 300 236 302 233 q 290 233 296 231 q 278 233 283 236 q 275 225 274 231 q 274 214 275 220 q 268 192 269 199 q 264 179 267 184 q 260 152 263 165 q 254 123 256 138 q 248 89 250 106 q 244 68 245 72 q 241 58 241 62 q 240 52 241 54 q 239 37 239 43 q 236 23 239 30 q 230 12 235 16 q 222 3 225 8 l 203 -3 q 186 0 193 0 q 172 -2 172 -1 q 170 -3 171 -3 q 151 -5 155 -4 q 142 -5 148 -7 q 117 11 119 1 q 114 23 113 19 q 113 31 115 27 q 122 86 117 57 q 129 132 127 115 q 130 138 130 134 q 132 148 129 142 q 135 158 136 155 q 137 163 134 161 q 142 206 140 183 q 149 225 149 216 q 141 227 145 228 q 134 225 137 225 q 119 225 123 224 q 111 227 115 227 q 104 227 109 228 q 96 228 99 227 q 86 229 94 229 q 72 229 79 229 q 52 227 58 227 q 35 227 41 228 q 26 232 30 227 q 15 238 16 237 q 14 241 14 239 q 17 262 16 258 q 16 270 18 267 q 22 284 22 281 q 23 290 22 288 q 27 308 27 304 q 31 323 31 313 q 37 346 34 332 q 41 357 39 351 q 45 365 42 362 q 58 370 54 368 q 66 372 62 372 q 83 369 80 370 q 88 368 85 368 q 100 368 95 366 q 113 369 106 369 q 128 368 125 368 q 134 369 132 369 q 148 371 146 370 q 151 372 149 372 q 165 370 164 369 q 168 372 165 372 q 176 372 172 373 q 184 372 180 372 q 189 387 189 387 q 190 389 189 388 q 193 407 193 404 q 197 422 197 420 q 199 426 197 425 q 201 436 199 427 q 204 454 202 445 q 208 472 206 464 q 210 481 210 480 l 212 496 q 215 511 216 511 q 214 511 214 510 q 217 522 217 518 q 220 528 217 525 q 221 544 220 534 q 224 562 222 553 q 227 593 224 582 q 230 603 228 598 q 231 614 232 608 l 216 617 q 199 621 202 620 q 194 621 197 621 q 179 618 182 618 q 174 618 176 618 q 155 616 164 617 q 136 614 146 614 q 125 616 130 614 q 114 617 121 618 q 104 621 110 620 q 95 628 98 621 q 97 640 96 637 q 98 643 98 642 q 98 659 98 655 q 99 667 99 663 q 106 687 102 678 q 113 707 110 696 q 115 722 114 713 q 117 738 115 730 q 123 754 122 751 q 134 769 134 768 q 137 772 134 770 q 153 772 152 772 q 157 773 155 773 q 177 772 174 772 q 183 773 180 773 q 207 772 199 772 q 217 772 214 773 q 231 770 228 769 q 239 772 235 770 l 267 772 q 271 792 271 785 l 275 812 q 279 825 278 823 q 281 831 281 827 q 282 852 282 846 q 286 867 286 863 q 286 876 286 872 q 291 897 290 892 q 292 906 292 902 q 295 924 293 909 q 297 941 297 939 q 301 972 301 963 q 313 990 308 985 q 330 1000 327 1000 q 346 1004 339 1004 q 372 1005 355 1005 q 389 1006 384 1006 q 399 1005 395 1006 q 418 1000 416 1001 q 432 983 431 987 q 435 977 433 979 q 432 962 433 970 q 430 947 431 955 q 429 941 430 947 q 428 928 429 935 q 426 917 427 922 q 425 911 425 911 q 421 893 422 895 q 420 888 420 891 q 416 872 419 878 q 410 846 412 850 q 404 825 406 830 q 401 812 403 819 q 399 804 399 807 q 397 798 399 800 q 395 787 396 792 q 393 774 393 781 q 416 771 407 770 q 435 773 425 772 q 452 775 450 774 q 456 776 453 776 q 470 774 469 773 q 473 774 471 774 q 485 775 484 774 q 488 776 486 776 q 500 775 494 776 q 514 776 507 774 l 529 777 l 567 777 q 575 778 571 777 q 583 776 579 779 q 587 795 586 787 q 591 815 589 804 q 597 838 597 831 q 600 850 597 845 q 600 859 598 854 q 602 867 601 863 q 604 875 604 871 q 605 883 604 879 q 608 896 606 890 q 610 909 609 902 q 613 928 612 916 q 614 943 614 941 q 617 962 617 959 q 618 967 617 964 q 621 975 620 971 q 624 983 623 979 q 642 997 637 997 q 652 998 647 997 q 659 1002 655 1000 q 667 1004 662 1004 l 685 1004 q 708 1008 700 1005 q 724 1006 718 1008 q 739 1001 736 1001 q 743 1000 741 1001 m 543 637 q 528 635 528 636 q 526 635 528 635 q 512 634 513 633 q 510 635 511 635 q 493 633 495 632 q 488 632 491 633 l 471 632 q 460 631 467 631 q 449 631 454 631 q 439 630 444 631 q 429 628 435 629 l 412 628 q 403 627 407 627 q 395 628 399 628 q 376 627 385 628 q 357 623 366 625 q 353 610 354 617 q 350 597 351 604 q 347 580 347 585 q 346 570 346 575 l 343 553 q 339 537 339 540 l 338 521 l 334 505 q 329 479 331 490 q 325 458 327 469 q 321 437 323 448 q 317 425 319 427 q 312 399 315 408 q 308 385 309 392 q 307 369 307 377 q 317 370 312 372 q 326 366 321 368 q 339 367 338 368 q 342 366 340 366 q 356 367 354 366 q 361 365 358 368 q 378 366 370 365 q 391 368 385 368 q 404 367 399 366 q 412 368 408 368 q 432 366 420 366 q 452 366 444 366 q 469 367 467 368 q 473 368 471 366 q 483 368 480 368 q 488 369 486 369 q 509 368 503 369 q 513 383 511 376 q 515 399 514 391 q 516 406 515 403 q 517 414 517 410 q 519 426 518 425 q 519 430 519 427 q 521 441 519 433 q 524 460 522 450 q 528 477 526 469 q 529 487 529 486 q 531 501 530 500 q 532 503 532 502 q 534 514 533 513 q 534 518 534 515 q 536 536 536 525 q 538 549 537 543 q 541 562 540 556 q 545 578 544 576 q 545 581 545 579 q 552 620 553 609 q 556 637 556 625 l 543 637 z "},"$":{"ha":631,"x_min":35,"x_max":595,"o":"m 406 977 q 418 974 418 972 q 422 975 419 975 q 429 974 426 975 q 438 972 433 972 q 457 972 453 972 q 467 971 461 971 q 475 970 472 970 q 481 968 479 970 q 496 966 495 966 q 511 963 510 963 q 524 962 518 962 q 536 963 529 963 q 551 953 548 954 q 556 954 553 952 q 567 937 563 944 q 570 918 570 921 q 571 911 571 914 q 570 892 572 898 q 567 875 567 878 q 568 854 570 859 q 567 846 567 850 q 568 831 568 831 l 570 798 q 568 790 568 793 q 566 783 567 787 q 566 758 567 764 q 563 745 564 751 q 555 730 557 735 q 543 722 552 724 q 520 727 524 724 q 513 732 517 730 q 505 739 507 736 q 500 745 503 742 q 490 748 495 746 q 480 753 486 750 q 461 760 467 755 q 444 765 445 765 q 412 769 423 769 q 392 772 400 769 q 380 771 384 772 q 369 770 376 770 q 352 770 353 770 q 350 769 351 769 l 332 768 l 313 764 q 294 756 297 757 q 286 753 290 755 l 266 738 l 255 727 q 244 709 247 715 q 239 693 240 697 q 239 678 237 678 q 238 671 239 675 q 239 662 237 667 q 251 643 245 648 q 262 631 254 639 q 269 623 267 624 q 273 620 270 623 q 288 604 279 613 q 305 587 297 594 q 315 580 312 582 q 320 575 317 578 q 334 565 334 566 q 338 563 335 564 q 353 548 347 556 q 367 538 366 540 q 369 536 368 537 q 382 525 382 525 q 391 519 387 522 q 400 514 395 517 q 412 504 410 506 q 415 499 415 502 q 429 490 423 492 q 448 473 444 477 q 456 465 453 467 q 461 461 458 464 q 469 450 468 450 q 471 449 471 450 q 479 441 477 442 q 484 437 481 439 q 488 430 487 434 q 494 423 490 426 q 502 414 500 416 q 505 410 503 411 q 513 401 511 403 q 515 397 514 400 q 526 383 526 385 q 528 380 526 381 q 536 369 534 369 q 537 366 537 369 q 544 357 543 359 q 548 354 545 354 q 553 345 551 349 q 560 338 556 340 q 563 328 560 332 q 566 317 566 324 q 577 298 576 302 q 579 289 578 293 q 590 270 587 275 q 593 252 593 262 q 595 232 593 241 q 593 206 595 214 q 589 191 590 198 q 582 168 587 176 q 576 153 576 155 q 575 148 576 151 q 568 132 568 134 q 561 120 562 122 q 559 117 560 118 q 551 106 556 111 q 543 96 547 102 q 533 86 533 88 q 530 83 533 84 q 517 71 518 72 q 515 68 517 69 q 504 62 507 64 q 495 60 500 60 q 484 54 490 56 q 475 46 479 52 q 467 44 471 46 q 458 41 463 42 q 450 37 454 38 q 444 34 446 37 q 397 23 415 31 q 397 1 399 7 q 396 -12 396 -5 q 395 -31 395 -24 l 388 -45 q 374 -52 377 -53 q 369 -53 372 -50 q 351 -52 359 -52 q 340 -51 342 -52 q 336 -52 339 -50 q 319 -52 323 -53 q 311 -52 315 -52 q 300 -51 305 -50 q 293 -52 296 -52 q 267 -46 275 -46 q 252 -46 258 -46 q 230 -43 236 -45 q 217 -43 224 -42 q 208 -26 212 -39 q 205 -8 205 -20 q 202 8 203 4 q 201 16 201 12 q 191 19 198 19 q 175 19 183 19 q 159 22 160 22 q 156 24 157 23 q 135 28 145 24 q 115 33 125 31 q 105 34 110 34 q 94 37 100 34 q 79 43 81 41 q 71 58 73 56 q 65 79 69 71 q 64 98 64 92 l 64 115 l 62 130 q 60 150 58 145 q 58 157 61 155 q 59 174 60 174 q 58 178 58 175 q 58 198 60 194 q 58 209 57 202 q 69 224 65 221 q 85 214 84 214 q 97 208 96 208 q 99 206 98 208 l 113 198 q 130 195 126 194 q 137 194 134 195 q 151 186 149 187 q 155 187 153 184 q 165 183 160 182 q 182 183 171 184 q 205 180 194 180 q 216 180 212 180 q 228 179 221 179 q 248 177 243 178 q 259 176 254 176 l 282 176 q 306 180 300 180 q 316 182 312 179 q 332 186 328 184 q 350 194 347 190 q 358 199 353 198 q 372 209 366 206 q 385 220 382 217 q 391 225 387 224 q 393 241 391 241 q 395 244 396 241 q 391 266 395 258 q 384 285 388 274 q 375 296 380 290 q 365 307 370 301 q 355 320 357 320 q 353 321 354 320 q 343 334 345 332 q 338 340 340 336 q 328 345 335 345 q 319 355 320 355 q 316 357 317 355 l 304 366 q 286 380 290 378 q 281 388 282 382 q 267 393 273 389 q 254 399 262 396 q 242 408 243 407 q 239 411 241 410 q 222 423 227 419 q 209 437 216 427 q 194 446 197 445 q 190 449 191 448 q 177 460 180 458 q 171 465 174 461 q 161 472 161 471 q 156 473 160 473 q 144 486 149 483 q 131 498 132 496 q 127 503 130 500 q 109 513 113 513 q 102 522 103 521 q 98 525 100 522 q 87 534 91 532 q 81 540 84 537 q 73 547 76 544 q 73 555 71 549 q 68 561 71 557 q 61 567 65 564 q 58 574 61 572 q 56 583 56 576 q 48 604 50 600 q 43 613 46 608 q 38 628 42 623 l 38 656 l 39 675 q 37 697 38 692 q 37 705 35 703 q 39 722 41 722 q 38 724 37 722 q 41 740 41 739 q 43 743 42 741 q 47 779 46 766 q 57 797 54 793 q 64 803 60 800 q 66 812 64 810 q 69 822 69 815 q 76 829 73 825 q 81 838 79 834 q 87 849 85 848 q 91 853 90 850 q 102 865 102 863 q 104 869 103 867 q 125 887 119 883 q 136 903 136 902 q 153 913 148 910 l 165 924 q 177 929 175 929 q 180 932 179 929 q 199 944 197 940 q 210 945 206 944 q 217 949 213 947 q 216 979 213 963 q 221 1010 220 996 q 231 1023 231 1020 q 248 1025 239 1024 q 267 1025 256 1027 q 276 1024 273 1025 q 286 1024 279 1023 q 303 1026 302 1027 q 307 1027 304 1025 q 315 1027 312 1028 q 321 1025 317 1025 q 339 1026 335 1025 q 350 1027 343 1027 q 373 1024 368 1024 q 382 1023 378 1024 q 399 1016 395 1021 q 404 1008 403 1010 q 406 998 407 1001 q 406 993 406 996 q 406 984 406 989 q 406 977 407 979 z "},"%":{"ha":1032,"x_min":27,"x_max":1012,"o":"m 894 997 q 893 985 898 990 q 886 975 888 981 q 869 948 878 956 q 864 943 867 945 q 859 937 861 940 q 846 910 852 918 q 837 891 841 902 q 821 873 826 882 q 813 864 815 868 q 808 857 811 860 q 798 840 799 844 q 793 834 796 837 q 785 821 785 825 q 783 814 784 817 q 774 800 774 811 l 764 788 q 755 776 758 780 q 750 768 753 772 q 747 760 750 762 q 742 753 745 757 q 731 735 734 739 l 724 716 q 713 704 715 707 q 709 700 712 701 q 701 684 703 686 q 699 680 700 682 q 693 667 694 669 q 690 662 692 665 l 684 648 q 667 623 673 633 q 662 614 665 618 q 655 606 659 610 l 646 590 q 640 581 643 585 q 637 572 636 578 q 625 557 627 560 q 618 542 618 544 q 616 537 617 540 q 607 527 609 530 q 602 519 605 524 q 594 509 598 515 q 585 499 590 503 q 578 483 582 490 q 568 464 571 468 q 562 454 566 460 q 558 448 560 452 q 553 439 556 444 q 538 416 544 427 q 532 402 533 403 q 532 399 530 401 q 521 387 522 389 q 518 382 519 385 l 510 369 q 503 356 502 357 q 502 354 503 355 q 493 340 498 347 q 486 323 488 332 q 473 304 475 307 q 469 298 472 301 q 463 289 465 293 q 458 282 461 285 q 450 269 450 270 q 449 266 450 267 q 441 254 442 256 q 438 248 441 251 q 431 239 433 243 q 427 232 430 235 q 416 217 418 217 q 414 214 415 217 q 400 193 408 203 l 391 179 l 381 165 q 372 153 374 156 q 365 143 369 149 q 358 132 361 137 q 351 118 354 129 q 341 107 345 114 q 332 94 338 100 l 313 68 q 297 42 300 47 q 291 31 292 31 q 289 27 290 30 q 278 6 281 9 q 273 -1 275 3 q 259 -3 266 -1 q 244 -4 252 -5 q 232 -1 237 -4 q 220 1 227 1 q 198 1 202 0 q 190 0 194 1 q 157 -5 167 -8 q 138 4 146 -1 q 144 30 137 20 q 161 53 156 39 q 165 61 164 57 q 168 68 165 65 q 179 79 178 77 q 186 94 186 92 q 189 98 186 95 l 201 111 q 209 120 206 118 q 214 125 212 122 q 223 137 221 133 q 228 144 225 141 q 236 157 236 153 q 237 163 236 160 q 245 174 243 168 q 250 183 247 179 q 262 201 259 198 q 266 208 264 205 q 283 232 275 221 q 293 245 293 244 q 294 248 293 247 q 304 266 302 263 q 307 271 305 269 q 317 288 315 285 q 321 294 319 292 q 336 316 328 308 l 342 331 q 347 340 347 338 q 349 345 347 342 q 365 361 361 358 q 378 377 373 377 q 384 390 384 389 q 385 393 384 391 q 399 414 391 403 q 410 431 408 427 q 415 438 412 434 q 423 452 423 452 q 439 473 435 465 q 448 486 446 483 q 452 494 449 490 q 459 505 456 498 q 465 519 463 513 q 473 530 473 529 q 473 534 472 532 q 479 546 477 545 q 480 548 480 547 q 486 563 486 563 q 498 578 494 574 q 505 590 502 583 q 514 602 513 601 q 523 621 521 617 q 528 631 525 625 q 536 644 534 640 q 540 651 537 647 l 549 663 q 558 675 556 673 q 562 680 560 677 q 570 697 568 694 q 583 716 581 712 q 587 726 585 720 q 596 744 595 741 q 600 750 597 747 q 606 758 604 754 q 610 765 609 761 q 615 771 613 768 q 620 777 617 774 l 631 792 q 641 804 636 799 q 650 817 646 810 q 654 824 652 821 q 659 831 656 827 q 669 849 665 846 q 682 865 680 863 q 692 882 688 878 q 697 892 696 886 q 703 898 700 895 q 709 903 707 901 q 713 913 711 909 q 718 921 715 917 q 726 935 726 930 q 736 948 735 947 q 745 963 742 959 q 747 972 747 967 q 754 977 753 974 q 758 983 755 981 q 770 996 768 996 q 776 998 773 996 l 792 1001 q 814 999 810 1001 q 823 997 819 997 q 833 998 829 997 q 844 1001 837 1000 q 857 1000 850 1001 q 869 1000 863 1000 q 883 1001 876 1000 q 894 997 890 1002 m 297 1012 q 321 1005 305 1008 q 337 995 334 1000 q 346 987 340 990 q 361 972 358 977 q 370 963 368 966 q 377 958 373 960 q 388 947 385 949 q 394 940 391 943 q 400 933 397 937 l 412 916 q 423 896 420 902 q 429 883 426 890 q 441 855 438 864 q 446 837 444 846 q 448 823 449 827 q 449 817 448 819 q 457 793 454 796 q 456 780 454 787 q 458 766 458 773 q 459 756 460 761 q 458 746 458 751 q 459 737 458 742 q 460 728 460 732 q 457 705 457 709 q 456 693 457 700 q 452 676 453 686 q 448 655 450 666 q 444 644 444 646 q 442 640 444 643 q 430 612 438 625 q 427 606 427 609 q 423 598 426 602 q 411 585 419 591 q 404 570 408 576 q 396 556 400 564 q 377 533 382 541 l 366 521 q 349 507 353 510 q 343 502 346 505 q 336 496 340 499 q 328 490 331 494 q 313 484 313 484 q 311 483 312 483 q 290 476 294 479 q 282 472 286 473 q 248 472 260 469 q 227 475 232 476 q 217 475 222 475 q 199 479 208 476 q 182 483 191 481 q 166 495 175 491 q 149 505 157 499 q 134 514 138 510 q 124 522 127 517 q 114 533 121 526 q 106 541 110 537 q 99 548 102 544 q 90 559 90 559 q 90 562 91 560 q 77 576 81 572 q 71 583 73 579 q 62 602 65 595 q 56 616 58 609 q 39 659 43 637 q 36 679 35 675 q 37 686 37 682 q 33 706 34 701 q 33 715 33 711 l 31 741 q 27 761 27 755 q 29 771 27 766 q 33 783 31 776 q 37 806 35 802 q 38 827 35 822 q 44 846 45 841 q 46 854 43 850 q 52 869 49 865 q 57 884 54 880 q 62 893 60 890 q 68 902 65 897 q 71 910 71 906 q 75 917 72 914 q 100 949 91 939 q 119 967 109 959 q 133 978 133 977 q 146 985 141 982 q 156 991 152 989 q 171 996 167 994 q 179 1000 175 998 q 189 1004 183 1001 q 195 1006 191 1005 q 205 1009 199 1008 q 218 1012 212 1012 q 235 1015 225 1012 l 252 1017 q 263 1018 258 1017 q 274 1019 269 1019 q 286 1015 281 1017 q 297 1012 290 1012 m 270 865 q 251 872 255 872 q 244 872 247 872 q 234 870 240 872 q 225 867 228 868 q 212 859 213 859 q 199 844 202 846 q 187 828 189 831 q 183 822 186 825 q 175 804 175 808 q 171 780 171 793 q 169 764 170 765 q 168 761 168 764 q 168 743 168 750 q 171 728 168 736 q 175 711 172 722 l 179 694 q 182 684 180 690 q 186 675 184 678 q 191 669 189 671 q 195 663 193 666 l 203 648 q 214 640 213 640 q 217 639 216 640 q 231 630 227 633 q 240 625 236 627 q 256 625 252 625 q 262 624 259 624 q 278 633 275 632 q 283 636 281 635 q 298 644 296 644 l 309 658 q 316 671 315 670 q 320 684 320 680 q 321 692 320 688 q 328 716 327 711 q 328 728 328 722 q 332 755 334 746 q 334 772 331 764 q 331 779 331 774 q 328 788 331 784 q 323 801 326 795 q 321 817 320 807 q 311 827 312 827 q 309 827 311 826 q 304 834 307 830 q 298 841 302 838 q 290 851 296 848 q 281 860 285 854 l 270 865 m 850 522 q 860 518 854 519 q 872 515 865 517 q 894 501 888 505 q 905 494 899 498 q 913 484 909 488 q 922 475 917 479 q 944 452 933 464 q 964 425 955 441 q 981 393 977 404 q 991 365 989 373 q 997 349 994 357 q 1000 334 1001 338 q 1001 327 1000 330 q 1005 308 1005 311 q 1008 302 1005 305 q 1008 290 1006 296 q 1010 277 1009 283 l 1010 255 q 1011 246 1010 251 q 1010 239 1012 241 q 1008 215 1008 220 q 1006 203 1009 210 q 1000 167 1004 184 q 995 155 996 156 q 994 151 994 153 q 989 135 991 142 q 983 121 986 127 q 974 107 977 115 q 964 96 971 99 q 957 80 962 87 q 948 66 952 73 q 928 43 937 53 q 921 34 922 34 q 918 31 920 34 q 911 23 911 24 q 907 20 910 22 q 902 16 905 19 q 895 11 899 14 q 887 6 891 8 q 879 0 883 4 q 865 -6 867 -5 q 863 -7 864 -7 q 843 -12 846 -9 q 834 -16 840 -15 q 800 -16 811 -20 q 779 -14 785 -14 q 768 -15 773 -15 q 751 -11 758 -14 q 735 -5 743 -8 q 718 5 727 1 q 700 15 708 8 q 676 33 681 28 q 665 43 671 37 q 656 51 661 47 q 650 58 652 54 q 639 72 639 71 q 629 85 633 81 q 623 94 625 90 q 614 112 618 106 q 606 125 610 118 q 597 149 601 137 q 590 171 593 160 l 587 195 q 584 216 585 212 q 585 225 583 221 q 582 250 582 240 q 580 267 581 266 q 579 271 579 269 q 581 281 579 277 q 585 292 583 286 q 586 310 585 308 q 587 315 587 312 q 587 333 586 331 q 590 338 589 335 q 595 355 595 350 q 597 363 595 359 q 600 372 598 368 q 602 380 601 376 q 609 396 604 389 q 615 404 612 400 q 621 411 618 407 q 624 419 624 415 q 627 426 624 423 q 636 442 632 434 q 644 453 644 452 q 646 456 644 454 q 659 468 648 460 q 673 477 669 473 q 688 488 686 487 q 693 490 690 488 q 704 499 703 498 q 708 502 705 500 q 724 506 713 503 q 732 510 728 509 q 741 514 736 511 q 747 517 743 515 q 755 519 751 518 q 770 522 762 522 q 788 525 777 522 l 804 526 q 825 528 818 529 q 838 524 831 526 q 850 522 844 522 m 822 374 q 803 382 807 382 q 798 382 799 382 q 787 380 792 382 q 776 377 781 378 q 761 368 765 368 l 751 353 q 739 338 741 342 q 735 332 738 335 q 729 318 730 320 q 727 313 728 316 q 725 302 726 308 q 722 292 724 296 q 720 280 719 281 q 720 277 720 279 q 719 252 719 259 q 722 239 719 245 q 727 221 724 232 l 731 205 q 735 193 734 199 q 739 184 736 187 q 749 167 746 170 q 754 161 753 164 q 765 151 764 152 q 768 151 766 151 q 784 139 779 142 q 793 134 789 136 q 808 134 806 134 q 814 134 811 133 q 829 142 827 141 q 834 146 831 144 q 848 155 848 155 q 850 156 849 155 q 861 168 859 161 q 868 182 868 176 q 872 201 871 195 q 879 227 879 221 q 880 239 879 232 q 884 264 884 255 q 886 282 883 274 q 882 290 883 286 q 880 297 882 294 q 875 310 878 304 q 872 327 872 316 q 861 338 865 338 q 857 345 859 340 q 850 350 854 349 q 842 360 848 357 q 833 369 836 363 l 822 374 z "},"&":{"ha":869,"x_min":20,"x_max":869,"o":"m 404 545 q 411 530 407 537 q 419 515 415 522 q 423 508 422 511 q 426 502 425 505 q 430 492 429 498 q 435 484 431 487 q 446 467 445 471 q 448 460 448 464 q 457 444 456 445 q 464 429 464 430 q 465 427 464 429 q 479 411 477 411 q 488 393 487 396 q 494 389 490 391 q 502 374 494 382 q 510 358 505 365 q 519 345 515 351 q 526 338 524 342 q 532 332 528 335 q 541 345 538 339 q 553 354 549 350 l 566 368 q 578 389 575 385 q 585 399 582 393 q 592 416 590 414 q 594 420 594 418 q 585 420 589 422 q 575 419 581 419 q 562 421 566 419 q 556 423 559 423 q 549 427 553 426 q 540 431 544 429 q 537 461 537 452 q 536 479 537 471 q 535 492 536 486 q 536 506 534 498 q 537 533 537 522 q 538 556 538 549 q 538 577 537 572 q 540 586 540 582 q 565 594 556 594 q 579 593 574 594 l 595 591 q 637 590 620 589 q 645 591 642 590 q 652 590 648 591 q 665 589 663 589 q 670 590 667 590 q 681 589 678 589 q 686 590 684 590 q 701 589 697 589 q 709 590 705 589 q 717 591 713 590 q 724 590 720 591 l 753 589 q 766 588 761 589 q 774 587 770 587 l 793 587 l 810 587 q 834 583 822 587 q 852 578 842 582 q 863 564 863 568 q 866 557 865 560 q 867 547 867 553 q 865 530 864 533 q 865 525 865 528 q 865 507 864 511 q 865 498 865 503 q 865 486 864 488 q 867 480 867 483 q 868 470 868 475 q 868 461 868 465 q 869 452 868 456 q 867 444 869 448 q 867 433 867 437 q 868 429 868 430 q 857 417 859 418 q 852 414 854 416 q 845 415 849 416 q 837 412 841 414 q 806 414 817 414 q 784 415 795 415 q 780 408 780 412 q 777 401 780 404 q 766 385 766 387 q 758 371 760 372 q 755 368 757 370 q 751 355 753 359 q 747 349 749 351 q 739 335 741 336 l 730 320 q 724 311 727 315 q 716 304 720 307 q 713 294 715 300 q 708 285 711 289 l 697 266 q 690 251 690 251 q 685 235 685 245 q 672 217 674 220 q 670 212 670 214 q 655 198 659 208 q 663 191 658 194 q 671 184 669 187 q 682 173 677 179 q 693 161 686 167 q 708 151 700 156 q 722 141 719 144 l 735 134 l 751 122 q 764 112 761 115 q 773 106 768 109 q 793 98 788 99 q 796 83 796 91 q 798 68 796 75 q 788 56 793 61 q 777 45 783 52 q 764 27 766 33 q 756 18 760 23 q 749 8 753 14 q 734 -7 742 1 q 724 -20 727 -15 q 711 -33 713 -30 q 711 -38 709 -35 q 703 -42 704 -39 q 696 -47 701 -45 q 684 -49 686 -47 q 680 -49 682 -50 q 663 -42 670 -45 q 644 -31 647 -33 q 631 -23 632 -24 q 627 -20 629 -22 l 614 -11 q 594 0 600 -5 q 582 7 582 7 q 581 8 582 8 q 567 18 571 14 q 555 31 559 26 q 545 42 551 37 q 533 54 538 49 q 521 62 528 58 q 508 52 507 53 q 507 50 509 52 q 489 37 492 41 q 481 31 486 34 q 467 18 469 23 q 453 9 453 9 q 444 3 448 7 q 433 -1 439 0 q 420 -9 423 -8 q 412 -14 416 -11 l 396 -22 q 373 -27 391 -24 q 355 -31 361 -31 q 345 -33 350 -31 q 315 -39 324 -39 q 298 -39 307 -38 q 275 -41 281 -42 q 266 -39 270 -39 l 247 -39 q 227 -33 231 -33 q 221 -33 224 -34 q 191 -18 203 -30 q 178 -14 180 -14 q 176 -11 175 -14 q 163 -8 168 -12 q 152 -1 157 -4 q 136 8 138 5 q 130 11 134 11 q 125 17 127 15 q 121 23 122 19 q 114 28 117 24 q 107 31 111 31 q 94 43 99 41 q 83 52 83 52 q 81 54 83 53 q 62 72 69 69 q 55 93 57 90 q 53 103 53 96 q 45 117 45 115 q 42 122 45 119 q 39 130 41 126 q 37 140 38 134 q 33 159 35 151 q 27 170 30 167 q 23 190 23 186 q 21 209 20 201 q 22 225 22 217 q 23 241 20 236 q 24 253 24 251 q 23 258 23 255 q 27 283 24 275 q 33 297 30 290 q 37 313 34 311 q 45 336 41 330 q 52 350 49 343 q 58 365 57 361 q 60 373 60 369 q 68 387 66 385 q 72 389 71 388 q 79 401 77 400 q 80 404 80 403 q 87 418 85 418 q 94 428 92 426 q 99 433 96 430 q 107 446 106 445 q 110 448 109 446 q 115 456 114 456 q 117 463 117 457 q 130 473 130 473 q 132 476 129 473 q 138 487 138 486 q 141 491 138 488 q 146 497 142 494 q 152 503 149 500 q 161 517 160 517 l 170 530 q 179 542 179 541 q 180 544 179 543 q 186 553 183 549 q 191 562 189 557 q 183 579 186 574 q 174 594 174 593 q 167 602 168 598 q 163 609 165 606 q 157 629 157 628 q 149 643 153 639 q 139 661 140 655 q 136 670 138 666 q 122 689 129 685 q 117 702 119 696 q 113 715 115 708 q 109 724 110 719 q 107 735 109 730 q 102 747 104 743 q 99 757 100 750 q 96 774 95 772 q 96 779 96 776 q 94 786 95 783 q 92 793 92 789 q 92 805 91 799 q 94 818 94 811 q 92 834 91 829 q 95 848 92 842 q 95 860 98 853 q 102 876 100 868 q 107 891 104 884 q 114 909 114 906 q 121 918 119 917 q 123 921 122 918 l 130 936 q 146 956 138 948 l 157 967 l 171 982 q 182 987 183 986 q 184 990 182 989 q 196 996 194 993 q 205 1001 198 998 q 220 1008 218 1006 q 241 1010 237 1015 q 258 1019 251 1020 q 270 1021 264 1019 l 288 1025 q 301 1024 296 1023 q 309 1025 307 1025 q 326 1023 315 1025 q 339 1021 332 1021 q 353 1020 346 1021 q 368 1016 366 1017 q 381 1008 381 1009 q 382 1008 381 1008 q 390 1005 385 1005 q 399 1004 395 1005 q 410 997 407 998 q 418 993 414 996 q 436 983 431 985 q 444 978 441 981 q 457 967 452 974 q 466 957 467 958 q 467 954 465 956 q 475 943 475 945 q 477 937 476 940 q 487 926 486 928 q 490 921 488 924 q 498 908 498 911 q 499 902 498 905 q 504 892 502 897 q 507 883 506 888 q 513 867 511 868 q 514 865 514 867 q 517 840 514 845 q 521 829 519 834 q 522 814 521 817 q 522 810 522 812 q 521 789 524 804 q 522 778 521 784 q 521 766 522 772 q 519 759 521 762 q 515 751 517 755 q 514 741 514 746 q 513 730 514 735 q 506 708 506 713 l 496 690 q 489 678 488 680 q 488 675 490 677 q 479 661 479 663 q 471 642 476 655 l 463 628 q 450 609 454 616 q 441 595 445 602 q 434 585 435 586 q 431 583 433 585 l 419 567 q 412 556 415 562 q 404 545 410 551 m 320 724 q 328 736 328 735 q 328 738 327 736 l 339 753 q 347 772 347 770 q 349 783 347 774 q 351 798 349 787 q 352 810 351 808 q 353 812 353 811 q 347 824 346 823 q 346 827 347 825 q 340 841 340 841 q 339 842 339 841 q 326 860 327 853 q 315 865 319 861 q 304 868 311 869 q 290 856 290 859 q 279 845 282 848 q 273 823 274 831 q 274 812 271 815 q 278 793 278 796 q 279 783 279 787 q 279 774 278 779 q 287 762 288 762 q 288 760 286 761 l 294 746 q 302 730 300 732 q 313 713 308 713 l 320 724 m 393 213 q 387 229 388 225 q 384 235 385 232 q 368 255 373 247 q 364 262 365 258 q 361 269 363 266 q 353 284 355 279 q 347 294 350 289 q 341 306 345 301 q 338 317 338 311 q 329 331 331 330 q 327 335 327 332 q 316 352 319 347 q 311 359 313 357 q 305 372 308 366 q 300 385 302 377 q 290 376 290 377 q 289 373 289 376 q 278 356 281 361 q 273 349 275 351 q 266 330 267 335 q 257 317 258 319 q 255 313 256 316 q 248 298 250 302 q 235 277 237 282 q 232 266 233 273 q 225 241 228 247 q 221 228 222 235 q 221 212 221 217 q 221 190 218 194 q 224 182 224 186 q 229 175 227 179 q 235 168 232 171 q 255 153 248 156 q 277 147 273 146 q 286 148 282 148 q 307 150 300 151 q 320 151 313 149 q 340 159 336 159 q 347 163 345 160 q 366 172 359 170 q 377 180 372 174 q 385 184 381 182 q 392 189 388 186 q 395 196 393 193 q 400 205 397 199 l 393 213 z "},"'":{"ha":237,"x_min":42,"x_max":210,"o":"m 45 981 q 51 988 47 983 q 57 994 54 993 q 68 1000 66 998 q 72 1002 69 1001 q 90 1003 88 1002 q 95 1004 92 1004 l 110 1004 q 118 1002 115 1004 q 127 1004 121 1001 q 150 1006 145 1005 q 161 1006 155 1006 q 180 1001 170 1001 q 189 991 183 994 q 199 986 194 989 q 205 977 202 981 q 209 966 208 972 q 210 954 210 960 q 209 940 209 947 q 210 921 209 932 q 208 906 210 910 q 208 897 209 901 q 206 890 206 892 q 207 869 208 873 q 206 861 206 865 q 205 852 205 853 q 206 846 205 852 q 205 836 206 840 q 203 830 205 833 q 200 807 201 815 q 198 792 199 799 q 197 783 198 788 q 197 774 197 779 l 193 743 q 189 729 191 736 q 186 712 187 722 q 186 703 186 708 q 186 693 187 699 q 183 677 186 688 q 180 656 180 661 q 179 648 180 652 q 177 638 178 642 q 176 631 176 635 q 172 618 174 621 q 164 610 170 614 q 153 598 156 601 q 118 598 136 597 q 88 598 100 600 q 75 612 76 612 q 73 614 75 613 q 68 635 68 632 q 62 655 64 643 q 61 671 61 665 q 61 688 61 677 q 60 696 61 692 q 58 703 58 700 q 59 733 60 726 q 57 749 58 741 q 56 762 57 755 q 54 773 54 769 q 53 785 54 780 q 52 795 52 791 q 52 804 52 800 q 53 814 53 808 q 50 836 53 825 q 49 857 47 846 q 47 867 46 861 q 46 876 47 872 q 44 897 43 892 q 45 907 45 902 q 44 924 43 922 q 45 928 45 926 q 43 943 42 943 q 43 954 42 951 q 43 963 43 958 q 43 972 42 971 q 45 981 43 974 z "},"(":{"ha":370,"x_min":56,"x_max":342,"o":"m 338 952 q 326 947 331 949 q 317 941 321 944 q 306 932 309 937 q 296 925 302 928 l 275 903 q 269 896 273 899 q 263 888 266 892 l 255 872 q 249 862 250 869 q 243 852 248 854 q 237 833 240 836 q 235 829 235 830 q 233 820 233 823 q 232 814 233 817 q 227 796 228 798 q 225 792 225 795 q 221 775 222 777 q 218 770 220 773 q 217 760 217 764 q 216 753 217 757 q 213 738 213 742 l 213 722 q 209 705 209 709 q 208 684 208 689 q 208 669 209 674 q 208 663 206 665 q 205 652 205 658 q 205 642 206 647 q 203 631 205 636 q 201 621 201 627 q 201 603 203 608 q 198 595 199 598 q 198 572 199 579 q 197 553 197 559 q 197 538 197 541 q 194 528 193 532 q 195 521 195 524 q 193 505 193 507 q 193 500 193 502 q 192 489 191 492 q 191 480 193 486 q 191 463 190 467 q 191 457 191 458 q 191 441 191 446 q 193 425 193 427 q 193 420 194 423 l 194 384 q 195 368 194 376 q 194 354 195 361 q 197 331 195 338 q 197 318 197 321 q 198 313 198 315 q 203 290 199 296 q 205 277 205 283 q 205 263 205 270 q 207 250 205 251 q 206 248 209 250 q 214 229 214 232 q 216 222 213 225 q 220 212 218 217 q 227 203 222 208 q 229 189 229 193 q 232 186 228 186 q 232 171 232 176 q 243 150 241 157 q 248 136 245 142 q 262 111 258 121 q 268 105 266 109 q 273 99 270 102 q 285 85 281 91 q 298 67 294 71 q 304 61 301 64 q 324 50 316 49 q 340 33 338 39 q 341 16 340 19 q 339 11 342 14 q 340 0 342 5 q 338 -12 338 -5 q 338 -32 338 -30 q 339 -37 339 -34 q 328 -47 331 -47 q 323 -45 326 -46 q 311 -45 316 -45 q 301 -45 305 -46 q 292 -39 296 -42 q 285 -34 289 -35 q 269 -29 273 -31 q 258 -26 264 -27 q 242 -14 245 -15 q 236 -11 239 -14 q 220 0 224 -3 q 213 3 217 3 q 205 13 208 11 q 199 18 202 15 q 184 36 187 33 q 176 42 182 39 q 167 57 170 52 q 153 71 155 69 q 149 76 151 73 q 134 98 137 92 q 127 107 132 103 q 121 132 123 126 q 117 144 119 137 q 107 165 110 163 q 106 179 109 172 q 100 193 103 186 q 96 208 99 205 q 94 220 95 217 q 91 227 92 222 q 83 243 85 239 q 81 250 81 247 q 79 262 79 255 q 79 275 80 269 q 73 294 73 288 q 70 310 71 301 q 66 327 69 319 q 64 343 64 338 l 64 358 q 61 378 62 373 q 58 385 60 382 q 57 403 58 399 q 56 411 56 407 q 56 422 57 419 q 56 429 56 426 q 58 447 57 442 q 58 456 58 452 q 58 468 56 465 q 57 473 60 471 q 59 483 58 479 q 58 491 60 487 q 62 523 64 510 q 62 545 60 536 q 64 555 64 549 q 64 567 64 562 q 66 587 66 582 q 68 600 69 598 q 68 604 68 601 q 69 615 68 610 q 71 625 71 620 q 75 646 72 640 q 76 670 76 665 q 77 682 76 675 q 81 708 80 704 q 88 722 81 715 q 91 736 91 732 q 92 743 91 739 q 96 761 94 750 q 98 771 98 765 q 100 780 99 777 q 109 804 106 799 q 116 820 117 819 q 117 822 115 821 q 127 846 123 840 q 130 860 132 852 q 140 880 140 875 q 149 897 151 895 q 149 902 148 899 q 164 924 161 917 q 174 935 167 930 q 178 943 175 940 q 182 951 180 945 q 195 966 194 963 q 209 979 208 978 q 213 983 210 981 q 231 997 228 994 q 236 1002 233 1000 q 245 1006 243 1002 q 254 1010 247 1009 q 263 1019 260 1017 q 269 1023 266 1021 q 291 1029 286 1027 q 298 1034 296 1032 q 327 1034 321 1032 q 338 1027 338 1029 q 340 1024 338 1025 q 337 1008 338 1009 q 338 1005 336 1008 l 339 981 q 340 972 339 977 q 340 966 340 968 l 338 952 z "}}}
